<?xml version="1.0" encoding="UTF-8" standalone="no"?><svg width="100%" height="100%" viewBox="0 0 8334 8334" version="1.1" xmlns="http://www.w3.org/2000/svg" xmlns:xlink="http://www.w3.org/1999/xlink" xml:space="preserve" xmlns:serif="http://www.serif.com/" style="fill-rule:evenodd;clip-rule:evenodd;stroke-linejoin:round;stroke-miterlimit:2;"><rect id="Page-1" xmlns:www.serif.com="http://www.serif.com/" www.serif.com:id="Page 1" x="0" y="0" width="8333.333" height="8333.333" style="fill:none;"></rect><g id="Page-11" xmlns:www.serif.com="http://www.serif.com/" www.serif.com:id="Page 1"><g id="Logo-HCO" www.serif.com:id="Logo HCO"><path d="M4166.915,8114.094l-469.591,-493.613c-2102.129,-144.683 -2782.979,-1319.15 -2970.212,-2153.196c-164.775,-733.996 306.379,-1625.529 408.508,-2221.275c80.992,-472.433 -408.508,-1642.554 -408.508,-1642.554c936.171,-51.062 1285.104,-1327.658 1285.104,-1327.658c1353.192,1387.233 2154.699,0 2154.699,0c0,0 801.507,1387.234 2154.699,0c0,0 348.938,1276.596 1285.108,1327.658c0,0 -489.5,1170.121 -408.513,1642.554c102.129,595.746 573.288,1487.279 408.513,2221.275c-187.238,834.046 -868.088,2008.513 -2970.217,2153.196l-469.591,493.612Z" style="fill:#fff;"></path><path d="M4166.939,7717.863l-422.115,-443.712c-1889.6,-130.05 -2501.617,-1185.779 -2669.921,-1935.5c-148.117,-659.787 275.408,-1461.187 367.208,-1996.7c72.804,-424.671 -367.208,-1476.492 -367.208,-1476.492c841.521,-45.9 980.383,-1148.217 980.383,-1148.217c1216.383,1246.979 2111.652,-45.213 2111.652,-45.213c0,0 866.686,1246.983 2083.069,-0.001c0,0 167.446,1147.529 1008.971,1193.433c0,0 -440.012,1051.821 -367.212,1476.487c91.804,535.513 515.329,1336.913 367.212,1996.7c-168.308,749.721 -780.321,1805.45 -2669.921,1935.5l-422.119,443.713Z" style="fill:#f99307;"></path><g id="hco"><path d="M2758.494,1383.81c21.796,47.983 33.85,102.271 48.7,152.554c0.8,0.792 6.888,18.763 18.267,54.192c-41.333,52.688 -70.321,118.637 -71.838,186.071l0,381.892c142.233,-2.779 284.471,-5.179 426.721,-7.204l0,-402.029c0.629,-50.142 -20.546,-94.142 -41.508,-138.117c-9.767,-14.638 -19.529,-27.875 -29.292,-39.742c21.575,-77.358 42.087,-155.158 65.917,-231.867c96.871,-8.246 193.779,-15.471 290.804,-21.692c2.446,-0.15 9.358,22.013 20.787,66.613c17.971,53.858 31.554,109.433 46.471,164.175c-40.754,62.596 -69.633,124.646 -70.929,200.971l0,1125.858c1.429,75.525 31.233,137.375 70.925,199.65c-21.125,74.7 -42.321,149.383 -63.588,224.042c-0.979,0.496 -1.467,0.742 -2.446,1.233c-97.438,-6.258 -194.75,-13.571 -292.025,-21.954c-1.642,-0.142 -6.925,-16.863 -15.871,-50.046c-16.637,-59.292 -33.321,-118.571 -50.046,-177.838c19.525,-24.571 34.975,-48.279 46.383,-70.992c16.271,-42.204 24.417,-78.8 24.417,-109.487l0,-404.738c-142.25,-2.117 -284.487,-4.621 -426.721,-7.521l0,380.6c1.454,68.3 29.921,135.262 71.838,188.725c-21.467,69.033 -42.121,138.488 -65.75,206.829c-97.012,-12.404 -193.833,-25.858 -290.55,-40.375c-2.425,-0.371 -10.4,-27.412 -25.492,-77.692c-13.338,-44.446 -29.342,-89.721 -41.254,-135.313c26.688,-26.846 44.833,-54.154 54.604,-80.962c10.367,-28.433 15.783,-52.338 15.783,-71.304l0,-1039.375c0.362,-43.417 -20.35,-80.946 -40.054,-117.929c-10.525,-13.554 -20.629,-25.412 -30.333,-35.646c20.242,-70.771 42.812,-140.929 64.321,-211.329c97.121,-14.475 194.346,-27.892 291.758,-40.254" style="fill:#fff;fill-rule:nonzero;"></path><path d="M3929.391,1290.535c177.583,-3.483 355.042,-3.217 532.617,0.808c3.25,0.083 18.762,13.15 46.517,39.254c72.433,66.546 145.9,132.254 216.604,200.658c-31.738,45.758 -61.883,91.625 -62.4,148.921c-0.696,78.154 -0.679,157.642 -1.221,236.458c-0.825,-0.017 -1.221,0.458 -1.221,1.375c-96.733,-41.183 -194.7,-80.471 -290.1,-124.712l0,-176.429c-86.533,-0.875 -173.05,-1.196 -259.588,-0.967c-31.933,27.408 -63.921,54.754 -95.504,82.563l0,1211.558c30.629,29.567 64.171,56.613 96.729,83.979c86.129,0.221 172.242,-0.1 258.363,-0.971l0,-453.075c0,-1.875 0.804,-2.825 2.446,-2.833c96.113,39.446 192.363,78.504 288.875,116.958l0,205.704c2.579,67.212 5.946,143.858 48.942,199.85c5.875,7.612 8.808,11.412 14.679,19.008c-83.433,81.217 -171.017,158.463 -257.004,236.938c0,1.892 -2.046,2.871 -6.117,2.975c-177.575,4.025 -355.033,4.296 -532.617,0.808c-3.271,-0.071 -18.783,-13.1 -46.521,-39.15c-72.467,-66.417 -145.9,-132.042 -216.625,-200.333c31.95,-40.121 57.113,-87.821 62.404,-139.471l0,-9.808c0.583,-76.125 1.2,-152.254 1.225,-228.383l0,-791.738c-0.021,-78.463 1.112,-158.754 -1.225,-235.388c-0.917,-30.112 -12.658,-65.55 -33.037,-104.096c-10.613,-16.463 -20.4,-30.117 -29.367,-40.979c83.233,-81.271 171.033,-158.233 257.025,-236.529c0,-1.871 2.029,-2.867 6.121,-2.954" style="fill:#fff;fill-rule:nonzero;"></path><path d="M5184.06,1730.589l0,1154.121c30.646,26.296 63.875,49.558 96.408,73.429c70.329,-4.763 140.637,-9.896 210.9,-15.567c31.817,-27.8 63.729,-55.512 94.975,-83.954l0,-1103.467c-32.788,-25.671 -63.717,-53.808 -94.975,-81.3c-70.671,-5.646 -141.383,-10.75 -212.121,-15.487c-32.012,23.679 -64.2,47.2 -95.188,72.225m-85.475,-397.467c191.488,16.229 382.388,36.829 572.925,61.825c4.05,0.542 31.213,25.571 81.463,74.088c59.642,54.479 119.4,108.842 178.496,163.917c-32.708,33.825 -59.988,77.846 -60.679,126.029c-1.496,104.5 -2.396,209.683 -2.429,314.529l0,720.858c3.192,63.967 7.887,143.746 63.108,187.462l0,1.221c-84,79.408 -170.567,156.196 -255.092,235.067c0,1.708 -1.629,2.767 -4.867,3.204c-190.533,25.167 -381.429,45.908 -572.925,62.254c-4.083,0.338 -31.35,-19.871 -81.846,-61.975c-60.871,-47.746 -121.175,-96.092 -179.688,-146.717c27.938,-43.317 56.433,-86.829 61.137,-139.629c0,-8.283 0.396,-12.442 1.221,-12.479c0.583,-79.621 1.2,-159.25 1.221,-238.875l0,-744.1c-0.025,-83.308 1.25,-168.604 -1.221,-249.921c-0.908,-29.754 -12.225,-64.467 -31.788,-102.246c-10.608,-17.075 -20.792,-32.296 -30.571,-45.692c81.896,-73.267 170.133,-140.258 256.646,-207.858c0,-0.892 1.625,-1.229 4.887,-0.963" style="fill:#fff;fill-rule:nonzero;"></path></g><text x="3361.941px" y="4802.572px" style="font-family:&#39;PirataOne-Regular&#39;, &#39;Pirata One&#39;;font-size:500px;fill:#fff;">19 <tspan x="4566.441px " y="4802.572px ">8</tspan>4</text><text x="3172.941px" y="7012.769px" style="font-family:&#39;PirataOne-Regular&#39;, &#39;Pirata One&#39;;font-size:500px;fill:#fff9fa;">Saint - Paul</text><g id="hockey-club-de-l-ouest"><path d="M2357.299,6161.768l0,-88c0,-12.329 -1.333,-21.271 -3.996,-26.792c-2.662,-5.521 -8.162,-8.6 -16.483,-9.217l0,-15.5c40.95,-14.167 61.429,-21.292 102.383,-35.629c3.196,6.625 4.796,9.938 7.992,16.554c-7.329,-0.508 -14.571,3.367 -20.975,11.533c-6.025,7.679 -8.992,20.367 -8.992,37.362l0,114c9.987,0.708 14.983,1.058 24.971,1.758l0,12c-9.988,4.3 -14.983,6.45 -24.971,10.746l0,106c0,20.338 6.821,32.321 20.475,35.938l0,11.004c-20.175,9.992 -30.267,14.971 -50.442,24.921c-7.329,-3.529 -14.158,-8.946 -20.475,-16.233c-6.321,-7.292 -9.488,-13.946 -9.488,-19.946l0,-146c-17.979,-1.317 -26.967,-1.983 -44.946,-3.333l0,103.004c0,12.338 1.333,21.275 3.996,26.796c2.667,5.533 8.154,8.613 16.479,9.229l0,15.5c-40.946,14.162 -61.417,21.2 -102.354,35.192c-3.196,-6.646 -4.792,-9.975 -7.988,-16.625c7.312,0.575 14.554,-3.233 20.967,-11.363c6.021,-7.629 8.988,-20.3 8.988,-37.3l0,-260c0,-20.329 -6.825,-32.354 -20.471,-36.096l0,-10.996c20.171,-9.821 30.258,-14.746 50.429,-24.608c7.317,3.562 14.15,9 20.471,16.304c6.321,7.304 9.483,13.967 9.483,19.962l0,160c9.987,-4.65 14.983,-6.975 24.971,-11.637c7.992,0.592 11.983,0.883 19.975,1.471" style="fill:#fff;fill-rule:nonzero;"></path><path d="M2552.593,6333.793c6.325,0.413 12.817,-1.829 19.488,-6.733l0,-147.508c0,-24.662 -8.496,-37.537 -25.479,-38.654c-6.671,-0.433 -13.162,1.642 -19.487,6.212l0,148.008c0,24.671 8.492,37.562 25.479,38.675m-85.421,-32.725l0,-166c0,-2.329 18.983,-9.254 56.946,-20.9c37.958,-11.646 59.779,-17.354 65.446,-16.992c5.658,0.358 14.246,7.742 25.733,22.125c11.492,14.392 17.237,27.079 17.237,38.079l0,181c0,2.671 -18.242,9.975 -54.713,21.796c-36.471,11.825 -58.787,17.404 -66.942,16.858c-8.167,-0.546 -17.487,-8.342 -27.975,-23.387c-10.492,-15.046 -15.733,-32.579 -15.733,-52.579" style="fill:#fff;fill-rule:nonzero;"></path><path d="M2751.468,6155.473c-3.333,-0.192 -6.333,1.304 -8.996,4.483l0,137.996c0,25.675 10.996,42.146 32.983,49.379c11.325,3.312 24.821,5.387 40.487,6.246l0,14.5c-54.654,15.35 -83.8,22.779 -87.463,22.567c-9.996,-0.579 -20.162,-8.262 -30.483,-23.037c-10.325,-14.775 -15.492,-31.675 -15.492,-50.675l0,-168.004c0,-2.329 19.067,-9.413 57.221,-21.379c38.138,-11.967 60.05,-17.863 65.721,-17.55c2,0.108 4.333,5.083 6.996,14.887c2.667,9.812 5.75,21.646 9.246,35.508c3.5,13.858 7.167,24.133 11,30.842c3.825,6.696 11.071,10.342 21.738,10.912l0,10.004c-7.329,2.942 -19.742,8.196 -37.238,15.742c-17.492,7.546 -26.908,11.267 -28.238,11.192c-5,-0.275 -11.329,-14.217 -18.992,-41.817c-7.662,-27.592 -13.829,-41.533 -18.492,-41.796" style="fill:#fff;fill-rule:nonzero;"></path><path d="M2944.404,6247.754c6.667,0.329 18.662,-3.242 35.996,-10.75c3.6,-1.629 5.4,-2.442 9,-4.071l0,-22.496c0,-28.329 -9.671,-42.958 -28.996,-43.896c-6.4,0.688 -9.6,1.029 -16,1.713l0,79.5Zm0,80.5c0,20.337 6.829,32.179 20.496,35.504l0,11c-20.196,10.417 -30.296,15.617 -50.488,26c-7.338,-3.375 -14.171,-8.646 -20.5,-15.796c-6.325,-7.154 -9.496,-13.742 -9.496,-19.746l0,-247.496c0,-9 -1.5,-15.496 -4.5,-19.488c-2.996,-3.983 -8.167,-6.171 -15.496,-6.558l0,-14c39.133,-18.229 78.029,-37.575 115.979,-58.167c3.2,6.55 4.8,9.825 8,16.375c-3.338,1.517 -8,4.546 -14,9.087c-5.996,4.546 -10.996,9.217 -14.996,14.021c-10,12.183 -15,26.263 -15,42.263l0,46c30.996,-18.471 49.325,-27.613 54.996,-27.35c9.329,0.442 19.667,7.012 31,19.7c11.325,12.683 17,26.521 17,41.521l0,54.5c0,3.675 -17.338,11.408 -52,23.096c12.821,36.646 29,75.746 61.5,98.837c6.329,3.279 13.325,5.425 21,6.429l0,14.5c-31.004,18.638 -50.504,27.729 -58.5,27.354c-10.671,-0.492 -24.25,-17.375 -40.75,-50.671c-16.496,-33.292 -27.917,-60.933 -34.246,-82.917l0,56Z" style="fill:#fff;fill-rule:nonzero;"></path><path d="M3197.914,6184.228c-4.338,-6.675 -9.838,-10.142 -16.504,-10.408c-6.671,-0.267 -14.004,1.946 -22.004,6.621l0,115.5c30.004,-7.113 45.008,-24.542 45.008,-52.213l0,-35.5c0,-9.329 -2.171,-17.333 -6.5,-24m24.004,-54.829c1.662,0.062 5.838,2.812 12.504,8.225c6.662,5.417 13.338,12.838 20.004,22.246c6.667,9.408 10,18.454 10,27.117l0,84c0,6 -8.837,13.017 -26.504,21.021c-17.679,8.008 -34.758,14.425 -51.262,19.275c-16.504,4.846 -25.425,7.229 -26.754,7.175c0,25.675 11.167,41.958 33.504,48.842c11.004,3.104 24.171,4.942 39.508,5.521l0,14.5c-54.683,16.271 -83.85,24.196 -87.517,24.046c-9.996,-0.412 -20.171,-7.929 -30.5,-22.529c-10.329,-14.6 -15.504,-31.417 -15.504,-50.413l0,-168c0,-2.329 19.004,-9.738 57.008,-22.358c38,-12.617 59.838,-18.883 65.512,-18.667" style="fill:#fff;fill-rule:nonzero;"></path><path d="M3477.503,6171.334l0,198.504c0,12.671 -5.675,30.592 -17.008,53.767c-11.338,23.175 -23.346,43.496 -36.021,60.946c-12.671,17.45 -21.342,26.104 -26.008,25.954c-8.342,-0.254 -19.508,-3.104 -33.513,-8.558c-14.008,-5.454 -26.008,-10.854 -36.012,-16.192c-5.804,-3.196 -8.704,-4.792 -14.504,-7.996l0,-15c6.8,0.233 10.2,0.35 17.004,0.579c13.004,0.442 27.846,-6.496 44.517,-20.788c16.671,-14.296 30.513,-33.621 41.517,-57.954c-37.688,16.525 -59.358,24.629 -65.025,24.442c-10.342,-0.342 -19.592,-7.233 -27.762,-20.675c-8.167,-13.446 -12.25,-28.337 -12.25,-44.671l0,-137.5c0,-18.329 -8.179,-29.446 -24.508,-33.358l0,-11c21.804,-11.425 32.708,-17.15 54.517,-28.621c7.329,3.238 14.179,8.383 20.508,15.417c6.329,7.033 9.504,13.562 9.504,19.558l0,135.504c0,23.333 3.671,39.038 11.004,47.096c7.329,8.062 18.671,12.337 34.012,12.804l0,-154c0,-20.329 -6.838,-32.033 -20.508,-35.129l0,-11c20.208,-10.771 30.312,-16.167 50.521,-26.979c7.333,3.208 14.179,8.329 20.508,15.329c6.333,7.013 9.508,13.525 9.508,19.521" style="fill:#fff;fill-rule:nonzero;"></path><path d="M3691.615,6091.37c-3.333,-0.067 -6.338,1.55 -9.004,4.825l0,206.5c0,14 0.833,25.267 2.5,33.796c1.671,8.529 5.329,17.025 11.008,25.463c11.008,16.208 36.188,24.692 75.55,25.321l0,14.5c-1.675,-0.025 -14.013,4.371 -37.025,13.133c-23.012,8.762 -37.025,13.075 -42.029,12.983c-16.679,-0.321 -32.517,-10.225 -47.525,-29.708c-15.004,-19.479 -22.517,-39.896 -22.517,-61.238l0,-249.5c0,-2.329 19.092,-10.137 57.287,-23.554c38.183,-13.413 60.117,-20.146 65.787,-20.046c2.004,0.033 4.338,4.912 7.008,14.621c2.671,9.708 5.754,21.425 9.254,35.154c3.504,13.729 7.171,23.863 11.008,30.425c3.829,6.558 11.088,9.925 21.767,10.087l0,10c-7.342,3.225 -19.762,8.954 -37.275,17.158c-17.517,8.212 -26.942,12.288 -28.271,12.271c-5,-0.092 -11.338,-13.787 -19.013,-41.1c-7.671,-27.296 -13.842,-41.004 -18.512,-41.092" style="fill:#fff;fill-rule:nonzero;"></path><path d="M3884.746,6080.318l0,276.5c0,20.338 6.833,31.921 20.517,34.725l0,11.004c-20.217,11.188 -30.325,16.767 -50.538,27.913c-7.342,-3.092 -14.183,-8.104 -20.512,-15.017c-6.333,-6.912 -9.508,-13.379 -9.508,-19.383l0,-276.496c0,-20.329 -6.842,-31.921 -20.517,-34.792l0,-11c20.217,-11.104 30.321,-16.667 50.537,-27.812c7.333,3.092 14.183,8.096 20.513,15c6.333,6.9 9.508,13.362 9.508,19.358" style="fill:#fff;fill-rule:nonzero;"></path><path d="M4002.574,6375.13c5.167,5.537 10.921,8.325 17.267,8.363c6.333,0.037 13.004,-2.429 20.012,-7.396l0,-155.496c0,-20.329 -6.838,-31.858 -20.512,-34.617l0,-10.996c20.212,-11.279 30.321,-16.933 50.537,-28.25c7.333,3.025 14.183,7.971 20.517,14.817c6.333,6.85 9.504,13.283 9.504,19.279l0,169.504c0,10.996 2.337,20.508 7.008,28.517c4.667,8.004 10.504,12.021 17.512,12.033l0,11c-2.342,0.333 -20.521,10.483 -54.542,30.346c-7.679,-3.358 -14.6,-8.308 -20.767,-14.837c-6.179,-6.529 -9.258,-12.796 -9.258,-18.796c-25.017,13.271 -37.529,19.892 -62.546,33.1c-1,-0.671 -2.508,-1.608 -4.504,-2.788c-1.996,-1.179 -5.429,-3.708 -10.258,-7.579c-4.829,-3.871 -9.092,-7.992 -12.758,-12.363c-10.008,-11.083 -15.013,-23.633 -15.013,-37.633l0,-151.5c0,-18.329 -8.175,-29.238 -24.517,-32.742l0,-11.004c21.817,-11.971 32.725,-17.967 54.542,-29.992c7.333,3.062 14.183,8.033 20.513,14.908c6.333,6.875 9.508,13.321 9.508,19.317l0,173.504c0,8.671 2.579,15.767 7.754,21.3" style="fill:#fff;fill-rule:nonzero;"></path><path d="M4209.982,6342.391c0,29.333 7.667,43.992 23.012,43.946c8.008,-0.021 15.338,-2.708 22.021,-8.067l0,-125c0,-32.667 -6.004,-51.137 -18.021,-55.442c-5.675,-1.983 -14.683,-2.958 -27.012,-2.938l0,147.5Zm50.283,69.108c-36.854,13.967 -59.463,20.908 -67.8,20.912c-8.342,0.008 -17.508,-7.562 -27.521,-22.737c-10.008,-15.163 -15.012,-31.917 -15.012,-50.25l0,-208.5c0,-9 -1.5,-15.417 -4.504,-19.254c-3,-3.833 -8.175,-5.758 -15.508,-5.771l0,-14c39.054,-20.733 78.05,-41.529 116.087,-64.1c3.2,6.387 4.804,9.587 8,15.971c-3.333,1.683 -8,4.95 -14.004,9.8c-6,4.85 -11.012,9.779 -15.008,14.787c-10.012,12.696 -15.012,27.033 -15.012,43.029l0,42.504c34.354,-17.725 54.363,-26.658 60.042,-26.683c8.671,-0.033 18.442,6.758 29.279,20.363c10.829,13.604 16.254,28.083 16.254,43.412l0,174.5c0,3.338 -18.438,12.046 -55.292,26.017" style="fill:#fff;fill-rule:nonzero;"></path><path d="M4545.712,6383.533c6.337,-0.096 12.842,-2.863 19.521,-8.304l0,-174c0,-2 -1.425,-6.229 -4.258,-12.688c-2.837,-6.454 -4.921,-9.667 -6.258,-9.646c-9.671,0.15 -19.508,3.296 -29.517,9.442c-2,1.229 -3.004,1.846 -5,3.071l0,155.5c0,24.675 8.508,36.883 25.512,36.625m8.508,-339.133c9.008,-0.142 23.183,21.475 42.529,64.8c19.342,43.329 29.021,73.317 29.021,89.979l0,152.496c0,7.675 2.083,15.138 6.254,22.392c4.171,7.25 10.083,11.304 17.762,12.158l0,10.996c-2.337,0.383 -20.512,10.917 -54.537,31.508c-7.679,-3.2 -14.592,-8.004 -20.767,-14.4c-6.171,-6.4 -9.25,-12.429 -9.25,-18.1c-35.704,22.575 -56.542,33.842 -62.542,33.921c-2.342,0.033 -6.763,-2.483 -13.271,-7.575c-6.496,-5.079 -13.004,-12.492 -19.508,-22.25c-6.5,-9.75 -9.758,-19.796 -9.758,-30.129l0,-178.504c0,-3.329 28.183,-15.113 84.567,-35.642c-12.012,-26.146 -21.688,-44.504 -29.025,-55.075c-7.338,-10.562 -14.517,-15.8 -21.517,-15.708c-6.6,0.087 -9.904,0.129 -16.508,0.217l0,-15.008c37.025,-17.125 62.546,-25.858 76.55,-26.075" style="fill:#fff;fill-rule:nonzero;"></path><path d="M4773.857,6195.744c-4.342,-6.392 -9.846,-9.512 -16.512,-9.35c-6.667,0.158 -14.004,2.833 -22.012,8.017l0,115.496c30.017,-9.017 45.033,-27.404 45.033,-55.071l0,-35.504c0,-9.325 -2.179,-17.192 -6.508,-23.587m24.012,-56.35c1.667,-0.042 5.838,2.438 12.508,7.429c6.663,4.992 13.342,11.992 20.008,20.971c6.671,8.983 10,17.817 10,26.479l0,84.004c0,5.996 -8.833,13.575 -26.512,22.708c-17.675,9.129 -34.762,16.633 -51.271,22.533c-16.512,5.896 -25.438,8.846 -26.771,8.875c0,25.675 11.171,41.25 33.521,46.708c11.012,2.408 24.175,3.404 39.521,3.012l0,14.5c-54.696,19.75 -83.883,29.529 -87.546,29.608c-10.008,0.225 -20.183,-6.638 -30.521,-20.583c-10.333,-13.946 -15.508,-30.429 -15.508,-49.425l0,-168.004c0,-2.325 19.017,-10.95 57.029,-25.983c38.021,-15.033 59.862,-22.688 65.542,-22.833" style="fill:#fff;fill-rule:nonzero;"></path><path d="M5042.957,6066.439l0,276.5c0,20.337 6.833,31.596 20.508,33.767l0,11c-20.204,12.133 -30.308,18.188 -50.512,30.275c-7.342,-2.746 -14.179,-7.442 -20.508,-14.058c-6.329,-6.617 -9.504,-12.929 -9.504,-18.933l0,-276.496c0,-20.329 -6.842,-31.604 -20.508,-33.833l0,-11.004c20.204,-12.054 30.312,-18.087 50.521,-30.175c7.329,2.75 14.175,7.438 20.508,14.042c6.321,6.604 9.496,12.921 9.496,18.917" style="fill:#fff;fill-rule:nonzero;"></path><path d="M5094.967,6058.545l0,-15.504c0,-0.663 5.25,-3.192 15.75,-7.592c10.512,-4.404 16.671,-6.646 18.512,-6.712c1.821,-0.075 4.254,2.008 7.25,6.217c3,4.213 4.492,8.658 4.492,13.325l0,20c0,7.338 -3.079,18.879 -9.246,34.613c-6.167,15.733 -14.254,26.637 -24.254,32.679c-6.804,-6.137 -10.204,-9.212 -17.004,-15.354c4.329,-1.829 7.579,-6.708 9.75,-14.617c2.167,-7.904 3.246,-15.038 3.246,-21.375c0,-0.996 -1.417,-3.863 -4.246,-8.588c-2.833,-4.725 -4.25,-10.421 -4.25,-17.092" style="fill:#fff;fill-rule:nonzero;"></path><path d="M5266.484,6362.024c6.333,-0.279 12.833,-3.238 19.508,-8.875l0,-247.5c0,-24.662 -8.504,-36.613 -25.504,-35.863c-6.675,0.296 -13.171,3.083 -19.5,8.354l0,248.004c0,24.671 8.504,36.633 25.496,35.879m-85.504,-23.35l0,-266.004c0,-2.329 19.008,-11.337 57.004,-27.146c38,-15.812 59.833,-23.912 65.504,-24.175c5.663,-0.258 14.25,6.183 25.75,19.304c11.496,13.129 17.25,25.183 17.25,36.188l0,281c0,2.675 -18.254,11.979 -54.75,27.8c-36.5,15.829 -58.842,23.854 -67.008,24.204c-8.167,0.35 -17.496,-6.429 -27.992,-20.321c-10.504,-13.887 -15.758,-30.85 -15.758,-50.85" style="fill:#fff;fill-rule:nonzero;"></path><path d="M5464.218,6341.699c5.154,5.225 10.908,7.683 17.25,7.346c6.317,-0.337 12.992,-3.196 19.988,-8.575l0,-155.496c0,-20.329 -6.833,-31.458 -20.492,-33.408l0,-10.996c20.192,-12.475 30.292,-18.721 50.488,-31.238c7.321,2.596 14.162,7.137 20.492,13.613c6.317,6.471 9.492,12.721 9.492,18.717l0,169.504c0,11 2.333,20.371 6.996,28.104c4.663,7.729 10.492,11.404 17.496,11.004l0,10.996c-2.346,0.475 -20.496,11.696 -54.475,33.567c-7.675,-2.904 -14.588,-7.458 -20.75,-13.617c-6.163,-6.162 -9.246,-12.246 -9.246,-18.25c-24.996,14.75 -37.492,22.108 -62.488,36.796c-1,-0.617 -2.496,-1.458 -4.5,-2.525c-1.992,-1.062 -5.417,-3.392 -10.242,-6.975c-4.829,-3.583 -9.083,-7.454 -12.746,-11.608c-10.004,-10.492 -15,-22.75 -15,-36.75l0,-151.5c0,-18.329 -8.171,-28.754 -24.5,-31.292l0,-11.004c21.8,-13.262 32.696,-19.9 54.492,-33.212c7.329,2.629 14.167,7.196 20.496,13.696c6.333,6.508 9.504,12.762 9.504,18.758l0,173.504c0,8.671 2.579,15.613 7.746,20.842" style="fill:#fff;fill-rule:nonzero;"></path><path d="M5709.848,6155.103c-4.325,-6.229 -9.825,-9.138 -16.488,-8.729c-6.671,0.413 -13.983,3.363 -21.979,8.85l0,115.5c29.975,-10.154 44.967,-29.104 44.967,-56.775l0,-35.5c0,-9.329 -2.175,-17.117 -6.5,-23.346m23.988,-57.258c1.658,-0.108 5.833,2.217 12.492,6.958c6.65,4.729 13.321,11.483 19.979,20.212c6.658,8.733 9.992,17.442 9.992,26.104l0,84c0,6 -8.829,13.913 -26.471,23.712c-17.667,9.8 -34.725,17.95 -51.217,24.471c-16.488,6.521 -25.408,9.808 -26.733,9.892c0,25.675 11.154,40.825 33.475,45.442c10.996,1.988 24.15,2.492 39.471,1.512l0,14.504c-54.629,21.817 -83.783,32.696 -87.442,32.921c-9.996,0.604 -20.154,-5.875 -30.483,-19.433c-10.333,-13.554 -15.488,-29.842 -15.488,-48.842l0,-168.004c0,-2.329 18.988,-11.663 56.967,-28.137c37.975,-16.471 59.792,-24.954 65.458,-25.312" style="fill:#fff;fill-rule:nonzero;"></path><path d="M5846.729,6265.934c-8.325,0.567 -15.488,-5.283 -21.479,-17.55c-5.996,-12.258 -8.992,-27.562 -8.992,-45.9l0,-53.996c0,-6.329 17.492,-18.404 52.446,-36.308c34.962,-17.908 55.112,-27.104 60.442,-27.488c2.992,-0.212 5.658,1.346 7.992,4.683c2.325,3.333 4.15,6.037 5.487,8.108c1.333,2.071 3.413,5.587 6.242,10.55c2.829,4.967 5.25,9.038 7.242,12.221c4.325,7.692 9.817,11.296 16.483,10.808l0,9.996c-5.329,2.729 -12.321,6.733 -20.975,12.025c-21.304,13.213 -32.792,19.846 -34.462,19.963c-4.988,0.354 -10.408,-7.433 -16.229,-23.354c-5.825,-15.921 -11.075,-23.725 -15.733,-23.404c-5.992,0.417 -8.992,5.625 -8.992,15.625l0,61.5c0,13.333 3,19.796 8.992,19.379c1.325,-0.092 11.65,-5.138 30.967,-15.175c19.304,-10.025 30.962,-15.208 34.962,-15.5c7.988,-0.575 15.058,5.329 21.221,17.712c6.162,12.387 9.242,28.575 9.242,48.575l0,56.5c0,6.333 -19.058,18.671 -57.183,36.879c-38.133,18.213 -60.021,27.446 -65.679,27.833c-2.333,0.158 -4.583,-1.779 -6.746,-5.788c-2.171,-4.017 -5.163,-10.229 -8.992,-18.637c-3.829,-8.408 -7.829,-15.554 -11.238,-21.246c-4.417,-7.379 -9.829,-11.337 -16.492,-10.892l0,-10c5.329,-2.688 12.492,-6.663 21.488,-11.946c20.983,-13.079 32.296,-19.7 33.963,-19.812c5,-0.346 11.242,9.054 18.733,28.2c7.496,19.15 13.567,28.554 18.233,28.225c3.325,-0.237 6.488,-1.792 9.483,-4.675c2.996,-2.875 4.496,-6.642 4.496,-11.312l0,-62.5c0,-15.004 -4.171,-22.204 -12.483,-21.621c-2.667,0.188 -13.163,4.933 -31.467,14.196c-18.321,9.271 -28.642,13.967 -30.971,14.125" style="fill:#fff;fill-rule:nonzero;"></path><path d="M6085.942,6021.02l0,59.496c10.179,-0.788 15.275,-1.188 25.454,-1.988c-1.992,9.954 -2.992,14.938 -4.988,24.892c-8.188,0.646 -12.279,0.963 -20.467,1.6l0,179c0,20.337 6.817,31.312 20.467,32.9l0,11c-20.171,12.983 -30.258,19.467 -50.429,32.408c-7.321,-2.438 -14.15,-6.837 -20.471,-13.192c-6.325,-6.35 -9.488,-12.533 -9.488,-18.538l0,-218.5c-8.188,0.617 -12.279,0.925 -20.471,1.533c2,-8.55 2.996,-12.825 4.992,-21.375c9.987,-0.746 22.054,-8.396 36.208,-22.975c14.137,-14.575 22.542,-29.642 25.208,-45.179c5.588,-0.433 8.387,-0.65 13.983,-1.083" style="fill:#fff;fill-rule:nonzero;"></path></g><g id="Crosses"><path id="crosse-gauche" d="M3389.72,3704.83l0,157.046l1039.496,1263.85c0,0 280.442,370.179 430.008,201.917c149.571,-168.262 56.088,-269.225 56.088,-269.225c0,0 -100.958,-41.129 -130.871,33.654c-29.917,74.788 -33.654,112.175 -115.912,56.088c-82.267,-56.088 -1278.808,-1443.329 -1278.808,-1443.329Z" style="fill:#b2101d;fill-rule:nonzero;"></path><path id="crosse-droit" d="M4944.165,3704.83l0,157.046l-1039.496,1263.85c0,0 -280.442,370.179 -430.012,201.917c-149.567,-168.262 -56.088,-269.225 -56.088,-269.225c0,0 100.958,-41.129 130.875,33.654c29.912,74.788 33.65,112.175 115.912,56.088c82.262,-56.088 1278.808,-1443.329 1278.808,-1443.329Z" style="fill:#b2101d;fill-rule:nonzero;"></path></g><g id="paille-en-queue"><g id="paille-queue-gauche"><path d="M1539.769,4503.459c-7.029,-3.075 -136.171,-31.917 -138.296,-46.808c-2.129,-14.896 2.125,-27.663 19.146,-25.533c17.021,2.125 119.358,-0.233 119.358,-0.233c0,0 14.683,4.488 38.088,-23.171c23.408,-27.658 155.321,-10.638 155.321,-10.638c0,0 217.021,72.617 293.617,-5.179c76.596,-77.8 148.938,-137.375 210.638,-413.971c61.704,-276.596 404.258,-476.596 689.362,-553.192c285.108,-76.596 204.258,38.296 204.258,38.296l-97.875,126.775c0,0 -34.042,26.417 -42.554,51.95c-8.508,25.533 -27.658,36.171 -51.062,51.062c-23.404,14.896 -2.129,19.15 -31.917,51.067c-29.787,31.912 -46.808,8.512 -65.954,46.808c-19.15,38.296 -17.025,48.938 -55.321,63.829c-38.3,14.896 -21.279,46.808 -44.679,59.575c-23.404,12.767 -34.046,-19.15 -48.938,17.021c-14.896,36.171 -76.596,95.746 -89.363,157.446c-12.767,61.704 -42.554,119.15 -55.321,153.192c-12.762,34.042 -91.487,136.171 -89.358,142.554c2.125,6.383 -61.704,120.475 -63.833,153.854c-2.125,33.379 -19.146,56.783 8.512,109.975c27.663,53.192 6.383,144.679 27.663,168.083c21.275,23.408 153.188,131.917 210.637,204.258c57.446,72.337 340.425,317.021 478.721,376.596c138.3,59.575 519.15,329.787 678.725,372.337c159.575,42.554 210.637,31.917 208.508,46.808c-2.125,14.896 -261.7,-10.633 -355.317,-61.7c-93.617,-51.062 -291.492,-178.725 -295.746,-163.829c-4.254,14.896 114.896,100 121.275,119.146c6.383,19.15 -63.829,12.771 -108.508,-25.529c-44.683,-38.296 -559.575,-442.554 -627.658,-485.104c-68.087,-42.554 -153.192,-80.854 -242.554,-106.388c-89.362,-25.529 -336.171,-85.104 -397.871,-155.317c0,0 -78.725,44.683 -108.512,42.554c-29.787,-2.129 -46.808,36.167 -48.938,42.554c-2.125,6.379 4.254,12.762 -6.383,29.783c-10.638,17.021 -4.254,-8.508 -10.638,17.021c-6.383,25.533 10.638,29.792 -4.254,46.808c-14.896,17.021 17.021,8.512 -12.767,46.812c-29.788,38.296 -36.171,38.296 -38.296,72.337c-2.129,34.042 8.508,63.833 -8.513,80.85c-17.021,17.021 -10.638,-4.254 -21.275,31.917c-10.637,36.171 -17.025,-4.254 -27.662,29.788c-10.638,34.042 -27.658,38.296 -36.171,55.317c-8.508,17.021 -8.508,78.725 -8.508,78.725c-14.896,21.275 10.638,19.15 -21.279,31.917c-31.913,12.767 -117.017,-21.275 -142.55,-185.108c-25.533,-163.829 -4.254,-468.083 23.404,-519.146c27.658,-51.067 31.913,-61.704 59.575,-61.704c27.658,0 108.508,-29.787 110.638,-44.683c2.129,-14.892 -182.979,-114.892 -197.871,-146.804c-14.896,-31.917 -50.396,-78.033 -61.704,-82.979" style="fill:#b2101d;fill-rule:nonzero;"></path></g><g id="paille-queue-droit"><path d="M6794.113,4503.459c7.029,-3.075 136.171,-31.917 138.296,-46.808c2.129,-14.896 -2.125,-27.663 -19.146,-25.533c-17.021,2.125 -119.358,-0.233 -119.358,-0.233c0,0 -14.683,4.488 -38.088,-23.171c-23.408,-27.658 -155.321,-10.638 -155.321,-10.638c0,0 -217.021,72.617 -293.617,-5.179c-76.596,-77.8 -148.938,-137.375 -210.637,-413.971c-61.704,-276.596 -404.258,-476.596 -689.362,-553.192c-285.104,-76.596 -204.254,38.296 -204.254,38.296l97.871,126.775c0,0 34.042,26.417 42.554,51.95c8.508,25.533 27.658,36.171 51.062,51.062c23.404,14.896 2.129,19.15 31.917,51.067c29.787,31.912 46.808,8.512 65.954,46.808c19.15,38.296 17.025,48.938 55.325,63.829c38.296,14.896 21.275,46.808 44.675,59.575c23.404,12.767 34.046,-19.15 48.938,17.021c14.896,36.171 76.596,95.746 89.363,157.446c12.767,61.704 42.554,119.15 55.321,153.192c12.762,34.042 91.488,136.171 89.358,142.554c-2.125,6.383 61.704,120.475 63.833,153.854c2.125,33.379 19.146,56.783 -8.512,109.975c-27.658,53.192 -6.383,144.679 -27.658,168.083c-21.275,23.408 -153.192,131.917 -210.642,204.258c-57.446,72.337 -340.425,317.021 -478.721,376.596c-138.3,59.575 -519.15,329.787 -678.725,372.337c-159.575,42.554 -210.637,31.917 -208.508,46.808c2.129,14.896 261.704,-10.633 355.321,-61.7c93.613,-51.062 291.487,-178.725 295.742,-163.829c4.258,14.896 -114.892,100 -121.275,119.146c-6.383,19.15 63.829,12.771 108.512,-25.529c44.679,-38.296 559.571,-442.554 627.654,-485.104c68.087,-42.554 153.196,-80.854 242.554,-106.388c89.362,-25.529 336.171,-85.104 397.871,-155.317c0,0 78.725,44.683 108.512,42.554c29.788,-2.129 46.812,36.167 48.938,42.554c2.125,6.379 -4.254,12.762 6.383,29.783c10.637,17.021 4.254,-8.508 10.637,17.021c6.383,25.533 -10.637,29.792 4.254,46.808c14.896,17.021 -17.021,8.512 12.767,46.812c29.787,38.296 36.171,38.296 38.3,72.337c2.129,34.042 -8.512,63.833 8.508,80.85c17.025,17.021 10.642,-4.254 21.275,31.917c10.642,36.171 17.025,-4.254 27.663,29.788c10.637,34.042 27.662,38.296 36.171,55.317c8.512,17.021 8.512,78.725 8.512,78.725c14.892,21.275 -10.642,19.15 21.275,31.917c31.912,12.767 117.021,-21.275 142.554,-185.108c25.529,-163.829 4.25,-468.083 -23.404,-519.146c-27.662,-51.067 -31.917,-61.704 -59.575,-61.704c-27.663,0 -108.512,-29.787 -110.642,-44.683c-2.129,-14.892 182.979,-114.892 197.871,-146.804c14.9,-31.917 50.396,-78.033 61.704,-82.979" style="fill:#b2101d;fill-rule:nonzero;"></path></g></g></g></g></svg>