<?xml version="1.0" encoding="UTF-8" standalone="no"?><!DOCTYPE svg PUBLIC "-//W3C//DTD SVG 1.1//EN" "http://www.w3.org/Graphics/SVG/1.1/DTD/svg11.dtd"><svg width="100%" height="100%" viewBox="0 0 14413 13405" version="1.1" xmlns="http://www.w3.org/2000/svg" xmlns:xlink="http://www.w3.org/1999/xlink" xml:space="preserve" xmlns:serif="http://www.serif.com/" style="fill-rule:evenodd;clip-rule:evenodd;stroke-linejoin:round;stroke-miterlimit:2;"><g id="Arrière-plan"><path d="M5931.05,1261.758c21.417,-17.442 22.4,-13.975 50.263,-11.267c21.321,4.879 42.642,9.763 63.967,14.642c14.196,11.058 9.312,14.454 23.712,26.175c16.992,18.058 30.567,33.463 33.171,36.421c5.554,6.062 11.108,12.129 16.663,18.192c21.679,17.121 26.287,6.225 46.988,23.704c16.958,14.317 34.271,30.796 37.171,33.554c23.396,15.896 23.463,13.946 52.283,17.283c8.387,17.558 8.158,15.671 21.742,27.558c10.467,7.312 20.929,14.625 31.396,21.938c2.95,2.25 19.287,14.7 39.387,24.496l49.337,9.329c4.221,0.8 4.054,-0.7 53.158,7.513c88.767,1.783 88.2,-5.975 175.379,15.967c5.537,0.967 11.079,1.933 16.617,2.904c43.5,-0.237 42.65,1.946 86.033,-7.721c44.338,-4.229 41.237,-11.596 87.033,-17.888c20.092,-2.758 14.788,-12.7 34.704,-17.888c21.571,-3.833 43.138,-7.667 64.708,-11.5l4.396,-7.179c17.083,-2.925 34.167,-5.854 51.25,-8.779c52.887,9.271 51.796,8.804 104.796,16.704c22.417,3.937 44.837,7.871 67.254,11.808c46.925,20.863 50.263,12.929 90.279,44.775c11.592,9.225 16.129,-1.463 173.221,65.517c16.754,3.179 33.508,6.358 50.267,9.538c5.758,0.221 5.304,0.537 71.688,7.221c16.546,3.504 33.096,7.004 49.642,10.508c18.4,7.696 21.129,0.196 35.775,13.767c11.804,10.938 64.796,26.854 70.633,28.608c8.563,2.183 52.996,13.512 103.954,37.354c17.304,4.871 16.279,2.504 32.662,7.117c2.921,0.821 2.692,0.8 36.35,10.783c25.258,2.312 23.783,2.092 49.55,-0.062c20.083,-12.537 18.708,-11.621 39.012,-25.617c19.575,-8.062 17.988,-7.883 33.312,-20.3c18.658,-15.312 47.779,-31.971 52.117,-34.454c44.8,-6.996 43.704,-5.596 87.012,6.212l17.354,2.242c16.379,3.737 32.762,7.475 49.142,11.212l3.158,6.229l50.096,7.654c83.421,2.396 92.304,-20.812 156.054,33.996c10.854,6.842 21.708,13.688 32.563,20.529c9.779,8.642 57.054,50.425 159.458,34.467c3.167,-0.492 22.267,-3.471 35.471,-18.646c1.663,-1.908 -3.921,-17.237 17.163,-14.404c35.425,4.754 33.746,2.671 67.796,-1.904c11.779,4.475 23.558,8.954 35.337,13.429c6.562,3.596 5.029,2.304 31.175,7.246c18.458,15.067 17.587,14.442 37.775,28.671c6.783,4.4 7.525,-0.171 14.654,4.45c1.583,1.025 0,0 18.513,14.621c18.462,16.633 17.592,15.904 37.142,31.762c6.029,5.496 12.054,10.988 18.083,16.483c6.246,5.129 7.625,-0.308 84.583,55.258c41.504,22.088 45.671,9.688 86.075,35.454c18.733,15.433 34.275,28.737 37.229,31.267c6.338,4.037 12.675,8.075 19.013,12.112l32.188,6.562c6,2.758 5.887,1.896 31.45,5.108c75.754,61.717 80.55,61.512 177.062,48.304c17.333,-0.604 34.671,-1.204 52.004,-1.808c7.571,3.883 7.821,-1.092 15.7,2.95c1.692,0.867 0,0 19.367,13.733c11.471,1.054 22.942,2.108 34.412,3.162c23.067,-0.392 46.133,-0.783 69.204,-1.171c2.454,1.008 2.375,-0.125 32.904,4.258c4.312,2.396 33.758,18.754 53.021,31.517c6.825,3.296 13.65,6.592 20.471,9.888c16.525,2.575 33.054,5.15 49.579,7.729c1.637,0.729 20.492,9.1 20.492,9.1c16.721,2.742 16.283,0.425 29.225,10.087c19.087,15.479 17.913,14.533 37.667,30.342c32.85,22.675 35.9,14.45 68.508,36.408c4.375,2.412 33.917,18.679 53.192,32.738c6.792,4.767 7.663,0.412 14.154,4.971c1.567,1.1 0,0 18.671,14.971c15.921,12.746 14.575,12.413 33.721,19.717c34.371,28 34.942,24.467 70.613,49.746c4.371,2.425 34.138,18.933 52.846,33.325c12.708,14.408 17.529,6.45 28.971,20.429c3.467,4.233 -1.258,12.033 2.204,16.267c6.525,19.654 6.192,18.346 16.742,34.588c14.929,18.621 22.842,44.117 24.121,48.237c20.729,23.692 16.508,27.308 44.337,40.721c46.483,50.525 40.575,54.287 88.471,103.158c34.933,35.642 34.154,34.088 72.971,66.538c6.142,5.379 12.288,10.762 18.429,16.142c21.142,23.137 16.217,27.875 46.121,38.875c5.933,47.088 20.379,59.454 52.083,69.917c5.592,42.537 7.796,41.942 33.575,67.7c3.538,28.833 3.046,28.496 20.096,52.033c6.204,11.313 12.404,22.629 18.608,33.942c5.85,8.588 14.5,2.912 13.104,19.233c-0.537,6.275 -1.833,21.458 37.237,69.346c16.829,19.083 15.763,17.879 32.579,34.942l2.85,16.158c7.233,10.596 14.467,21.196 21.7,31.792l11.171,4.867c19.55,68.171 35.863,62.138 46.821,133.154l1.9,16.667c5.233,23.354 10.467,46.708 15.7,70.062c2.754,12.208 5.504,24.413 8.258,36.621l10.542,49.333c1.4,17.887 2.8,35.779 4.204,53.667c-8.779,35.967 -9.538,34.179 -15.017,69.821l-0.604,17.912c20.35,85.217 9.712,85.271 9.829,172.938c2.275,23.546 4.546,47.092 6.821,70.633c0.729,17.933 6.296,154.396 10.821,224.087c1.717,9.388 -0.621,7.958 1.154,17.683c0.525,2.875 0.55,2.65 7.425,35.779c3.3,16.692 6.6,33.383 9.9,50.075c0.95,5.046 1.096,4.758 21.921,73.433c0.733,2.108 9.167,26.35 9.167,26.35c53.296,33.183 31.633,46.525 37.3,108.754c14.433,41.867 19.258,37.508 20.779,39.85c12.404,49.721 68.692,52.262 76.083,52.596c33.908,10.188 31.533,12.271 67.446,18.008c18.488,15.879 17.092,14.842 37.575,28.638c45.658,22.983 48.521,17.675 83.904,55.346c6.504,10.929 13.013,21.863 19.517,32.792c14.346,19.246 13.667,18.442 29.267,36.812c3.5,41.962 45.45,97.562 51.075,105.021c3.829,33.621 1.062,32.896 10.775,64.892c0.6,0.871 -0.033,0.171 27.292,24.512c6.846,5.642 62.929,51.854 92.513,61.171c8.763,2.758 23.929,-4.821 14.412,19.829c-2.438,6.312 -11.033,0.521 -44.2,72.137c-8.525,60.108 -6.404,58.629 -2.4,117.821c9.654,22.146 9.275,20.721 22.767,39.608c1.271,5.442 8.883,38.012 25.642,64.954c19.888,24.108 16.046,27.9 44.925,39.85c0.8,4.246 5.729,30.438 21.229,49.646c13.358,13.025 12.412,12.837 30.512,20.475c14.771,14.471 7.033,17.783 19.729,32.042c5.529,19.125 5.4,18.154 16.858,34.967c35.029,45.654 26.729,51.137 69.854,89.371c16.758,15.975 31.092,30.283 33.763,32.95l3.492,14.992c22.638,30.929 21.933,29.592 52.913,51.95c11.246,6.342 22.488,12.679 33.733,19.021c17.675,16.079 32,30.775 34.692,33.537c5.371,6.05 10.738,12.1 16.108,18.154c6.892,10.671 13.783,21.346 20.675,32.017c39.954,30.104 34.383,34.067 65.358,72.725c5.467,11.271 10.933,22.542 16.404,33.812c5.175,11.796 10.35,23.596 15.525,35.392c0.883,5.404 1.767,10.808 2.654,16.213c15.825,36.567 8.679,39.396 33.846,70.687l4.008,15.271c17.542,17.283 16.721,16.537 35.688,33.871c5.863,5.733 11.725,11.471 17.583,17.204c5.321,6.242 10.642,12.479 15.963,18.721c22.642,18.117 22.162,18.104 49.946,22.446c27.275,24.7 25.633,24.788 53.054,48.713c5.742,5.662 11.488,11.325 17.229,16.987c15.996,17.592 29.375,32.517 31.917,35.354c17.633,35.508 10.45,38.342 33.871,69.383c4.763,25.258 1.979,24.688 11.746,46.842c2.633,4.996 3.454,3.4 40.946,57.504c27.008,38.971 6.642,48.821 37.825,85.325c1.304,1.529 1.275,1.354 17.217,18.3c17.237,18.092 16.329,17.158 34.058,35.167c16.642,14.554 14.596,15.6 34.892,20.183c70.087,46.192 71.958,-14.521 157.017,-17.613c31.321,25.567 34.15,17.05 70.296,32.938l16.538,1.967c6.113,4.533 12.229,9.067 18.342,13.6c11.325,6.083 22.654,12.171 33.979,18.254c22.558,19.608 24.7,15.146 46.35,36.238c11.467,31.95 15.825,27.958 41.613,48.825c4.329,2.475 33.475,19.121 51.962,34.433c6.592,16.933 13.188,33.867 19.779,50.8c4.513,6.604 9.029,13.208 13.542,19.808c15.958,12.525 15.021,12.712 34.692,19.087c4.6,3.9 -0.612,5.95 4.329,10.142c1.383,1.171 0,0 18.879,12.542c105.675,21.95 111.471,1.25 149.525,29.504c8.937,6.854 34.171,26.208 124.425,65.883c29.862,35.517 18.508,39.075 23.958,84.983c4.837,58.042 -13.517,64.192 25.221,109.125c14.396,12.546 13.642,11.892 31.15,18.933c3.542,15.275 7.079,30.546 10.621,45.821c18.092,77.8 94.9,77.113 89.846,121.554c-0.317,2.796 1.325,2.158 4.521,34.892c0.288,2.95 1.354,13.858 -14.3,34.163c-5.071,6.271 -10.142,12.542 -15.212,18.808c-3.138,22.942 -6.279,45.887 -9.417,68.829c3.375,27.375 1.267,26.317 4.338,53.096c2.862,35.038 1.746,63.7 1.529,69.233c4.675,20.975 3.246,20.046 15.45,37.917c4.837,21.229 9.671,42.458 14.508,63.688c5.842,18.2 11.683,36.396 17.525,54.596c-1.142,4.267 -8.321,31.029 -28.617,47.196c-9.892,7.879 -9.229,7.137 -19.754,15.733c-6.458,5.275 -8.458,-2.854 -14.729,3.188c-1.329,1.283 0,0 -16.483,16.187c-28.15,-4.767 -27.221,-6.971 -50.929,-5.529c-57.358,-16.671 -75.683,-44.538 -95.838,11.4c4.667,33.417 7.988,127.188 8.383,138.262c10.375,14.6 6.583,15.379 13.621,86.079c-1.554,11.996 -3.108,23.992 -4.658,35.987c-6.879,34.475 -5.075,33.167 -12.192,67.971c-0.404,10.633 -4.083,8.729 -4.496,19.513c-0.092,2.375 0.188,2.192 2.554,29.583c-16.946,7.183 -15.996,7.158 -27.808,21.35c-20.838,21.029 -50.492,42.471 -55.138,45.833c-20.492,2.762 -19.383,0.442 -31.679,6.971c-6.042,5.329 -12.083,10.663 -18.129,15.992c-7.146,10.692 -14.296,21.387 -21.442,32.079c-89.1,107.704 -38.621,155.521 -69.888,190.071c-12.346,13.637 -44.775,4.496 -36.346,85.925c-18.933,5.625 -17.917,4.833 -31.142,20.513c-9.333,20.675 -23.537,66.3 -25.354,72.138c-8.554,88.642 5.554,88.746 -16.229,174.258l-2.05,16.683c-7.517,44.775 3.375,48.592 -26.467,82.983c-4.242,6.712 -8.479,13.425 -12.721,20.137c-0.413,17.258 -0.829,34.513 -1.242,51.771c-0.417,9.875 -2.296,8.704 -10.079,123.121c-1.508,5.55 -12.85,47.312 -27.258,66.529c-3,6.742 -6.004,13.483 -9.004,20.225l-10.017,49.863c-0.896,42.888 -1.7,42.383 0.021,53.517c5.483,23.258 10.971,46.521 16.454,69.779l1.488,51.363c4.796,45.075 1.808,44.2 16.471,87.413c-1.529,11.783 -3.058,23.567 -4.592,35.354l-11.471,67.517c-1.55,8.967 -0.975,8.246 -1.95,51.842c-10.404,44.492 -6.758,43.596 1.4,87.962c4.413,28.079 13.383,24.721 16.475,52.983c5.575,17.263 11.15,34.529 16.725,51.792c31.283,76.65 9.471,238.683 9.004,242.875c-8.438,76.629 3.688,76.579 -8.425,153.458c-15.679,25.013 -9.938,25.967 -0.517,54.329c-3.817,35.229 -4.283,33.613 1.6,69.488c-0.104,8.367 -0.742,60.158 16.838,103.229c-5.471,35.658 -4.933,34.05 -0.517,70.358c2.113,54.05 9.992,51.288 19.854,104.825c12.962,19.308 28.446,49.283 30.721,53.679c6.362,28.275 5.954,28.196 7.671,31.621c-2.446,29.121 -2.258,27.646 -11.129,55.433c-5.163,26.525 -10.329,53.054 -15.492,79.579c-16.358,18.546 -15.054,17.058 -30.646,36.012c-21.413,23.421 -25.033,19.433 -36.646,50.688c-25.642,11.854 -19.908,15.983 -32.029,36.733c-52.667,58.887 -30.637,72.562 -56.958,100.1c-3.167,3.312 -10.067,0.396 -13.233,3.708c-27.333,28.971 -25.154,31.304 -63.575,43.112l-4.354,8.079c-19.142,7.629 -18.312,7.096 -32.908,20.671c-5.821,5.737 -11.642,11.475 -17.458,17.212c-31.121,23.954 -35.942,12.45 -69.833,34.379c-5.625,5.95 -11.25,11.896 -16.875,17.846c-17.537,17.179 -32.675,31.054 -35.567,33.704c-40.05,28.942 -34.688,33.229 -71.217,67.3c-17.413,16.75 -61.867,31.85 -67.592,33.796c-28.742,5.646 -28.617,3.538 -52.146,20.196c-18.879,14.6 -18.125,13.983 -36.342,29.133c-7.812,0.779 -5.758,-5.625 -12.833,-4.921c-1.725,0.171 0,0 -20.233,7.817c-16.9,3.558 -33.8,7.117 -50.7,10.675c-37.375,-6.233 -35.708,-6.138 -72.375,-16.821c-29.975,-9.067 -108.704,-11.867 -118.204,-12.204c-17.567,-4.508 -35.133,-9.017 -52.7,-13.529c-21.442,2.571 -21.171,1.533 -39.004,12.208c-18.858,9.533 -17.167,9.388 -30.663,23.821l-4.975,14.517c-10.642,15.521 -10.25,14.275 -16.171,32.783c-10.933,0.358 -48.85,1.608 -135.087,21.167c-22.525,2.788 -45.046,5.575 -67.571,8.367c-159.083,7.367 -209.9,22.292 -227.488,27.454l-48.821,8.342c-3.108,1.575 -14.7,20.421 -56.104,24.688c-20.1,14.804 -19.058,13.967 -37.258,29.879c-24.208,4.058 -23.796,2.288 -46.192,12.275c-42.696,24.754 -40.296,28.5 -89.613,35.025c-17.1,-0.879 -34.204,-1.754 -51.304,-2.633c-66.608,24.975 -66.588,18.275 -137.879,21.717c-38.05,3.333 -37.983,10.096 -72.888,-2.525c-16.608,-3.183 -33.221,-6.367 -49.829,-9.55c-57.896,0.117 -115.792,0.233 -173.688,0.35c-17.267,-5.446 -34.529,-10.892 -51.796,-16.337c-52.758,-0.554 -51.488,0.471 -104.783,2.779c-16.55,1.887 -33.104,3.771 -49.654,5.658c-16.808,12.204 -20.838,8.112 -23.817,27.875c-4.946,32.779 -3.337,34.125 -30.308,54.087c-19.462,15.9 -18.171,14.633 -35.442,33.633c-6.3,4.958 -12.6,9.912 -18.9,14.871c-18.85,15.733 -18.058,15.021 -35.808,31.013c-59.554,3.208 -58.558,-1.775 -118.113,1.992c-17.337,-5.512 -34.675,-11.025 -52.013,-16.542c-8.604,0.146 -99.2,1.696 -105.912,18.821c-8.113,20.696 -12.325,15 -33.071,20.179c-19.346,15.4 -18.487,14.688 -36.658,30.462c-21.871,0.829 -20.521,3.008 -37.179,15.504c-6.521,5.421 -13.042,10.842 -19.558,16.262c-22.533,12.858 -22.483,12.8 -31,36.129c-31.383,-3.571 -59.4,-2.425 -64.562,-2.212c-18.383,-11.954 -33.633,-25.446 -36.379,-27.875c-22.808,-34.521 -6.225,-41.729 -32.163,-72.562c-3.042,-2.188 -20.246,-14.562 -40.462,-23.575l-66.454,-11.296c-103.425,-0.325 -102.308,0.158 -209.217,0.967c-16.617,2.746 -33.237,5.496 -49.854,8.242c-4.875,3.008 -49.192,30.362 -55.875,44.817c-4.783,10.342 -9.771,-0.738 -138.717,32.375c-3.675,0.542 -51.921,20.396 -102.496,-13.013l-14.704,-4.554c-16.867,-11.442 -16.046,-10.771 -35.738,-16.188l-3.733,-9.246c-13.479,-8.192 -15.046,-2.4 -28.979,-10.871c-1.546,-0.937 0,0 -16.246,-15.687c-6.233,-5.613 -12.462,-11.225 -18.696,-16.842c-17.233,-15.808 -31.829,-46.821 -33.925,-51.271c-5.688,-5.008 -0.146,-7.129 -5.913,-12.208c-1.329,-1.171 0,0 -18.675,-11.887c-51.446,-10.471 -48.513,-17.196 -98.562,-30.842l-4.408,-7.392c-27.054,-8.288 -26.688,-6.288 -48.637,-23.288c-24.604,-28.75 -23.996,-27.038 -49.117,-53.742c-6.117,-7.292 -13.608,-48.167 -75.258,-17.783c-21.863,3.646 -43.721,7.287 -65.583,10.933c-2.229,1.138 -0.146,3.233 -23.983,20.087c-20.217,3.617 -17.312,7.388 -34.046,19.029c-6.942,4.829 -76.329,12.421 -83.013,13.154c-17.438,2.142 -34.871,4.287 -52.308,6.429c-58.525,-32.337 -76.404,-35.917 -83.583,-37.354c-78.408,-50.221 -83.879,-31.042 -176.358,-33.283c-25.612,-9.046 -24.404,-9.592 -52.604,-11.396c-12.017,4.504 -24.037,9.008 -36.054,13.517c-5.025,7.542 -9.363,-0.288 -14.692,7.712c-1.717,2.575 0.379,2.783 5.221,38.304c-5.192,2.438 -112.262,50.242 -37.454,-61.121c-11.025,-46.687 -18.413,-41.575 -55.554,-69.771c-6.583,-3.854 -13.167,-7.704 -19.75,-11.558c-45.654,-4.179 -48.771,6.108 -83.825,-23.738l-14.229,-4.592c-16.925,-16.908 -9.187,-27.483 -53.333,-50.95c-48.304,-31.637 -52.675,-12.962 -108.6,-23.679l-50.15,-9.712c-12.142,-2.046 -24.279,-4.092 -36.421,-6.138c-34.387,-3.388 -33.438,-1.292 -67.029,-10.146c-11.408,-5.925 -22.817,-11.85 -34.225,-17.779c-39.529,-30.987 -82.092,-40.354 -89.846,-42.062c-15.858,-4.438 -31.717,-8.875 -47.575,-13.313c-23.975,-15.462 -23.412,-15.542 -52.475,-16.962c-17.042,-17.354 -15.783,-16.137 -35.229,-32.746c-3.217,-1.942 -38.688,-23.346 -40.504,-23.779c-103.646,-24.717 -114.871,-56.625 -118.075,-59.133c-78.963,-17.475 -78.942,-8.85 -157.012,-27.137c-11.604,1.9 -23.208,3.8 -34.817,5.7c-93.9,10.6 -94.058,6.592 -102.158,7.837l-3.304,7.904c-47.233,4.7 -45.408,6.087 -64.688,4.221l-2.55,-15.913c-5.212,-6.304 -10.425,-12.608 -15.637,-18.913c-39.371,-45.788 -41.962,-60.596 -43.058,-66.862c-10.029,-57.329 -37.058,-44.521 -80.067,-4.004c-9.554,-8.146 -13.642,-3.238 -17.233,-14.696c-4.075,-12.992 -14.108,-18.471 -15.867,-19.429c-6.583,-3.592 -14.154,-5.129 -20.738,-8.725l-50.608,0.321c-34.267,-2.742 -32.783,-4.246 -66.354,-12.504c-34.525,-25.896 -83.625,-37.462 -91.371,-39.288c-48.158,-8.754 -45.675,-12.233 -85.975,-40.617c-2.804,-2.629 -18.138,-17.021 -30.496,-37.121c-6.262,-20.304 -5.954,-18.954 -18.642,-35.129c-13.85,-14.033 -13.2,-13.438 -32.45,-18.733c-0.042,-10.479 -0.083,-20.958 -0.125,-31.438c6.871,-24.721 7.725,-22.892 7.483,-49.538c-24.55,-9.767 -17.975,-19.683 -43.475,-25.512c-18.346,-16.225 -17.442,-15.429 -36.358,-31.333c-6.688,-3.121 -13.371,-6.237 -20.058,-9.358c-78.588,-0.704 -77.225,-1.442 -154.196,5.617c-17.05,-5.808 -34.1,-11.617 -51.15,-17.425c-25.796,-13.083 -25.521,-9.608 -53.629,-12.908l-34,-3.333c-28.838,-5.404 -57.671,-10.808 -86.508,-16.208c-28.096,-4.6 -23.633,-14.45 -51.063,-19.837c-25.933,-17.321 -27.242,-11.758 -54.554,-28.121c-31.521,-22.692 -35.254,-13.529 -67.729,-37.471c-15.888,-12.204 -14.279,-11.95 -33.242,-18.667c-2.917,-2.633 -18.133,-16.363 -35.683,-33.754c-6.267,-5.154 -12.533,-10.312 -18.8,-15.467c-10.017,-7.075 -20.037,-14.146 -30.054,-21.221c-16.671,-18.438 -15.696,-17.425 -33.546,-34.879c-8.858,-37.546 -17.633,-31.721 -36.908,-65.967c-0.721,-11.371 -1.446,-22.746 -2.167,-34.117c-40.188,-60.946 -33.75,-63.067 -37.708,-67.854c-10.188,-7.087 -20.375,-14.175 -30.567,-21.258c-6.675,-10.712 -13.35,-21.425 -20.025,-32.138c-5.429,-6.167 -10.858,-12.333 -16.292,-18.5c-6.121,-5.521 -12.242,-11.046 -18.362,-16.567c-6.404,-5.05 -12.808,-10.1 -19.213,-15.146c-6.092,-5.625 -12.188,-11.25 -18.279,-16.875c-20.292,-23.292 -15.796,-27.413 -44.45,-41.017c-18.742,-19.712 -17.667,-30.25 -17.358,-33.233c1.721,-16.817 -33.621,-50.192 -37.433,-53.792c-11.783,-5.433 -23.567,-10.867 -35.354,-16.3c-6.308,-4.917 -12.617,-9.833 -18.925,-14.75c-4.308,-2.525 -33.504,-19.629 -53.117,-32.775c-8.137,-4.312 -7.875,-3.05 -31.296,-7.325c-27.667,-22.987 -26.046,-22.462 -57.971,-38.167c-31.329,-10.579 -30.608,-9.875 -64.396,-12.171c-6.337,-4.629 -12.675,-9.254 -19.013,-13.883c-17.317,-6.038 -34.629,-12.079 -51.946,-18.117c-43.113,-11.296 -40.488,-14.958 -85.696,-19.958l-3.246,-8.946c-11.958,-4.667 -23.921,-9.333 -35.879,-14c-22.096,-3.454 -44.188,-6.908 -66.283,-10.363l-16.479,-2.046c-17.583,-5.308 -35.163,-10.617 -52.746,-15.925l-16.812,-1.592c-26.012,-10.812 -24,-11.175 -52.067,-17.008c-68.633,-19.817 -68.533,-9.433 -139.342,-15.958c-52.229,-9.975 -50.504,-10.058 -104.875,-15.192l-33.904,-3.371c-23.296,-5.429 -46.588,-10.854 -69.883,-16.283l-17.075,-1.554c-34.688,-10.487 -33.4,-9.263 -69.95,-13.633c-33.037,-17.913 -33.021,-17.9 -33.033,-17.913c-17.846,-17.733 -16.438,-16.688 -37.433,-31.654c-45.146,-34.546 -43,-36.783 -47.662,-38.258c-12.275,-3.887 -6.804,-8.038 -15.075,-17.804c-6.525,-79.088 4.2,-76.921 18.208,-94.45c21.608,-29.096 24.029,-33.592 0.329,-62.404c-11.192,-51.433 -25.375,-48.588 -20.254,-100.317c-3.042,-16.921 -6.083,-33.837 -9.129,-50.758c-0.446,-1.762 -4.504,-17.738 -10.533,-20.167c-23.3,-9.383 -13.267,-18.171 -30.304,-37.575c-9.3,-28.596 -10.554,-28.117 -38.379,-36.367c-25.742,-18.158 -52.433,-40.467 -56.854,-44.158c-2.842,-2.483 -18.079,-15.804 -36.867,-29.4c-33.958,-16.746 -28.625,-21.671 -38.729,-57.046c-27.358,-31.542 -25.688,-30.775 -59.758,-57.267c-6.358,-4.85 -12.717,-9.7 -19.079,-14.55c-11.192,-6.663 -22.388,-13.329 -33.579,-19.992l-16.433,-2.321c-35.729,-31.375 -20.125,-47.171 -62.817,-68.25c-5.267,-21.113 -3.525,-20.742 -9.704,-30.333c-10.604,-6.95 -21.213,-13.9 -31.817,-20.85c-25.008,-28.683 -16.75,-37.233 -53.729,-49.908l-35.112,4.837c-24.708,-5.946 -23.738,-5.717 -47.867,-11.512c-2.917,-2.442 -17.992,-15.058 -36.358,-30.583c-11,-6.942 -22,-13.879 -33,-20.821c-6.137,-4.771 -12.279,-9.542 -18.417,-14.312c-18.912,-15.767 -18.046,-15.112 -38.271,-30.421c-2.371,-1.846 -22.325,-17.383 -31.508,-20.462c-12.2,-4.092 -6.575,-8.117 -14.517,-17.913c-6.142,-42.454 -5.742,-40.817 -12.842,-83.879c-6.475,-39.3 -2.95,-39.004 -21.225,-73.808c-7.992,-18.275 -7.596,-17.45 -21.054,-32.558c-15.679,-18.25 -14.875,-17.346 -30.946,-35.292c-0.221,-5.496 -0.438,-10.996 -0.658,-16.492c-4.004,-16.033 -8.013,-32.067 -12.017,-48.1c-5.304,-17.683 -10.604,-35.363 -15.908,-53.046c-7.917,-33.625 -8.008,-33.379 -8.55,-36.317c-1.763,-9.575 0.587,-8.171 -1.117,-17.417c-4.183,-6.821 -8.367,-13.642 -12.55,-20.462c-7.621,-25.783 -8.029,-23.783 -19.517,-51.646l-5.333,-14.333c-11.062,-6.787 -22.121,-13.575 -33.183,-20.362c-41.125,-27.413 -40.783,-32.625 -32.096,-81.163c25.129,-25.5 26.804,-22.8 41.721,-55.492c14.921,-43.746 24.742,-39.142 30.896,-84.512c4.088,-23.642 8.175,-47.279 12.267,-70.921c20.542,-96.792 17.642,-95.508 20.1,-103.583c11,-26.404 11.058,-24.388 17.138,-51.887c-0.296,-12.117 -0.587,-24.229 -0.883,-36.346c-18.754,-101.896 2.925,-102.612 -10.033,-205.825c-14.458,-43.592 -14.704,-42.121 -24.217,-87.837c3.571,-12.121 7.142,-24.242 10.708,-36.363c16.258,-25.833 18.937,-78.821 19.296,-85.85c-3.938,-6.983 -7.875,-13.967 -11.812,-20.946c-18.275,-18 -17.275,-17.029 -34.875,-34.008c-4.421,-20.533 -3.729,-19.629 -16,-36.333c-33.862,-40.2 -18.342,-50.288 -57.525,-84.033c-3.929,-0.446 -46.612,-5.283 -49.025,-6.175c-3.517,-1.296 0.338,-9.488 -3.179,-10.783c-2.871,-2.438 -18.438,-15.654 -37.787,-28.108c-16.371,-2.596 -32.742,-5.192 -49.108,-7.792c-13.621,-11.1 -12.496,-9.912 -28.742,-17.158c3.579,-16.625 7.163,-33.254 10.742,-49.879c-44.567,-81.508 -32.275,-84.85 -32.442,-86.821c2.7,-17.967 5.4,-35.933 8.104,-53.9c2.279,-22.542 4.562,-45.079 6.842,-67.621c-0.287,-28.233 -1.333,-26.75 -11.292,-53.829c-3.083,-16.4 -6.162,-32.8 -9.246,-49.2c-11.613,-15.046 -10.579,-14.892 -30.117,-20.808c-13.008,-19.217 -12.208,-17.542 -13.008,-19.217c-6.808,-14.262 -2.254,-13.996 -9.438,-29.038c-11.15,-16.196 -9.979,-15.804 -28.217,-23.75l-4.563,-7.525c-15.963,-3.142 -31.925,-6.288 -47.888,-9.429c-12.029,-29.675 -13.362,-27.217 -32.7,-50.683l-6.062,-12.95c-2.254,-2.996 -14.583,-19.371 -26.933,-38.367c-2.958,-10.304 -5.917,-20.604 -8.875,-30.908c-12.142,-16.058 -10.767,-15.554 -28.004,-23.754c-33.438,-34.963 -20.1,-48.95 -68.883,-70.283c-15.692,-23.404 -30.196,-17.925 -24.596,-45.983c3.321,-16.642 3.196,-14.971 7,-32.788c11.787,-18.904 32.604,-32.662 -19.179,-58.112c-16.196,-10.729 -15.167,-10.7 -34.496,-17.308c-8.242,-6.842 -76.963,-63.892 -85.754,-102.858c-14.754,-15.492 -13.788,-15.154 -33.825,-22.087c-15.438,-12.521 -13.833,-12.558 -34.987,-16.529c-6.321,-17.713 -5.5,-17.25 -19.858,-30.504c-14.842,-13.683 -14.067,-12.996 -32.829,-20.242c-6.267,-5.25 -12.529,-10.5 -18.796,-15.75c-2.888,-2.592 -18.013,-16.171 -35.404,-33.113c-13.812,-14.154 -12.913,-13.733 -31.992,-20.867c-6.15,-5.537 -12.304,-11.079 -18.454,-16.617c-17.104,-17.7 -10.421,-30.083 -51.817,-52.446c-17.346,-15.246 -35.075,-43.542 -37.658,-47.658c-14.954,-20.271 -14.071,-19.129 -30.087,-38.617c-24.371,-25.562 -18.104,-27.921 -25.754,-63.567c-14.296,-20.95 -13.558,-19.796 -30.379,-37.642l-14.371,-3.988c-8.204,-17.304 -7.742,-16.429 -20.617,-30.133c-16.204,-19.558 -15.233,-18.387 -31.004,-37.15l-5.071,-13.971c-27.367,-45.2 -16.663,-159.929 -15.367,-173.829c0.433,-17.25 0.871,-34.5 1.304,-51.75c2.15,-96.758 14.529,-94.721 19.038,-190.408c17.883,-77.208 70.508,-84.575 15.042,-141.529c-16.496,-17.679 -32.908,-47.012 -35.346,-51.367c-12.217,-15.942 -8.404,-16.975 -20.167,-32.954c-2.304,-2.967 -14.7,-18.938 -28.129,-37.567c-1.808,-3.988 -15.871,-34.996 -17.154,-51.971c-5.425,-35.675 -5.383,-33.975 -17.858,-68.125c3.521,-34.121 2.333,-32.946 -1.325,-67.633c17.4,-5.875 17.342,-3.871 32.617,-15.463c6.446,-5.325 12.888,-10.654 19.333,-15.979c8.942,-7.733 4.15,-10.438 103.004,-105.971c57.138,-55.221 69.421,-94.179 72.467,-103.838c4.717,-6.217 9.433,-12.437 14.15,-18.654c16.729,-17.192 32.371,-30.371 35.321,-32.854c6.079,-5.867 12.154,-11.733 18.233,-17.6l3.458,-15.525c4.375,-2.008 14.55,-6.688 44.179,-40.858c0.1,-0.075 33.029,-33.008 87.15,1.742c23.396,3.046 46.796,6.092 70.192,9.133c22.896,3.633 45.788,7.271 68.683,10.904c38.533,-1.246 35.183,-9.046 71.592,-17.042c25.775,-18.663 27.942,-12.904 52.792,-31.763c20.829,-2.321 20.775,-0.15 32.404,-6.337c19.688,-14.062 18.963,-13.467 36.917,-29.504c20.496,-2.2 20.479,0.154 31.871,-6.392c20.417,-14.721 19.083,-13.758 38.308,-27.658l15.471,-3.858c19.429,-14.975 47.667,-32.733 51.925,-35.408c19.725,-14.067 48.038,-31.787 52.283,-34.446c6.308,-5.158 12.617,-10.312 18.925,-15.471c18.613,-8.204 17.017,-8.092 31.846,-21.275c19.496,-16.358 18.121,-15.167 37.121,-32.463l4.642,-14.35c32.446,-16.921 22.404,-24.733 47.567,-54.988c26.508,-26.787 25.308,-25.221 50.921,-53.233c30.767,-35.233 41.525,-81.525 43.321,-89.258c1.042,-3.779 9.004,-32.667 14.188,-46.879c6.713,-13.275 13.429,-26.55 20.142,-39.829c3.217,-34.254 6.429,-68.508 9.646,-102.762c7.275,-26.963 5.096,-26.079 12.6,-52.838l6.821,-50.8l6.804,-19.737l9.558,-67.508c-0.042,-23.404 -0.079,-46.808 -0.121,-70.213c-0.508,-6.796 -1.375,-6.542 -9.017,-84.688c-1.446,-4.575 -1.717,-4.038 -22.692,-55.521c-4.367,-21.596 -8.737,-43.188 -13.104,-64.783c-1.233,-2.208 -3.179,-0.071 -20.821,-23.767c-9.933,-55.575 1.142,-60.413 -37.783,-102.592c0.317,-16.158 0.638,-32.317 0.954,-48.475c0.55,-3.608 2.312,-2.404 23.625,-39.033c25.767,-62.046 25.5,-62.142 27.275,-64.583c20.196,-31.475 14.229,-32.842 18.233,-71.067c10.55,-62.167 10.108,-60.442 14.721,-121.962l4.1,-32.783c22.725,-30.742 29.567,-18.75 65.071,-5.604c33.096,12.25 55.442,-41.863 57.721,-47.383c-10.338,-43.292 -18.096,-39.088 -59.421,-52.596c-16.938,-5.537 -10.321,-10.462 -14.762,-35.137c6.021,-44.833 8.021,-43.912 1.779,-87.817c-13.558,-36.4 -16.729,-41.567 14.162,-66.546c27.321,1.083 26.779,1.775 51.863,-7.479c21.992,17.829 47.921,33.608 52.271,36.254l34.479,-1.825c33.533,8.688 93.913,23.413 102.092,25.408l13.854,4.283c5.425,4.333 -0.175,19.296 76.162,39.154c34.183,2.325 68.367,4.65 102.55,6.975c41.896,0.5 42.029,-1.871 73.371,-29.292c22.283,-3.817 22.246,-2.463 30.642,-7.025c11.908,-4.296 23.817,-8.596 35.725,-12.892c46.321,0.004 58.454,-25.054 79.146,16.129c9.367,18.646 -13.05,26.683 -15.429,27.533c-56.629,20.3 -108.317,15.833 -63.442,55.604c16.5,14.625 78.992,1.162 85.696,-0.279c65.654,-14.142 113.562,29.542 102.929,-15.746c-7.35,-31.304 -9.408,-30.075 -31.496,-53.092c2.213,-21.45 -7.508,-29.383 15.5,-33.312c11.079,-1.892 11.15,0.438 139.804,-13.896l49.396,-8.433c6.517,-4.075 13.033,-8.154 19.55,-12.229c18.438,-16.021 33.758,-28.229 36.75,-30.612c18.925,-14.025 92.721,-23.929 117.592,-41.408c18.533,-15.904 17.329,-14.746 35.992,-32.896c5.871,-5.708 11.738,-11.417 17.608,-17.125c5.863,-5.696 11.721,-11.387 17.583,-17.083c13.787,-13.804 13.658,-12.121 22.775,-30.917c2.233,-3.046 21.804,-29.742 24.225,-40.55c3.95,-15.263 7.904,-30.525 11.854,-45.787c16.033,-9.379 14.45,-9.329 26.092,-23.633c6.417,-5.05 12.833,-10.104 19.25,-15.154c6.371,-4.746 12.742,-9.487 19.117,-14.233c11.617,-5.958 23.229,-11.912 34.846,-17.871c3.858,-2.967 6.542,1.775 51.725,-31.996c21.604,-3.825 19.579,-5.021 36.271,-16.483c28.596,-2.975 28.025,-3.85 47.763,-25.1c14.708,-13.554 14.133,-12 23.221,-30c4.004,-4.258 25.108,-26.713 47.392,-55.617c13.317,-14.921 12.808,-13.25 21.246,-32.396l8.642,-4.933c7.888,-13.546 3.004,-14.742 10.783,-28.1c0.913,-1.567 0,0 14.25,-17.65l13.733,-4.758c19.508,-13.388 64.912,-27.404 70.767,-29.208l17.658,-1.812c39.267,-31.421 36.892,-32.538 72.425,-67.821c31.546,-24.758 34.646,-19.896 51.788,-49.362c24.85,-6.375 24.304,-3.921 45.738,-14.263l3.838,-6.529c16.308,-3.075 32.617,-6.15 48.929,-9.225c20.196,-9.904 36.5,-24.142 39.363,-26.642c17.562,-16.463 46.471,-33.008 50.771,-35.467c6.062,-5.746 12.121,-11.492 18.183,-17.237c8.6,-9.696 7.283,-9.037 16.325,-18.412c13.296,-13.788 7.367,-16.812 21.804,-30.875c16.529,-17.129 15.946,-16.375 31.738,-34.871c34.087,-7.033 32.45,-7.683 67.887,-17.579c51.75,-18.638 51.75,-15.517 103.296,-35.033l17.617,0.371c45.617,-4.346 43.721,-5.867 87.262,-18.017c12.113,-3.05 6.387,-10.662 19.317,-13.917c1.292,-0.325 0,0 16.587,-1.596c62.596,-13.388 61.208,-11.808 120.929,-35.333c20.5,-5.25 19.175,-4.871 35.629,-16.025c27.367,-6.862 25.188,-8.187 50.492,-19.588c29.192,2.221 58.383,4.438 87.575,6.658c17.983,1.892 16.117,3.883 33.137,5.675c4.104,0.433 3.812,0.25 51.471,3.388c38.521,18.012 80.017,18.588 87.146,18.683c53.354,12.308 52.937,15.454 105.317,0.358l17.283,-1.763c11.454,-6.371 22.908,-12.742 34.363,-19.112c6.338,-4.896 12.671,-9.787 19.008,-14.683l13.596,-5.858c19.308,-14.438 35.442,-26.342 38.533,-28.621l0.008,-0.05Z" style="fill:#fafafa;"/></g></svg>