<?xml version="1.0" encoding="UTF-8" standalone="no"?>
<svg width="2265" height="1040" viewBox="820 1481 2265 1040" version="1.1" xmlns="http://www.w3.org/2000/svg" xmlns:xlink="http://www.w3.org/1999/xlink" xml:space="preserve" style="fill-rule:evenodd;clip-rule:evenodd;stroke-linejoin:round;stroke-miterlimit:2;">
    <g id="LRH-logo">
        <path id="L" d="M1053.33,1481.346l218.569,0l-183.851,825.95l323.154,0l-46.273,214.05l-543.845,0l232.246,-1040Z" style="fill:#072854;"></path>
        <g id="R">
            <path id="R1" d="M1661.653,1481.346l354.845,0c0,0 303.006,-14.862 301.498,287.128c-17.777,299.956 -243.541,374.057 -243.541,374.057l147.166,378.815l-242.392,0l-121.822,-345.2l-130.789,0l-75.575,345.2l-217.353,0l227.963,-1040Z" style="fill:#072854;"></path>
        </g>
        <g id="H">
            <path id="Haut-H" d="M2318.001,2090.46l144.122,-609.233l210.869,0.119l-92.684,410.527c0,0 -126.809,22.229 -262.307,198.587Z" style="fill:#072854;"></path>
            <path id="Bas-H" d="M3082.799,1913.833l-132.879,607.513l-219.629,0l97.467,-430.886l-288.771,0l-96.943,430.886l-143.892,0l-48.226,-111.569c0,0 40.392,-454.315 423.066,-495.944l229.8,0l110.17,-257.698c0,0 2.525,-17.364 -9.623,-15.278c-20.132,3.457 -78.333,-10.557 -87.456,-60.642c-2.94,-16.138 -2.309,-36.181 12.556,-60.904c43.456,-72.274 160.337,-25.998 154.361,-26.809c0,0 89.552,31.381 95.895,135.022c3.7,60.457 -40.129,150.324 -40.129,150.324l-55.765,135.985Zm-143.034,0c122.1,7.261 131.067,-71.977 131.067,-71.977l-85.562,-31.986l-45.505,103.963Zm139.863,-94.267l10.869,-26.138l-86.436,-34.161l-10.869,26.576l86.436,33.723Zm20.962,-48.653l10.869,-26.138l-86.436,-34.161l-10.869,26.576l86.436,33.723Zm20.561,-50.718c0,0 10.352,-9.072 21.027,-66.587c10.675,-57.515 -33.643,-104.811 -33.643,-104.811c0,0 -41.73,-39.789 -93.165,-38.819c-51.435,0.97 -63.08,32.996 -65.992,43.671c-2.911,10.675 1.665,29.825 12.293,40.869c16.498,17.145 55.317,14.557 55.317,14.557c38.819,10.675 26.203,54.831 26.203,54.831l-7.764,22.644l85.725,33.643Z" style="fill:#072854;"></path>
        </g>
    </g>
</svg>