<?xml version="1.0" encoding="UTF-8" standalone="no"?><!DOCTYPE svg PUBLIC "-//W3C//DTD SVG 1.1//EN" "http://www.w3.org/Graphics/SVG/1.1/DTD/svg11.dtd"><svg width="100%" height="100%" viewBox="0 0 566 251" version="1.1" xmlns="http://www.w3.org/2000/svg" xmlns:xlink="http://www.w3.org/1999/xlink" xml:space="preserve" xmlns:serif="http://www.serif.com/" style="fill-rule:evenodd;clip-rule:evenodd;stroke-linejoin:round;stroke-miterlimit:2;"><g id="LRH-Complet-logo"><path id="L" d="M55.735,0.647l52.457,0l-44.124,198.228l77.557,0l-11.106,51.372l-130.523,0l55.739,-249.6Z" style="fill:#072854;"/><g id="R"><g id="Icone-Badge"><rect x="215.164" y="17.904" width="110.476" height="121.01" style="fill:#b42225;"/><path d="M215.164,73.81l0,-11.486l34.26,4.707c0.648,-1.886 1.576,-3.659 2.739,-5.279l-36.999,-18.916l0,-15.157l40.483,30.269c1.47,-1.272 3.122,-2.37 4.915,-3.26l-26.595,-36.784l14.727,0c4.89,10.993 11.594,25.743 15.912,35.211c2.048,-0.593 4.218,-0.934 6.466,-0.983l-4.638,-34.228l12.253,0l-4.278,34.372c1.902,0.207 3.735,0.624 5.468,1.226l15.277,-35.598l16.28,0l-27.946,37.19c1.808,0.982 3.459,2.181 4.909,3.558l37.241,-28.307l0,16.08l-34.048,16.034c1.004,1.525 1.805,3.175 2.369,4.918l31.68,-4.798l0,11.231l-30.728,0l26.533,37.536l-38.289,-37.536l-16.556,3.534l-47.07,34.721l29.832,-38.255l-34.198,0Z" style="fill:#fec117;"/><path d="M215.164,116.484l43.358,-47.612c0,0 4.573,6.739 10.831,4.332c6.258,-2.407 9.868,-10.831 15.163,-4.092c3.176,4.042 24.536,28.347 41.124,47.153l0,22.646l-110.476,0l0,-22.427Z" style="fill:#FFFFFF;"/><path d="M215.164,122.077l39.017,-32.16l-3.697,9.088l8.934,-10.32c0,0 0.77,11.091 7.856,20.949c7.086,9.858 7.856,10.475 7.856,10.475l-19.717,18.485l-40.249,0.211l0,-16.727l-0,-0Z" style="fill:#082956;"/><path d="M325.641,122.029l0,16.809c-22.636,-0.07 -56.221,-0.138 -57.443,0.072c-1.848,0.318 12.169,-19.264 12.169,-19.264c0,0 -0.462,0.308 -8.626,-12.015c-8.164,-12.323 -4.159,-15.096 -4.159,-15.096c6.007,5.545 17.868,-3.851 17.868,-3.851l40.19,33.345Z" style="fill:#082956;"/></g><path id="R1" serif:id="R" d="M201.733,0.647l85.163,0c0,0 72.721,-3.567 72.36,68.911c-4.266,71.989 -58.45,89.774 -58.45,89.774l35.32,90.916l-58.174,0l-29.237,-82.848l-31.389,0l-18.138,82.848l-52.165,0l54.711,-249.6Zm55.986,32.757l0,0c-0.028,0.021 -0.175,0.129 -0.352,0.261l-0.124,0.054l-0.174,0.134l-0.314,0.174l-0.158,0.016c-0.478,0.138 -0.474,0.109 -0.961,-0.003c-0.065,-0.001 -0.444,-0.006 -0.795,-0.171c-0.435,-0.029 -0.432,-0.027 -0.47,-0.031c-0.155,-0.016 -0.138,-0.035 -0.302,-0.052l-0.799,-0.061c-0.231,0.104 -0.211,0.116 -0.461,0.179c-0.15,0.102 -0.138,0.098 -0.325,0.146c-0.545,0.215 -0.533,0.2 -1.104,0.323c-0.151,0.015 -0.14,0.012 -0.151,0.015c-0.118,0.03 -0.066,0.099 -0.176,0.127c-0.397,0.111 -0.38,0.125 -0.797,0.164l-0.161,-0.003c-0.47,0.178 -0.47,0.15 -0.943,0.32c-0.324,0.09 -0.308,0.096 -0.62,0.161c-0.144,0.169 -0.139,0.162 -0.29,0.318c-0.132,0.128 -0.078,0.156 -0.199,0.282c-0.083,0.086 -0.071,0.08 -0.149,0.168l-0.166,0.157c-0.039,0.022 -0.303,0.174 -0.463,0.324c-0.026,0.023 -0.175,0.153 -0.359,0.243l-0.447,0.084l-0.035,0.06c-0.196,0.094 -0.191,0.072 -0.418,0.13c-0.156,0.269 -0.185,0.225 -0.473,0.45c-0.324,0.322 -0.303,0.332 -0.661,0.619l-0.161,0.017c-0.054,0.017 -0.468,0.144 -0.646,0.267l-0.125,0.043c-0.13,0.161 -0.122,0.147 -0.13,0.161c-0.071,0.122 -0.026,0.133 -0.098,0.257l-0.079,0.045c-0.077,0.175 -0.072,0.16 -0.194,0.296c-0.203,0.264 -0.396,0.469 -0.432,0.508c-0.083,0.164 -0.078,0.15 -0.212,0.274c-0.18,0.194 -0.175,0.202 -0.436,0.229c-0.152,0.105 -0.134,0.115 -0.331,0.15c-0.412,0.308 -0.437,0.265 -0.472,0.292l-0.318,0.163l-0.174,0.13l-0.176,0.138c-0.106,0.131 -0.092,0.13 -0.238,0.216l-0.108,0.418c-0.022,0.099 -0.201,0.342 -0.221,0.37c-0.083,0.172 -0.082,0.156 -0.208,0.282l-0.161,0.156l-0.161,0.156c-0.17,0.166 -0.159,0.155 -0.329,0.3c-0.227,0.16 -0.901,0.25 -1.073,0.378c-0.027,0.022 -0.167,0.133 -0.336,0.279l-0.179,0.112l-0.451,0.077c-1.174,0.131 -1.175,0.11 -1.276,0.127c-0.21,0.036 -0.121,0.108 -0.142,0.304c0.202,0.21 0.22,0.199 0.288,0.485c0.097,0.413 -0.34,0.015 -0.94,0.144c-0.061,0.013 -0.632,0.136 -0.782,0.003c-0.41,-0.363 0.062,-0.322 0.579,-0.508c0.022,-0.008 0.226,-0.081 0.141,-0.251c-0.189,-0.376 -0.3,-0.147 -0.722,-0.147l-0.326,0.118c-0.077,0.042 -0.076,0.029 -0.28,0.064c-0.286,0.25 -0.287,0.272 -0.67,0.267l-0.936,-0.064c-0.697,-0.181 -0.646,-0.318 -0.695,-0.357l-0.126,-0.039c-0.075,-0.018 -0.626,-0.153 -0.932,-0.232l-0.315,0.017c-0.04,-0.024 -0.276,-0.168 -0.477,-0.331c-0.229,0.084 -0.224,0.078 -0.473,0.068c-0.282,0.228 -0.253,0.275 -0.129,0.607c0.057,0.401 0.039,0.392 -0.016,0.802c0.041,0.225 -0.02,0.27 0.135,0.321c0.377,0.123 0.448,0.085 0.542,0.48c-0.021,0.05 -0.225,0.544 -0.527,0.432c-0.324,-0.12 -0.387,-0.229 -0.594,0.051l-0.037,0.299c-0.042,0.562 -0.038,0.546 -0.134,1.113c-0.036,0.349 0.018,0.361 -0.166,0.649c-0.016,0.022 -0.014,0.023 -0.249,0.589c-0.195,0.334 -0.211,0.323 -0.216,0.356l-0.009,0.443c0.355,0.385 0.254,0.429 0.345,0.936c0.161,0.216 0.179,0.197 0.19,0.217l0.12,0.591c0.192,0.47 0.194,0.465 0.207,0.507c0.07,0.713 0.078,0.711 0.082,0.773l0.001,0.641l-0.087,0.616l-0.062,0.18l-0.062,0.464c-0.068,0.244 -0.049,0.236 -0.115,0.482l-0.088,0.938l-0.184,0.364c-0.047,0.13 -0.12,0.393 -0.13,0.428c-0.016,0.071 -0.114,0.493 -0.396,0.815c-0.234,0.256 -0.223,0.241 -0.465,0.486c-0.23,0.276 -0.138,0.348 -0.434,0.502l-0.042,0.131c-0.174,0.158 -0.161,0.147 -0.339,0.296c-0.135,0.12 -0.121,0.119 -0.291,0.194l-0.173,0.141c-0.039,0.024 -0.297,0.186 -0.477,0.314c-0.039,0.024 -0.297,0.186 -0.474,0.323l-0.141,0.035l-0.35,0.252c-0.104,0.06 -0.104,0.038 -0.291,0.058c-0.164,0.146 -0.157,0.141 -0.337,0.269c-0.106,0.056 -0.106,0.037 -0.296,0.058c-0.227,0.172 -0.247,0.12 -0.482,0.29c-0.332,0.073 -0.302,0.144 -0.654,0.156l-0.627,-0.1l-0.641,-0.083c-0.494,-0.317 -0.795,-0.017 -0.796,-0.016c-0.27,0.312 -0.363,0.355 -0.403,0.373l-0.032,0.142l-0.166,0.161c-0.027,0.023 -0.17,0.143 -0.322,0.3l-0.129,0.17c-0.028,0.088 -0.14,0.444 -0.661,0.948c-0.902,0.872 -0.858,0.897 -0.94,0.967l-0.176,0.146c-0.139,0.106 -0.139,0.088 -0.298,0.141c0.033,0.317 0.044,0.306 0.012,0.617c0.114,0.312 0.114,0.296 0.163,0.622c0.012,0.155 0.14,0.438 0.156,0.474c0.123,0.17 0.236,0.316 0.257,0.343c0.107,0.146 0.072,0.155 0.184,0.301c0.022,0.04 0.172,0.307 0.323,0.469c0.506,0.52 0.026,0.587 -0.137,1.292c-0.041,0.873 -0.154,0.855 -0.174,1.738l-0.012,0.472c-0.012,0.127 -0.109,1.174 0.14,1.587l0.046,0.127c0.144,0.171 0.135,0.161 0.283,0.339c0.118,0.125 0.113,0.117 0.188,0.275l0.131,0.036c0.154,0.163 0.147,0.152 0.277,0.344c0.07,0.325 0.013,0.347 0.235,0.58c0.146,0.178 0.138,0.168 0.275,0.353c0.024,0.038 0.186,0.296 0.344,0.435c0.378,0.204 0.317,0.317 0.473,0.479l0.168,0.152c0.174,0.065 0.166,0.061 0.292,0.191c0.159,0.155 0.297,0.279 0.323,0.302l0.172,0.144c0.171,0.066 0.164,0.06 0.3,0.185c0.131,0.121 0.124,0.117 0.181,0.278c0.193,0.036 0.179,0.036 0.319,0.151c0.183,0.063 0.174,0.06 0.309,0.202c0.08,0.356 0.708,0.876 0.783,0.939c0.176,0.06 0.167,0.06 0.315,0.158c0.473,0.232 0.283,0.358 0.175,0.53c-0.035,0.163 -0.034,0.147 -0.064,0.299c-0.051,0.256 0.081,0.206 0.224,0.42c0.445,0.195 0.324,0.322 0.629,0.642c0.157,0.075 0.145,0.07 0.256,0.217l0.081,0.282c0.113,0.173 0.225,0.323 0.246,0.35l0.055,0.118c0.176,0.214 0.189,0.192 0.299,0.463l0.437,0.086l0.042,0.069c0.167,0.072 0.156,0.069 0.258,0.217c0.066,0.137 0.024,0.135 0.086,0.265c0.007,0.015 0,0 0.119,0.175c0.178,0.054 0.169,0.053 0.275,0.19l0.084,0.449c0.091,0.247 0.101,0.234 0.103,0.491l-0.062,0.617l-0.074,0.492c0.001,0.018 -0.111,0.048 0.296,0.792l-0.098,0.455c0.148,0.066 0.138,0.055 0.262,0.157l0.448,0.071c0.177,0.114 0.319,0.234 0.345,0.257c0.032,0.012 -0.003,0.087 0.029,0.098c0.022,0.008 0.412,0.052 0.448,0.056c0.358,0.308 0.216,0.4 0.525,0.767c0.112,0.152 0.106,0.144 0.146,0.332c0.161,0.155 0.151,0.146 0.318,0.31l0.108,0.191c-0.003,0.064 -0.028,0.548 -0.176,0.784l-0.098,0.332c0.087,0.417 0.089,0.404 0.221,0.802c0.118,0.942 -0.08,0.949 0.092,1.879l0.008,0.332c-0.055,0.251 -0.056,0.233 -0.156,0.474c-0.022,0.074 0.004,0.062 -0.183,0.946l-0.112,0.647c-0.056,0.414 -0.146,0.372 -0.282,0.771c-0.136,0.298 -0.151,0.274 -0.381,0.506c-0.079,0.443 -0.082,0.491 0.293,0.741l0.303,0.186l0.049,0.131c0.105,0.254 0.108,0.236 0.178,0.471l0.114,0.187c0.016,0.084 -0.006,0.072 0.01,0.159c0.005,0.027 0.006,0.024 0.078,0.331l0.145,0.484l0.11,0.439l0.006,0.15c0.147,0.164 0.139,0.156 0.282,0.322c0.123,0.138 0.119,0.13 0.192,0.297c0.167,0.318 0.135,0.315 0.194,0.674c0.065,0.393 0.061,0.378 0.117,0.766c0.072,0.09 0.021,0.126 0.132,0.163c0.084,0.028 0.266,0.17 0.288,0.187c0.185,0.14 0.177,0.134 0.349,0.278l0.168,0.131l0.301,0.19c0.168,0.142 0.305,0.257 0.332,0.279l0.437,0.105l0.32,-0.044c0.337,0.116 0.262,0.194 0.49,0.456l0.29,0.19c0.056,0.088 0.041,0.084 0.089,0.277c0.39,0.192 0.247,0.336 0.573,0.623l0.15,0.021l0.306,0.182l0.174,0.133c0.311,0.242 0.296,0.235 0.546,0.523c0.092,0.323 0.043,0.368 0.354,0.521c0.172,0.124 0.311,0.246 0.336,0.268c0.04,0.034 0.284,0.237 0.519,0.403c0.254,0.075 0.265,0.071 0.35,0.332c0.156,0.177 0.064,0.257 0.277,0.343c0.055,0.022 0.092,0.168 0.096,0.184l0.083,0.463c-0.047,0.472 0.083,0.446 0.185,0.916c0.216,0.263 0.194,0.304 -0.003,0.57c-0.128,0.16 -0.226,0.14 -0.166,0.862c0.076,0.089 0.025,0.127 0.138,0.162c0.042,0.013 0.023,0.034 0.435,0.349c0.192,0.137 0.179,0.127 0.342,0.289l0.301,0.163c0.334,0.04 0.322,0.029 0.638,0.125l0.156,0.014l0.638,0.149l0.309,0.031c0.496,0.047 0.48,0.048 0.957,0.139c0.646,0.06 0.645,-0.035 1.272,0.146c0.256,0.053 0.238,0.057 0.475,0.155l0.153,0.015l0.481,0.145l0.15,0.019l0.605,0.095l0.328,0.128l0.03,0.082c0.413,0.046 0.389,0.079 0.782,0.182l0.474,0.165l0.174,0.127c0.308,0.021 0.302,0.015 0.588,0.111c0.291,0.143 0.277,0.138 0.529,0.348c0.214,0.039 0.211,0.028 0.286,0.067c0.179,0.12 0.445,0.276 0.485,0.299l0.173,0.135l0.323,0.149c0.035,0.033 0.357,0.337 0.342,0.491c-0.003,0.027 -0.013,0.123 0.158,0.303c0.262,0.124 0.221,0.162 0.406,0.374l0.167,0.154l0.175,0.138l0.168,0.151l0.149,0.169l0.183,0.293l0.279,0.194c0.036,0.044 -0.023,0.063 0.344,0.619l0.02,0.312c0.176,0.312 0.256,0.259 0.337,0.602c0.163,0.159 0.154,0.15 0.306,0.318l0.274,0.194l0.172,0.141c0.16,0.159 0.299,0.284 0.326,0.308c0.173,0.061 0.158,0.059 0.303,0.17c0.296,0.219 0.33,0.135 0.618,0.342c0.249,0.149 0.261,0.099 0.498,0.257c0.25,0.049 0.21,0.139 0.466,0.181l0.79,0.148l0.31,0.03c0.257,0.03 0.254,-0.002 0.49,0.118l0.467,0.159c0.702,-0.064 0.69,-0.058 1.407,-0.051l0.183,0.085c0.173,0.145 0.164,0.138 0.332,0.286c0.233,0.053 0.173,0.144 0.397,0.233c0.002,0.243 -0.006,0.227 -0.068,0.452l0.001,0.287c0.176,0.048 0.17,0.043 0.296,0.171c0.116,0.148 0.113,0.135 0.17,0.321c0.113,0.183 0.253,0.315 0.278,0.339c0.368,0.259 0.345,0.291 0.785,0.371c0.071,0.017 0.519,0.122 0.834,0.359c0.306,0.075 0.293,0.089 0.606,0.114l0.462,-0.003c0.06,0.033 0.129,0.047 0.189,0.08c0.016,0.009 0.108,0.059 0.145,0.177c0.033,0.105 0.07,0.06 0.157,0.134c0.393,-0.37 0.639,-0.487 0.731,0.036c0.01,0.057 0.034,0.192 0.393,0.61l0.143,0.173l0.023,0.145c0.176,0.017 0.159,0.004 0.59,-0.039l0.03,-0.072c0.074,-0.011 0.075,0.025 0.932,-0.072l0.318,-0.052c0.713,0.167 0.712,0.088 1.433,0.248c0.029,0.023 0.132,0.314 1.078,0.54c0.017,0.004 0.34,0.199 0.37,0.217c0.178,0.152 0.166,0.14 0.322,0.299c0.265,0.013 0.26,0.014 0.479,0.155l0.434,0.121c0.071,0.016 0.459,0.101 0.82,0.384l0.312,0.162c0.307,0.081 0.298,0.062 0.612,0.093l0.332,0.056l0.458,0.089c0.51,0.098 0.55,-0.073 0.991,0.216c0.403,0.214 0.332,0.311 0.487,0.465l0.13,0.042c0.32,0.272 0.348,0.179 0.765,0.217l0.18,0.106c0.339,0.257 0.407,0.211 0.507,0.637c-0.683,1.016 0.294,0.58 0.342,0.558c-0.044,-0.324 -0.063,-0.326 -0.048,-0.35c0.049,-0.073 0.088,-0.001 0.134,-0.07l0.329,-0.123c0.258,0.017 0.246,0.021 0.48,0.104c0.844,0.02 0.894,-0.155 1.61,0.304c0.066,0.013 0.229,0.046 0.763,0.341l0.477,-0.059c0.061,-0.007 0.694,-0.076 0.758,-0.12c0.153,-0.106 0.126,-0.141 0.311,-0.174c0.218,-0.154 0.198,-0.173 0.219,-0.183l0.599,-0.1c0.563,-0.277 0.631,0.096 0.687,0.162c0.229,0.244 0.224,0.228 0.448,0.491c0.2,0.155 0.197,0.137 0.444,0.213l0.04,0.067c0.457,0.125 0.43,0.186 0.9,0.282c0.17,0.108 0.158,0.098 0.17,0.108c0.053,0.046 0.002,0.066 0.054,0.111c0.019,0.041 0.152,0.324 0.31,0.468l0.171,0.154c0.148,0.143 0.134,0.135 0.148,0.143c0.127,0.077 0.142,0.024 0.264,0.099l0.034,0.084c0.18,0.049 0.172,0.043 0.326,0.148l0.134,0.042c0.462,0.305 0.902,0.124 0.936,0.119c1.177,-0.302 1.223,-0.201 1.266,-0.295c0.061,-0.132 0.466,-0.382 0.51,-0.409l0.455,-0.075c0.976,-0.007 0.966,-0.012 1.91,-0.009l0.606,0.103c0.185,0.082 0.342,0.195 0.369,0.215c0.237,0.282 0.085,0.347 0.294,0.662c0.025,0.022 0.164,0.145 0.332,0.254c0.047,-0.002 0.303,-0.012 0.589,0.02c0.078,-0.213 0.077,-0.212 0.283,-0.33l0.179,-0.149c0.152,-0.114 0.14,-0.134 0.339,-0.142c0.166,-0.144 0.158,-0.138 0.335,-0.278c0.189,-0.047 0.228,0.005 0.302,-0.184c0.061,-0.156 0.888,-0.17 0.967,-0.172l0.475,0.151c0.544,-0.034 0.534,0.011 1.078,-0.018c0.162,-0.146 0.155,-0.139 0.327,-0.283l0.173,-0.136c0.158,-0.174 0.146,-0.162 0.324,-0.307c0.246,-0.182 0.232,-0.194 0.277,-0.494c0.027,-0.18 0.064,-0.143 0.217,-0.254l0.453,-0.052c0.486,-0.021 0.475,-0.03 0.956,-0.025l0.473,0.149l1.585,-0.003l0.455,0.087c0.318,0.115 0.318,0.054 0.665,0.023c0.651,-0.031 0.651,0.03 1.259,-0.198l0.468,0.024c0.45,-0.06 0.428,-0.094 0.818,-0.32c0.204,-0.091 0.201,-0.075 0.422,-0.112c0.166,-0.145 0.157,-0.138 0.34,-0.273c0.378,-0.039 0.484,-0.211 0.512,-0.225l0.446,-0.076c0.161,-0.047 0.624,-0.183 2.076,-0.251l0.617,-0.076c0.787,-0.179 1.133,-0.19 1.233,-0.193c0.054,-0.169 0.05,-0.158 0.148,-0.299l0.045,-0.132c0.123,-0.132 0.108,-0.13 0.28,-0.217c0.163,-0.097 0.16,-0.088 0.356,-0.111l0.481,0.124c0.087,0.003 0.805,0.029 1.079,0.111c0.335,0.097 0.319,0.097 0.661,0.154l0.463,-0.097c0.185,-0.071 0.169,-0.07 0.185,-0.071c0.065,-0.006 0.046,0.052 0.117,0.045c0.166,-0.138 0.159,-0.133 0.332,-0.266c0.215,-0.152 0.214,-0.133 0.476,-0.184c0.052,-0.018 0.458,-0.156 0.617,-0.308c0.333,-0.311 0.284,-0.35 0.65,-0.614c0.026,-0.024 0.165,-0.151 0.325,-0.308l0.154,-0.163c0.309,-0.2 0.353,-0.095 0.637,-0.314l0.159,-0.157c0.133,-0.124 0.126,-0.119 0.3,-0.189l0.04,-0.074c0.351,-0.108 0.331,-0.129 0.58,-0.394c0.029,-0.03 0.092,-0.004 0.121,-0.034c0.24,-0.251 0.039,-0.376 0.52,-0.914c0.111,-0.189 0.058,-0.227 0.292,-0.335c0.106,-0.285 0.139,-0.249 0.335,-0.463c0.142,-0.173 0.13,-0.159 0.28,-0.329l0.141,-0.726c0.081,-0.254 0.079,-0.24 0.102,-0.506c-0.016,-0.031 -0.012,-0.03 -0.07,-0.289c-0.021,-0.04 -0.162,-0.314 -0.28,-0.49c-0.09,-0.489 -0.162,-0.463 -0.181,-0.957c-0.04,-0.331 -0.045,-0.317 0.005,-0.642c-0.161,-0.393 -0.155,-0.866 -0.154,-0.942c-0.054,-0.327 -0.049,-0.313 -0.015,-0.634c-0.086,-0.259 -0.138,-0.268 0.005,-0.496c0.111,-0.702 0,-0.701 0.077,-1.401c0.004,-0.038 0.203,-1.517 -0.082,-2.217l-0.153,-0.473c-0.028,-0.258 -0.11,-0.227 -0.15,-0.484c-0.074,-0.405 -0.108,-0.397 -0.013,-0.803c0.009,-0.398 0.004,-0.391 0.018,-0.473l0.105,-0.616l0.042,-0.323c-0.134,-0.394 -0.107,-0.386 -0.15,-0.798l-0.014,-0.469l-0.15,-0.637c-0.016,-0.102 -0.008,-0.097 -0,-0.488l0.091,-0.455l0.082,-0.185c0.132,-0.175 0.235,-0.557 0.249,-0.607c0.071,-1.044 0.088,-1.034 0.092,-1.124l0.011,-0.473l0.116,-0.184c0.272,-0.314 0.173,-0.349 0.242,-0.757l0.019,-0.152c0.199,-0.78 0.07,-0.781 0.148,-1.59c0.017,-0.053 0.146,-0.47 0.231,-0.659c0.121,-0.143 0.111,-0.136 0.284,-0.187c-0.077,-0.743 0.219,-0.66 0.332,-0.784c0.285,-0.315 -0.175,-0.752 0.638,-1.735l0.196,-0.293l0.165,-0.146c0.112,-0.06 0.102,-0.038 0.289,-0.064c0.042,-0.031 0.313,-0.226 0.503,-0.418c0.108,-0.13 0.099,-0.129 0.254,-0.195c-0.022,-0.25 -0.024,-0.248 -0.023,-0.27c0.004,-0.098 0.037,-0.081 0.041,-0.178c0.065,-0.318 0.048,-0.306 0.111,-0.62l0.042,-0.329c-0.064,-0.645 -0.03,-0.653 -0.124,-0.786c-0.004,-0.101 -0.034,-0.957 -0.077,-1.262c0.184,-0.51 0.351,-0.256 0.875,-0.104c0.216,-0.013 0.208,0.007 0.465,0.05l0.15,-0.148c0.057,-0.055 0.076,0.019 0.134,-0.029c0.096,-0.078 0.09,-0.072 0.18,-0.144c0.185,-0.148 0.251,-0.392 0.261,-0.431l-0.16,-0.498l-0.132,-0.581c-0.111,-0.163 -0.098,-0.155 -0.141,-0.346c0.002,-0.05 0.012,-0.312 -0.014,-0.632c-0.028,-0.244 -0.009,-0.235 -0.04,-0.485l0.086,-0.628l0.139,-0.172c0.143,-0.185 0.133,-0.285 0.131,-0.312c-0.029,-0.299 -0.044,-0.293 -0.041,-0.318c0.046,-0.406 -0.655,-0.399 -0.82,-1.11l-0.097,-0.418c-0.16,-0.064 -0.153,-0.058 -0.284,-0.173c-0.354,-0.41 -0.186,-0.466 -0.23,-0.996c-0.05,-0.419 0.054,-0.451 -0.219,-0.776c-0.824,-0.362 -1.054,-0.539 -1.136,-0.601c-0.347,-0.258 -0.4,-0.069 -1.365,-0.269c-0.172,-0.114 -0.16,-0.104 -0.172,-0.114c-0.045,-0.038 0.002,-0.057 -0.04,-0.093c-0.18,-0.058 -0.171,-0.06 -0.317,-0.174l-0.124,-0.181l-0.18,-0.464c-0.169,-0.14 -0.435,-0.292 -0.474,-0.314c-0.235,-0.191 -0.275,-0.154 -0.38,-0.446c-0.198,-0.192 -0.217,-0.152 -0.423,-0.331l-0.31,-0.167l-0.168,-0.124l-0.151,-0.018c-0.33,-0.145 -0.356,-0.067 -0.642,-0.301c-0.776,0.028 -0.793,0.582 -1.433,0.161c-0.185,-0.042 -0.167,-0.051 -0.318,-0.184c-0.162,-0.164 -0.154,-0.156 -0.311,-0.321c-0.145,-0.155 -0.145,-0.153 -0.157,-0.167c-0.285,-0.333 -0.099,-0.423 -0.345,-0.779c-0.342,-0.494 -0.35,-0.479 -0.374,-0.525c-0.089,-0.202 -0.064,-0.197 -0.107,-0.427c-0.214,-0.283 -0.148,-0.309 -0.309,-0.633c-0.023,-0.026 -0.145,-0.162 -0.291,-0.323l-0.157,-0.155c-0.25,-0.218 -0.235,-0.219 -0.484,-0.445c-0.254,-0.04 -0.249,-0.04 -0.456,-0.205l-0.146,-0.171l-0.161,-0.157c-0.173,-0.158 -0.166,-0.151 -0.326,-0.309l-0.036,-0.139c-0.23,-0.286 -0.164,-0.312 -0.309,-0.645l-0.024,-0.148l-0.142,-0.323l-0.15,-0.309c-0.283,-0.353 -0.232,-0.389 -0.597,-0.664l-0.189,-0.292l-0.147,-0.166c-0.024,-0.025 -0.155,-0.159 -0.317,-0.306l-0.308,-0.174c-0.283,-0.204 -0.276,-0.192 -0.483,-0.474l-0.032,-0.137c-0.024,-0.024 -0.155,-0.155 -0.308,-0.301c-0.394,-0.349 -0.318,-0.399 -0.638,-0.816c-0.105,-0.153 -0.103,-0.144 -0.154,-0.319c-0.116,-0.13 -0.045,-0.16 -0.18,-0.293c-0.165,-0.07 -0.156,-0.068 -0.278,-0.187c-0.142,-0.175 -0.186,-0.414 -0.194,-0.453c-0.264,-0.109 -0.228,-0.144 -0.41,-0.364c-0.153,-0.246 -0.222,-0.543 -0.234,-0.593c-0.123,-0.172 -0.12,-0.159 -0.208,-0.361c-0.036,-0.54 -0.056,-0.527 0.022,-1.075c0.303,-0.654 0.381,-0.601 0.403,-0.659c0.087,-0.225 -0.052,-0.156 -0.132,-0.181c-0.27,-0.085 -0.782,-0.507 -0.844,-0.558c-0.249,-0.222 -0.244,-0.216 -0.249,-0.224c-0.089,-0.292 -0.063,-0.285 -0.098,-0.592c-0.051,-0.068 -0.434,-0.576 -0.466,-0.959c-0.142,-0.168 -0.136,-0.16 -0.267,-0.336l-0.178,-0.299c-0.323,-0.344 -0.349,-0.295 -0.766,-0.505c-0.187,-0.126 -0.174,-0.116 -0.343,-0.261c-0.328,-0.052 -0.306,-0.071 -0.616,-0.164c-0.067,-0.003 -0.581,-0.026 -0.695,-0.48c-0.014,-0.021 -0.058,0.018 -0.19,-0.364c-0.052,-0.568 0.146,-0.69 -0.341,-0.993l-0.084,-0.24c-0.19,-0.627 -0.192,-0.624 -0.2,-0.67l-0.09,-0.457c-0.063,-0.302 -0.063,-0.3 -0.068,-0.327c-0.016,-0.089 0.005,-0.076 -0.011,-0.162c-0.041,-0.636 -0.092,-1.882 -0.099,-2.046l-0.062,-0.645c-0.001,-0.8 0.096,-0.801 -0.09,-1.578l0.006,-0.163c0.05,-0.325 0.057,-0.309 0.137,-0.637l-0.038,-0.49l-0.096,-0.45l-0.075,-0.334l-0.143,-0.64l-0.017,-0.152c-0.1,-0.648 -0.249,-0.593 -0.427,-1.215l-0.102,-0.044l-0.198,-0.29l-0.026,-0.148c-0.154,-0.156 -0.144,-0.145 -0.297,-0.319c-0.357,-0.437 -0.345,-0.576 -0.34,-0.633c0.013,-0.149 -0.066,-0.097 -0.12,-0.175l-0.17,-0.31c-0.156,-0.215 -0.151,-0.212 -0.183,-0.475c-0.235,-0.235 -0.255,-0.23 -0.306,-0.618c-0.289,-0.096 -0.421,-0.208 -0.475,-0.638c-0.273,-0.1 -0.228,-0.144 -0.421,-0.355l-0.168,-0.147c-0.354,-0.296 -0.347,-0.282 -0.666,-0.607c-0.437,-0.446 -0.383,-0.48 -0.808,-0.942c-0.254,-0.122 -0.216,-0.156 -0.405,-0.372c-0.012,-0.038 -0.084,-0.27 -0.22,-0.44c-0.096,-0.148 -0.093,-0.136 -0.153,-0.316c-0.032,-0.039 0.012,-0.11 -0.02,-0.149c-0.104,-0.128 -0.149,-0.055 -0.264,-0.186c-0.171,-0.131 -0.443,-0.282 -0.482,-0.304c-0.326,-0.231 -0.331,-0.198 -0.645,-0.454c-0.175,-0.067 -0.162,-0.064 -0.308,-0.18c-0.17,-0.137 -0.156,-0.127 -0.17,-0.137c-0.059,-0.042 -0.067,-0.002 -0.129,-0.045c-0.176,-0.128 -0.446,-0.277 -0.486,-0.299c-0.298,-0.2 -0.325,-0.125 -0.625,-0.332c-0.18,-0.144 -0.17,-0.136 -0.344,-0.277c-0.118,-0.088 -0.114,-0.067 -0.267,-0.092l-0.187,-0.083l-0.453,-0.071l-0.187,-0.09c-0.176,-0.116 -0.444,-0.266 -0.484,-0.288c-0.279,-0.04 -0.278,-0.03 -0.3,-0.039l-0.632,0.011l-0.314,-0.029c-0.177,-0.125 -0.161,-0.117 -0.177,-0.125c-0.072,-0.037 -0.074,0.008 -0.143,-0.027l-0.475,0.017c-0.881,0.12 -0.925,0.122 -1.616,-0.441c-0.233,-0.029 -0.232,-0.021 -0.287,-0.047l-0.294,-0.06l-0.174,-0.111c-0.027,-0.023 -0.169,-0.144 -0.34,-0.285c-0.369,-0.235 -0.407,-0.122 -0.786,-0.324c-0.702,-0.507 -0.715,-0.458 -0.772,-0.504l-0.165,-0.15c-0.179,-0.145 -0.17,-0.138 -0.339,-0.29c-0.169,-0.133 -0.155,-0.124 -0.169,-0.133c-0.065,-0.042 -0.072,-0 -0.134,-0.041c-0.184,-0.13 -0.176,-0.124 -0.345,-0.262c-0.239,-0.045 -0.225,-0.033 -0.285,-0.066l-0.323,-0.123c-0.311,0.042 -0.295,0.061 -0.619,0.017c-0.192,-0.026 -0.142,0.114 -0.157,0.132c-0.12,0.138 -0.295,0.166 -0.324,0.17c-0.935,0.146 -1.366,-0.236 -1.456,-0.315l-0.297,-0.187c-0.582,-0.5 -0.663,-0.288 -1.424,-0.31l-0.457,-0.07l-0.029,-0.057l-0.449,-0.102l-0.158,-0.02c-0.395,-0.108 -0.385,-0.12 -0.794,-0.057c-0.04,0.023 -0.305,0.175 -0.476,0.314c-0.14,0.113 -0.125,0.112 -0.304,0.185c-0.185,0.128 -0.173,0.119 -0.356,0.234c-0.235,0.02 -0.222,0.022 -0.452,0c-0.307,-0.091 -0.305,-0.091 -0.332,-0.098c-0.15,-0.042 -0.14,-0.02 -0.298,-0.065c-0.465,-0.218 -0.871,-0.321 -0.949,-0.341c-0.053,-0.016 -0.537,-0.161 -0.645,-0.261c-0.134,-0.124 -0.159,-0.055 -0.327,-0.126l-0.453,-0.096c-0.606,-0.061 -0.602,-0.064 -0.654,-0.066l-0.459,-0.087c-1.434,-0.611 -1.475,-0.514 -1.581,-0.598c-0.365,-0.291 -0.396,-0.218 -0.824,-0.409l-0.614,-0.108c-0.484,-0.072 -0.474,-0.068 -0.957,-0.152l-0.468,0.08l-0.04,0.066l-0.591,0.105c-0.182,0.047 -0.133,0.138 -0.317,0.163c-0.418,0.057 -0.39,0.125 -0.794,0.163c-0.396,0.088 -0.388,0.068 -0.785,0.071l-0.152,-0.026c-0.796,-0.2 -0.791,-0.129 -1.601,-0.146c-0.448,-0.075 -0.447,-0.061 -0.485,-0.069l-0.45,-0.085c-0.183,-0.09 -0.333,-0.203 -0.36,-0.224l-0.287,-0.2c-0.124,-0.108 -0.122,-0.091 -0.198,-0.252c-0.263,-0.03 -0.264,-0.013 -0.477,-0.158c-0.026,-0.025 -0.185,-0.176 -0.339,-0.306c-0.189,-0.16 -0.231,-0.06 -0.429,-0.216l-0.152,-0.166c-0.024,-0.027 -0.148,-0.168 -0.303,-0.332c-0.132,-0.107 -0.087,-0.138 -0.216,-0.239l-0.584,-0.134c-0.254,-0.025 -0.263,-0.056 -0.459,0.103l0.002,0.001Z" style="fill:#072854;"/></g><g id="H"><path id="Haut-H" serif:id="Haut H" d="M359.256,146.834l34.589,-146.216l50.609,0.029l-22.244,98.526c0,0 -30.434,5.335 -62.954,47.661Z" style="fill:#072854;"/><path id="Bas-H" serif:id="Bas H" d="M542.808,104.444l-31.891,145.803l-52.711,0l23.392,-103.413l-69.305,0l-23.266,103.413l-34.534,0l-11.574,-26.777c0,0 9.694,-109.036 101.536,-119.027l55.152,0l26.441,-61.848c0,0 0.606,-4.167 -2.31,-3.667c-4.832,0.83 -18.8,-2.534 -20.989,-14.554c-0.706,-3.873 -0.554,-8.683 3.013,-14.617c10.429,-17.346 38.481,-6.24 37.047,-6.434c0,0 21.492,7.531 23.015,32.405c0.888,14.51 -9.631,36.078 -9.631,36.078l-13.384,32.636l-0,0Zm-34.328,0c29.304,1.743 31.456,-17.274 31.456,-17.274l-20.535,-7.677l-10.921,24.951Zm33.567,-22.624l2.609,-6.273l-20.745,-8.199l-2.609,6.378l20.745,8.094Zm5.031,-11.677l2.609,-6.273l-20.745,-8.199l-2.609,6.378l20.745,8.094Zm4.935,-12.172c0,0 2.484,-2.177 5.046,-15.981c2.562,-13.804 -8.074,-25.155 -8.074,-25.155c0,0 -10.015,-9.549 -22.36,-9.317c-12.344,0.233 -15.139,7.919 -15.838,10.481c-0.699,2.562 0.4,7.158 2.95,9.809c3.96,4.115 13.276,3.494 13.276,3.494c9.317,2.562 6.289,13.159 6.289,13.159l-1.863,5.435l20.574,8.074l-0,0Z" style="fill:#072854;"/></g></g></svg>