<?xml version="1.0" encoding="UTF-8" standalone="no"?><!DOCTYPE svg PUBLIC "-//W3C//DTD SVG 1.1//EN" "http://www.w3.org/Graphics/SVG/1.1/DTD/svg11.dtd"><svg width="100%" height="100%" viewBox="0 0 1080 1080" version="1.1" xmlns="http://www.w3.org/2000/svg" xmlns:xlink="http://www.w3.org/1999/xlink" xml:space="preserve" xmlns:serif="http://www.serif.com/" style="fill-rule:evenodd;clip-rule:evenodd;stroke-linecap:round;stroke-linejoin:round;stroke-miterlimit:1.5;"><g id="Complet"><g id="Logo"><g id="Logo-Ligue-Site"><g id="Réunion"><g><path d="M690.882,504.468c0.801,0.636 0.907,0.655 2.115,0.844c1.322,1.197 1.243,1.202 2.572,2.361l0.835,0.823c0.775,0.853 1.424,1.576 1.547,1.714c0.855,1.721 0.507,1.859 1.642,3.363c0.231,1.224 0.096,1.197 0.569,2.271c0.128,0.242 0.167,0.165 1.985,2.788c1.309,1.889 0.322,2.367 1.834,4.136c0.063,0.074 0.062,0.066 0.835,0.887c0.836,0.877 0.792,0.832 1.651,1.705c0.807,0.706 0.708,0.756 1.691,0.978c3.397,2.239 3.488,-0.704 7.611,-0.854c1.518,1.239 1.655,0.826 3.408,1.597l0.802,0.095l0.889,0.659l1.647,0.885c1.093,0.95 1.197,0.734 2.247,1.757c0.556,1.549 0.767,1.355 2.017,2.367c0.21,0.12 1.623,0.927 2.519,1.669l0.959,2.463l0.656,0.96c0.774,0.607 0.728,0.616 1.682,0.925c0.223,0.189 -0.03,0.288 0.21,0.492c0.067,0.057 0,0 0.915,0.608c5.123,1.064 5.404,0.061 7.248,1.43c0.433,0.332 1.656,1.27 6.031,3.194c1.448,1.722 0.897,1.894 1.161,4.12c0.234,2.814 -0.655,3.112 1.223,5.29c0.698,0.608 0.661,0.576 1.51,0.918l0.515,2.221c0.877,3.771 4.6,3.738 4.355,5.892c-0.015,0.136 0.064,0.105 0.219,1.691c0.014,0.143 0.066,0.672 -0.693,1.656l-0.737,0.912l-0.456,3.336c0.164,1.327 0.061,1.276 0.21,2.574c0.139,1.698 0.085,3.088 0.074,3.356c0.227,1.017 0.157,0.972 0.749,1.838l0.703,3.087l0.85,2.647c-0.055,0.207 -0.403,1.504 -1.387,2.288c-0.48,0.382 -0.447,0.346 -0.958,0.763c-0.313,0.256 -0.41,-0.138 -0.714,0.155l-0.799,0.785c-1.365,-0.231 -1.32,-0.338 -2.469,-0.268c-2.78,-0.808 -3.669,-2.159 -4.646,0.553c0.226,1.62 0.387,6.165 0.406,6.702c0.503,0.708 0.319,0.745 0.66,4.173l-0.226,1.744c-0.333,1.671 -0.246,1.608 -0.591,3.295c-0.02,0.515 -0.198,0.423 -0.218,0.946c-0.004,0.115 0.009,0.106 0.124,1.434c-0.821,0.348 -0.775,0.347 -1.348,1.035c-1.01,1.019 -2.448,2.059 -2.673,2.222c-0.993,0.134 -0.94,0.021 -1.536,0.338l-0.879,0.775l-1.039,1.555c-4.319,5.221 -1.872,7.539 -3.388,9.214c-0.598,0.661 -2.17,0.218 -1.762,4.165c-0.918,0.273 -0.869,0.234 -1.51,0.994c-0.452,1.002 -1.141,3.214 -1.229,3.497c-0.415,4.297 0.269,4.302 -0.787,8.447l-0.099,0.809c-0.364,2.17 0.164,2.355 -1.283,4.023l-0.617,0.976l-0.06,2.51c-0.02,0.479 -0.111,0.422 -0.489,5.968c-0.073,0.269 -0.623,2.293 -1.321,3.225l-0.436,0.98l-0.486,2.417c-0.043,2.079 -0.082,2.055 0.001,2.594l0.798,3.383l0.072,2.49c0.232,2.185 0.088,2.143 0.798,4.237l-0.223,1.714l-0.556,3.273c-0.075,0.435 -0.047,0.4 -0.095,2.513c-0.504,2.157 -0.328,2.113 0.068,4.264c0.214,1.361 0.649,1.198 0.799,2.568l0.811,2.511c1.516,3.716 0.459,11.57 0.436,11.773c-0.409,3.715 0.179,3.712 -0.408,7.439c-0.76,1.213 -0.482,1.259 -0.025,2.634c-0.185,1.708 -0.208,1.629 0.078,3.368c-0.005,0.406 -0.036,2.916 0.816,5.004c-0.265,1.729 -0.239,1.651 -0.025,3.411c0.102,2.62 0.484,2.486 0.962,5.081c0.628,0.936 1.379,2.389 1.489,2.602c0.308,1.371 0.289,1.367 0.372,1.533c-0.119,1.412 -0.109,1.34 -0.539,2.687l-0.751,3.858c-0.793,0.899 -0.73,0.827 -1.486,1.746c-1.038,1.135 -1.213,0.942 -1.776,2.457c-1.243,0.575 -0.965,0.775 -1.553,1.781c-2.553,2.855 -1.485,3.517 -2.761,4.852c-0.154,0.161 -0.488,0.019 -0.641,0.18c-1.325,1.404 -1.219,1.517 -3.082,2.09l-0.211,0.392c-0.928,0.37 -0.888,0.344 -1.595,1.002l-0.846,0.834c-1.509,1.161 -1.742,0.604 -3.385,1.667l-0.818,0.865c-0.85,0.833 -1.584,1.505 -1.724,1.634c-1.941,1.403 -1.681,1.611 -3.452,3.262c-0.844,0.812 -2.999,1.544 -3.277,1.638c-1.393,0.274 -1.387,0.172 -2.528,0.979c-0.915,0.708 -0.879,0.678 -1.762,1.412c-0.379,0.038 -0.279,-0.273 -0.622,-0.239c-0.084,0.008 0,0 -0.981,0.379l-2.458,0.517c-1.812,-0.302 -1.731,-0.298 -3.508,-0.815c-1.453,-0.44 -5.269,-0.575 -5.73,-0.592l-2.555,-0.656c-1.039,0.125 -1.026,0.074 -1.891,0.592c-0.914,0.462 -0.832,0.455 -1.486,1.155l-0.241,0.704c-0.516,0.752 -0.497,0.692 -0.784,1.589c-0.53,0.017 -2.368,0.078 -6.548,1.026l-3.275,0.406c-7.712,0.357 -10.175,1.081 -11.027,1.331l-2.367,0.404c-0.151,0.076 -0.713,0.99 -2.72,1.197c-0.974,0.718 -0.924,0.677 -1.806,1.448c-1.173,0.197 -1.154,0.111 -2.239,0.595c-2.07,1.2 -1.953,1.382 -4.344,1.698l-2.487,-0.128c-3.229,1.211 -3.228,0.886 -6.684,1.053c-1.844,0.162 -1.841,0.489 -3.533,-0.122l-2.415,-0.463l-8.42,0.017l-2.511,-0.792c-2.557,-0.027 -2.496,0.023 -5.079,0.135l-2.407,0.274c-0.815,0.592 -1.01,0.393 -1.155,1.351c-0.24,1.589 -0.162,1.654 -1.469,2.622c-0.943,0.771 -0.881,0.709 -1.718,1.63l-0.916,0.721c-0.914,0.763 -0.875,0.728 -1.736,1.503c-2.887,0.156 -2.839,-0.086 -5.726,0.097l-2.521,-0.802c-0.417,0.007 -4.809,0.082 -5.134,0.912c-0.393,1.003 -0.597,0.727 -1.603,0.978c-0.938,0.747 -0.896,0.712 -1.777,1.477c-1.06,0.04 -0.995,0.146 -1.802,0.752l-0.948,0.788c-1.092,0.623 -1.09,0.62 -1.503,1.751c-1.521,-0.173 -2.879,-0.118 -3.13,-0.107c-0.891,-0.579 -1.63,-1.233 -1.763,-1.351c-1.106,-1.673 -0.302,-2.023 -1.559,-3.517c-0.147,-0.106 -0.981,-0.706 -1.961,-1.143l-3.221,-0.548c-5.014,-0.016 -4.959,0.008 -10.142,0.047l-2.417,0.4c-0.236,0.146 -2.385,1.472 -2.709,2.172c-0.232,0.501 -0.474,-0.036 -6.724,1.569c-0.178,0.026 -2.517,0.989 -4.968,-0.631l-0.713,-0.221c-0.818,-0.555 -0.778,-0.522 -1.732,-0.785l-0.181,-0.448c-0.653,-0.397 -0.729,-0.116 -1.405,-0.527c-0.075,-0.045 0,0 -0.788,-0.76l-0.906,-0.816c-0.835,-0.766 -1.543,-2.27 -1.645,-2.485c-0.276,-0.243 -0.007,-0.346 -0.287,-0.592c-0.064,-0.057 0,0 -0.905,-0.576c-2.494,-0.508 -2.352,-0.834 -4.778,-1.495l-0.214,-0.358c-1.311,-0.402 -1.294,-0.305 -2.358,-1.129c-1.193,-1.394 -1.163,-1.311 -2.381,-2.605c-0.297,-0.353 -0.66,-2.335 -3.648,-0.862l-3.179,0.53c-0.108,0.055 -0.007,0.157 -1.163,0.974c-0.98,0.175 -0.839,0.358 -1.65,0.922c-0.337,0.234 -3.7,0.602 -4.024,0.638l-2.536,0.312c-2.837,-1.568 -3.704,-1.741 -4.052,-1.811c-3.801,-2.434 -4.066,-1.505 -8.549,-1.613c-1.242,-0.439 -1.183,-0.465 -2.55,-0.552l-1.748,0.655c-0.244,0.366 -0.454,-0.014 -0.712,0.374c-0.083,0.125 0.018,0.135 0.253,1.857c-0.252,0.118 -5.442,2.435 -1.816,-2.963c-0.534,-2.263 -0.893,-2.015 -2.693,-3.382l-0.957,-0.56c-2.213,-0.203 -2.364,0.296 -4.063,-1.151l-0.69,-0.223c-0.82,-0.82 -0.445,-1.332 -2.585,-2.47c-2.342,-1.534 -2.553,-0.628 -5.264,-1.148l-2.431,-0.471l-1.766,-0.298c-1.667,-0.164 -1.621,-0.063 -3.249,-0.492l-1.659,-0.862c-1.916,-1.502 -3.979,-1.956 -4.355,-2.039l-2.306,-0.645c-1.162,-0.75 -1.135,-0.753 -2.544,-0.822c-0.826,-0.841 -0.765,-0.782 -1.708,-1.587c-0.156,-0.094 -1.875,-1.132 -1.963,-1.153c-5.024,-1.198 -5.568,-2.745 -5.724,-2.866c-3.828,-0.847 -3.827,-0.429 -7.611,-1.315l-1.688,0.276c-4.552,0.514 -4.559,0.32 -4.952,0.38l-0.16,0.383c-2.29,0.228 -2.201,0.295 -3.136,0.205l-0.124,-0.771l-0.758,-0.917c-1.909,-2.22 -2.034,-2.937 -2.087,-3.241c-0.486,-2.779 -1.796,-2.158 -3.881,-0.194c-0.463,-0.395 -0.661,-0.157 -0.835,-0.712c-0.198,-0.63 -0.684,-0.895 -0.769,-0.942c-0.319,-0.174 -0.686,-0.249 -1.005,-0.423l-2.453,0.016c-1.661,-0.133 -1.589,-0.206 -3.217,-0.606c-1.674,-1.255 -4.054,-1.816 -4.429,-1.904c-2.334,-0.424 -2.214,-0.593 -4.168,-1.969c-0.136,-0.127 -0.879,-0.825 -1.478,-1.799c-0.304,-0.984 -0.289,-0.919 -0.904,-1.703c-0.671,-0.68 -0.64,-0.651 -1.573,-0.908l-0.006,-1.524c0.333,-1.198 0.374,-1.11 0.363,-2.401c-1.19,-0.473 -0.871,-0.954 -2.107,-1.237c-0.889,-0.787 -0.845,-0.748 -1.762,-1.519l-0.972,-0.454c-3.81,-0.034 -3.743,-0.07 -7.475,0.272l-2.479,-0.845c-1.25,-0.634 -1.237,-0.466 -2.6,-0.626l-1.648,-0.162l-4.193,-0.786c-1.362,-0.223 -1.146,-0.7 -2.475,-0.962c-1.257,-0.84 -1.321,-0.57 -2.645,-1.363c-1.528,-1.1 -1.709,-0.656 -3.283,-1.816c-0.77,-0.592 -0.692,-0.579 -1.611,-0.905c-0.141,-0.128 -0.879,-0.793 -1.73,-1.636l-0.911,-0.75l-1.457,-1.029c-0.808,-0.894 -0.761,-0.845 -1.626,-1.691c-0.429,-1.82 -0.855,-1.538 -1.789,-3.198l-0.105,-1.654c-1.948,-2.954 -1.636,-3.057 -1.828,-3.289l-1.482,-1.03l-0.971,-1.558l-0.79,-0.897l-0.89,-0.803l-0.931,-0.734l-0.886,-0.818c-0.984,-1.129 -0.766,-1.329 -2.155,-1.988c-0.909,-0.956 -0.856,-1.466 -0.841,-1.611c0.083,-0.815 -1.63,-2.433 -1.815,-2.608l-1.714,-0.79l-0.917,-0.715c-0.209,-0.122 -1.624,-0.952 -2.575,-1.589c-0.394,-0.209 -0.382,-0.148 -1.517,-0.355c-1.341,-1.114 -1.263,-1.089 -2.81,-1.85c-1.519,-0.513 -1.484,-0.479 -3.122,-0.59l-0.922,-0.673l-2.518,-0.878c-2.09,-0.548 -1.963,-0.725 -4.154,-0.967l-0.157,-0.434l-1.739,-0.679l-3.213,-0.502l-0.799,-0.099l-2.557,-0.772l-0.815,-0.077c-1.261,-0.524 -1.163,-0.542 -2.524,-0.824c-3.327,-0.961 -3.322,-0.457 -6.755,-0.774c-2.532,-0.484 -2.448,-0.488 -5.084,-0.736l-1.643,-0.163l-3.388,-0.789l-0.828,-0.075c-1.681,-0.508 -1.619,-0.449 -3.391,-0.661l-1.601,-0.868c-0.865,-0.86 -0.797,-0.809 -1.815,-1.534c-2.188,-1.675 -2.084,-1.783 -2.31,-1.855c-0.595,-0.188 -0.33,-0.39 -0.731,-0.863c-0.316,-3.834 0.204,-3.729 0.883,-4.578c1.047,-1.41 1.165,-1.628 0.016,-3.025c-0.543,-2.493 -1.23,-2.355 -0.982,-4.863l-0.443,-2.46c-0.022,-0.085 -0.218,-0.86 -0.511,-0.978c-1.129,-0.455 -0.643,-0.881 -1.469,-1.821c-0.451,-1.386 -0.512,-1.363 -1.86,-1.763c-1.248,-0.88 -2.542,-1.962 -2.756,-2.141c-0.138,-0.12 -0.876,-0.766 -1.787,-1.425c-1.646,-0.812 -1.388,-1.05 -1.877,-2.765c-1.326,-1.529 -1.245,-1.492 -2.897,-2.776l-0.925,-0.705l-1.628,-0.969l-0.797,-0.113c-1.732,-1.521 -0.976,-2.287 -3.045,-3.308c-0.255,-1.023 -0.171,-1.005 -0.47,-1.47l-1.542,-1.011c-1.212,-1.39 -0.812,-1.805 -2.605,-2.419l-1.702,0.234l-2.32,-0.558c-0.141,-0.118 -0.872,-0.73 -1.762,-1.483l-1.6,-1.009l-0.893,-0.694c-0.917,-0.764 -0.875,-0.733 -1.855,-1.475c-0.115,-0.089 -1.082,-0.843 -1.527,-0.992c-0.591,-0.198 -0.319,-0.393 -0.704,-0.868c-0.298,-2.058 -0.278,-1.979 -0.623,-4.066c-0.314,-1.905 -0.143,-1.891 -1.029,-3.578c-0.387,-0.886 -0.368,-0.846 -1.021,-1.578c-0.76,-0.885 -0.721,-0.841 -1.5,-1.711l-0.032,-0.799l-0.583,-2.332l-0.771,-2.571c-0.384,-1.63 -0.388,-1.618 -0.414,-1.76c-0.085,-0.464 0.028,-0.396 -0.054,-0.844l-0.608,-0.992c-0.369,-1.25 -0.389,-1.153 -0.946,-2.504l-0.259,-0.695l-1.609,-0.987c-1.994,-1.329 -1.977,-1.581 -1.556,-3.934c1.218,-1.236 1.299,-1.105 2.022,-2.69c0.723,-2.121 1.199,-1.897 1.498,-4.097l0.595,-3.438c0.996,-4.692 0.855,-4.63 0.974,-5.021c0.533,-1.28 0.536,-1.182 0.831,-2.515l-0.043,-1.762c-0.909,-4.939 0.142,-4.974 -0.486,-9.977c-0.701,-2.113 -0.713,-2.042 -1.174,-4.258l0.519,-1.763c0.788,-1.252 0.918,-3.821 0.935,-4.162l-0.573,-1.015c-0.886,-0.873 -0.837,-0.825 -1.691,-1.649c-0.214,-0.995 -0.181,-0.952 -0.776,-1.761c-1.641,-1.949 -0.889,-2.438 -2.789,-4.073c-0.19,-0.022 -2.26,-0.256 -2.376,-0.299c-0.17,-0.063 0.016,-0.46 -0.154,-0.523c-0.139,-0.118 -0.894,-0.759 -1.832,-1.363l-2.381,-0.378c-0.66,-0.538 -0.606,-0.48 -1.393,-0.832l0.521,-2.418c-2.16,-3.951 -1.565,-4.113 -1.573,-4.209l0.393,-2.613l0.332,-3.278c-0.014,-1.369 -0.065,-1.297 -0.547,-2.609l-0.448,-2.385c-0.563,-0.729 -0.513,-0.722 -1.46,-1.009c-0.631,-0.932 -0.592,-0.85 -0.631,-0.932c-0.33,-0.691 -0.109,-0.678 -0.458,-1.408c-0.54,-0.785 -0.484,-0.766 -1.368,-1.151l-0.221,-0.365l-2.321,-0.457c-0.583,-1.438 -0.648,-1.319 -1.585,-2.457l-0.294,-0.628c-0.109,-0.145 -0.707,-0.939 -1.306,-1.86l-0.43,-1.498c-0.589,-0.778 -0.522,-0.754 -1.357,-1.151c-1.621,-1.695 -0.974,-2.373 -3.339,-3.407c-0.761,-1.135 -1.464,-0.869 -1.192,-2.229c0.161,-0.807 0.155,-0.726 0.339,-1.589c0.571,-0.916 1.58,-1.583 -0.93,-2.817c-0.785,-0.52 -0.735,-0.519 -1.672,-0.839c-0.4,-0.332 -3.731,-3.097 -4.157,-4.986c-0.715,-0.751 -0.668,-0.735 -1.64,-1.071c-0.748,-0.607 -0.671,-0.609 -1.696,-0.801c-0.306,-0.859 -0.267,-0.836 -0.963,-1.479c-0.719,-0.663 -0.682,-0.63 -1.591,-0.981l-0.911,-0.763c-0.14,-0.126 -0.873,-0.784 -1.716,-1.605c-0.67,-0.686 -0.626,-0.666 -1.551,-1.012l-0.895,-0.806c-0.829,-0.858 -0.505,-1.458 -2.512,-2.542c-0.841,-0.739 -1.7,-2.111 -1.825,-2.31c-0.725,-0.983 -0.682,-0.927 -1.458,-1.872c-1.181,-1.239 -0.878,-1.353 -1.248,-3.081c-0.467,-0.684 -0.603,-0.882 -0.891,-1.202l286.647,34.459l214.556,-15.374Z" style="fill:#174a97;"/><path d="M189.679,485.384c-0.018,-0.019 0.018,0.02 0,0l-1.278,-0.816c-0.398,-0.839 -0.375,-0.796 -0.999,-1.461c-0.785,-0.948 -0.738,-0.891 -1.503,-1.801l-0.246,-0.677c-1.327,-2.191 -0.808,-7.753 -0.745,-8.426l0.063,-2.509c0.104,-4.69 0.704,-4.592 0.923,-9.23c0.867,-3.743 3.418,-4.1 0.729,-6.861c-0.8,-0.857 -1.595,-2.279 -1.713,-2.49c-0.592,-0.773 -0.407,-0.823 -0.978,-1.597c-0.112,-0.144 -0.713,-0.918 -1.364,-1.821c-0.088,-0.193 -0.769,-1.696 -0.832,-2.519c-0.263,-1.729 -0.261,-1.647 -0.866,-3.302c0.171,-1.654 0.113,-1.597 -0.064,-3.279c0.843,-0.285 0.841,-0.188 1.581,-0.75l0.937,-0.775c0.433,-0.375 0.201,-0.506 4.993,-5.137c2.77,-2.677 3.365,-4.565 3.513,-5.034l0.686,-0.904c0.811,-0.833 1.569,-1.472 1.712,-1.593l0.884,-0.853l0.168,-0.753c0.212,-0.097 0.705,-0.324 2.142,-1.981c0.005,-0.004 1.601,-1.6 4.225,0.084l3.403,0.443l3.329,0.529c1.868,-0.06 1.705,-0.439 3.47,-0.826c1.249,-0.905 1.354,-0.626 2.559,-1.54c1.01,-0.113 1.007,-0.007 1.571,-0.307c0.954,-0.682 0.919,-0.653 1.79,-1.43c0.994,-0.107 0.993,0.007 1.545,-0.31l1.857,-1.341l0.75,-0.187c0.942,-0.726 2.311,-1.587 2.517,-1.716c0.956,-0.682 2.329,-1.541 2.534,-1.67l0.917,-0.75c0.902,-0.398 0.825,-0.392 1.544,-1.031c0.945,-0.793 0.878,-0.735 1.799,-1.574l0.225,-0.696c1.573,-0.82 1.086,-1.199 2.306,-2.666c1.285,-1.298 1.227,-1.223 2.468,-2.58c1.491,-1.708 2.013,-3.952 2.1,-4.327c0.051,-0.183 0.436,-1.584 0.688,-2.272l0.976,-1.931l0.468,-4.981c0.353,-1.307 0.247,-1.264 0.611,-2.561l0.331,-2.463l0.33,-0.957l0.463,-3.272l-0.006,-3.404c-0.025,-0.329 -0.067,-0.317 -0.437,-4.105c-0.07,-0.222 -0.083,-0.196 -1.1,-2.691l-0.635,-3.14c-0.06,-0.107 -0.154,-0.003 -1.009,-1.152c-0.482,-2.694 0.055,-2.929 -1.832,-4.973l0.046,-2.35c0.027,-0.175 0.112,-0.117 1.145,-1.892c1.249,-3.008 1.236,-3.012 1.322,-3.131c0.979,-1.526 0.69,-1.592 0.884,-3.445c0.511,-3.014 0.49,-2.93 0.714,-5.912l0.199,-1.589c1.102,-1.49 1.433,-0.909 3.154,-0.272c1.604,0.594 2.688,-2.029 2.798,-2.297c-0.501,-2.099 -0.877,-1.895 -2.88,-2.55c-0.821,-0.268 -0.5,-0.507 -0.716,-1.703c0.292,-2.173 0.389,-2.129 0.086,-4.257c-0.657,-1.764 -0.811,-2.015 0.687,-3.226c1.324,0.052 1.298,0.086 2.514,-0.363c1.066,0.864 2.323,1.629 2.534,1.757l1.671,-0.088c1.626,0.421 4.552,1.135 4.949,1.232l0.672,0.208c0.263,0.21 -0.008,0.935 3.692,1.898l4.971,0.338c2.031,0.024 2.037,-0.091 3.557,-1.42c1.08,-0.185 1.078,-0.119 1.485,-0.341l1.732,-0.625c2.245,0 2.834,-1.214 3.837,0.782c0.454,0.904 -0.633,1.293 -0.748,1.335c-2.745,0.984 -5.251,0.768 -3.075,2.695c0.8,0.709 3.829,0.056 4.154,-0.014c3.183,-0.686 5.505,1.432 4.989,-0.763c-0.356,-1.517 -0.456,-1.458 -1.527,-2.574c0.107,-1.04 -0.364,-1.424 0.751,-1.615c0.537,-0.092 0.54,0.021 6.777,-0.674l2.394,-0.409l0.948,-0.593c0.894,-0.777 1.636,-1.368 1.781,-1.484c0.917,-0.68 4.495,-1.16 5.7,-2.007c0.898,-0.771 0.84,-0.715 1.745,-1.595l0.854,-0.83l0.852,-0.828c0.668,-0.669 0.662,-0.588 1.104,-1.499c0.108,-0.148 1.057,-1.442 1.174,-1.966l0.575,-2.22c0.777,-0.455 0.7,-0.452 1.265,-1.146l0.933,-0.735l0.927,-0.69l1.689,-0.866c0.187,-0.144 0.317,0.086 2.507,-1.551c1.047,-0.185 0.949,-0.243 1.758,-0.799c1.386,-0.144 1.359,-0.187 2.315,-1.217c0.713,-0.657 0.685,-0.582 1.126,-1.454c0.194,-0.206 1.217,-1.295 2.297,-2.696c0.646,-0.723 0.621,-0.642 1.03,-1.57l0.419,-0.239c0.382,-0.657 0.146,-0.715 0.523,-1.362c0.044,-0.076 0,0 0.691,-0.856l0.666,-0.231c0.946,-0.649 3.147,-1.328 3.43,-1.416l0.856,-0.088c1.903,-1.523 1.788,-1.577 3.511,-3.288c1.529,-1.2 1.679,-0.964 2.51,-2.393c1.205,-0.309 1.178,-0.19 2.217,-0.691l0.186,-0.316l2.372,-0.447c0.979,-0.48 1.769,-1.17 1.908,-1.291c0.851,-0.798 2.253,-1.6 2.461,-1.719l0.881,-0.836c0.417,-0.47 0.353,-0.438 0.791,-0.893c0.645,-0.668 0.357,-0.815 1.057,-1.497c0.801,-0.83 0.773,-0.794 1.538,-1.69c1.652,-0.341 1.573,-0.372 3.291,-0.852c2.509,-0.903 2.509,-0.752 5.007,-1.698l0.854,0.018c2.211,-0.211 2.119,-0.284 4.23,-0.873c0.587,-0.148 0.31,-0.517 0.936,-0.675c0.063,-0.016 0,0 0.804,-0.077c3.034,-0.649 2.967,-0.572 5.862,-1.713c0.994,-0.254 0.93,-0.236 1.727,-0.777c1.327,-0.333 1.221,-0.397 2.448,-0.95l4.245,0.323c0.872,0.092 0.781,0.188 1.606,0.275c0.199,0.021 0.185,0.012 2.495,0.164c1.867,0.873 3.879,0.901 4.224,0.906c2.586,0.597 2.566,0.749 5.105,0.017l0.838,-0.085l1.666,-0.926l0.921,-0.712l0.659,-0.284c0.936,-0.7 1.718,-1.278 1.868,-1.389c1.038,-0.845 1.085,-0.679 2.436,-0.547l3.101,0.71c0.688,0.536 0.451,0.701 1.149,1.269c0.824,0.875 1.482,1.622 1.608,1.766l0.808,0.882c1.051,0.83 1.274,0.302 2.278,1.149c0.822,0.694 1.661,1.493 1.802,1.627c1.134,0.771 1.137,0.676 2.534,0.838c0.407,0.851 0.395,0.76 1.054,1.336l1.522,1.063c0.143,0.109 0.935,0.713 1.909,1.187l2.392,0.452c0.205,0.039 0.197,-0.034 2.577,0.364c4.303,0.086 4.275,-0.29 8.501,0.774l0.806,0.141c2.109,-0.011 2.067,0.094 4.17,-0.374c2.149,-0.205 1.999,-0.562 4.219,-0.867c0.974,-0.134 0.717,-0.616 1.682,-0.867l3.137,-0.557l0.213,-0.348l2.484,-0.426c2.564,0.449 2.511,0.427 5.08,0.81l3.26,0.572c2.275,1.011 2.436,0.627 4.376,2.17c0.562,0.447 0.782,-0.071 8.397,3.176l2.437,0.462c0.279,0.011 0.257,0.026 3.475,0.35l2.406,0.509c0.892,0.373 1.024,0.01 1.734,0.667c0.572,0.53 3.141,1.302 3.424,1.387c0.415,0.106 2.569,0.655 5.039,1.811c0.839,0.236 0.789,0.121 1.583,0.345l1.762,0.523c1.224,0.112 1.153,0.101 2.402,-0.003c0.974,-0.608 0.907,-0.563 1.891,-1.242c0.949,-0.391 0.872,-0.382 1.615,-0.984c0.904,-0.742 2.316,-1.55 2.526,-1.67c2.172,-0.339 2.119,-0.271 4.218,0.301l0.841,0.109l2.382,0.544l0.153,0.302l2.428,0.371c4.044,0.116 4.474,-1.009 7.565,1.648l1.578,0.995c0.474,0.419 2.766,2.444 7.73,1.671c0.154,-0.024 1.079,-0.168 1.719,-0.904c0.081,-0.092 -0.19,-0.836 0.832,-0.698c1.717,0.23 1.636,0.129 3.286,-0.092l1.713,0.651c0.318,0.174 0.244,0.112 1.511,0.351c0.895,0.73 0.853,0.7 1.831,1.39c0.329,0.213 0.365,-0.008 0.71,0.216c0.077,0.05 0,0 0.897,0.709c0.895,0.806 0.853,0.771 1.8,1.54l0.877,0.799c0.303,0.249 0.37,-0.015 4.1,2.679c2.012,1.071 2.214,0.47 4.172,1.719c0.908,0.748 1.661,1.393 1.805,1.516l0.922,0.587l1.56,0.318c0.291,0.134 0.285,0.092 1.525,0.248c3.672,2.992 3.905,2.982 8.583,2.342l2.521,-0.088c0.367,0.188 0.379,-0.053 0.761,0.143c0.082,0.042 0,0 0.939,0.666l1.668,0.153l3.355,-0.057c0.119,0.049 0.115,-0.006 1.595,0.206c0.209,0.116 1.636,0.909 2.57,1.528l0.992,0.479l2.403,0.375l0.993,0.441c0.811,0.133 0.789,0.021 1.417,0.489c0.925,0.75 0.868,0.704 1.826,1.471c1.592,1.099 1.74,0.7 3.321,1.765c0.212,0.117 1.644,0.905 2.578,1.587c0.329,0.231 0.371,0.02 0.686,0.241c0.076,0.053 0,0 0.905,0.726c0.772,0.618 0.707,0.602 1.635,0.956c1.666,1.357 1.694,1.186 3.423,2.411c0.212,0.118 1.655,0.918 2.562,1.615c0.616,0.698 0.85,0.313 1.404,0.99c0.168,0.205 -0.061,0.583 0.107,0.789c0.316,0.953 0.3,0.889 0.812,1.677c0.724,0.903 1.107,2.139 1.169,2.338c1.005,1.148 0.8,1.324 2.149,1.974c2.253,2.449 1.967,2.632 4.289,5.001c1.693,1.728 1.656,1.652 3.537,3.225l0.893,0.782c1.025,1.122 0.786,1.351 2.236,1.884c0.288,2.283 0.988,2.882 2.525,3.389c0.271,2.062 0.378,2.033 1.628,3.282c0.172,1.398 0.148,1.381 0.974,2.522l0.902,1.645c0.284,0.416 0.703,0.141 0.635,0.932c-0.026,0.304 -0.089,1.04 1.805,3.362c0.816,0.925 0.764,0.867 1.579,1.694l0.138,0.783l1.052,1.541l0.542,0.236c0.948,3.305 1.738,3.012 2.27,6.455l0.092,0.808l0.761,3.396l0.4,1.775l0.511,2.391l0.204,2.602c-0.426,1.743 -0.462,1.657 -0.728,3.385l-0.029,0.868c0.986,4.131 0.471,4.134 0.476,8.383l0.331,3.424c0.035,0.869 0.305,7.484 0.525,10.863c0.083,0.455 -0.03,0.386 0.056,0.857c0.025,0.139 0.027,0.128 0.36,1.734l0.48,2.427c0.046,0.245 0.053,0.231 1.063,3.56l0.444,1.277c2.584,1.609 1.533,2.255 1.808,5.272c0.7,2.029 0.934,1.818 1.007,1.932c0.601,2.41 3.33,2.533 3.688,2.55c1.644,0.494 1.529,0.595 3.269,0.873c0.896,0.77 0.829,0.719 1.821,1.388c2.213,1.114 2.352,0.857 4.067,2.683l0.946,1.59c0.695,0.933 0.663,0.894 1.419,1.784c0.17,2.034 2.203,4.729 2.476,5.091c0.186,1.63 0.051,1.595 0.522,3.146c0.029,0.042 -0.002,0.008 1.323,1.188c0.332,0.273 3.05,2.514 4.485,2.965c0.425,0.134 1.16,-0.234 0.699,0.961c-0.118,0.306 -0.535,0.025 -2.143,3.497c-0.413,2.914 -0.31,2.842 -0.116,5.711c0.468,1.074 0.45,1.004 1.104,1.92c0.062,0.264 0.431,1.843 1.243,3.149c0.964,1.169 0.778,1.352 2.178,1.932c0.039,0.206 0.278,1.475 1.029,2.407c0.648,0.631 0.602,0.622 1.479,0.993c0.716,0.701 0.341,0.862 0.956,1.553c0.268,0.927 0.262,0.88 0.817,1.695c1.698,2.213 1.296,2.479 3.386,4.332c0.812,0.774 1.507,1.468 1.637,1.597l0.169,0.727c1.097,1.499 1.063,1.434 2.565,2.518l1.635,0.922c0.857,0.779 1.551,1.492 1.682,1.626l0.781,0.88l1.002,1.552c1.937,1.459 1.667,1.651 3.168,3.525l0.795,1.639l0.753,1.716l0.129,0.786c0.767,1.773 0.421,1.91 1.641,3.427l0.194,0.74c0.85,0.838 0.811,0.802 1.73,1.642l0.852,0.834l0.774,0.907c0.725,0.58 0.961,0.777 1.425,0.904l-215.974,14.935l-286.348,-34.679Z" style="fill:#d9161d;"/></g><g id="Eléments-interieurs" serif:id="Eléments interieurs"><path d="M729.308,534.54l-77.974,49.719l-175.308,-64.195l5.975,-0.627l208.88,-14.968c0.801,0.636 0.907,0.655 2.115,0.844c1.322,1.197 1.243,1.202 2.572,2.361l0.835,0.823c0.775,0.853 1.424,1.576 1.547,1.714c0.855,1.721 0.507,1.859 1.642,3.363c0.231,1.224 0.096,1.197 0.569,2.271c0.128,0.242 0.167,0.165 1.985,2.788c1.309,1.889 0.322,2.367 1.834,4.136c0.063,0.074 0.062,0.066 0.835,0.887c0.836,0.877 0.792,0.832 1.651,1.705c0.807,0.706 0.708,0.756 1.691,0.978c3.397,2.239 3.488,-0.704 7.611,-0.854c1.518,1.239 1.655,0.826 3.408,1.597l0.802,0.095l0.889,0.659l1.647,0.885c1.093,0.95 1.197,0.734 2.247,1.757c0.556,1.549 0.767,1.355 2.017,2.367c0.21,0.12 1.623,0.927 2.519,1.669l0.01,0.026Z" style="fill:#164996;"/><path d="M245.684,572.439c-0.435,-1.306 -0.504,-1.544 -0.894,-3.418l0.519,-1.763c0.788,-1.252 0.918,-3.821 0.935,-4.162l-0.573,-1.015c-0.886,-0.873 -0.837,-0.825 -1.691,-1.649c-0.214,-0.995 -0.181,-0.952 -0.776,-1.761c-1.641,-1.949 -0.889,-2.438 -2.789,-4.073c-0.19,-0.022 -2.26,-0.256 -2.376,-0.299c-0.17,-0.063 0.016,-0.46 -0.154,-0.523c-0.139,-0.118 -0.894,-0.759 -1.832,-1.363l-2.381,-0.378c-0.66,-0.538 -0.606,-0.48 -1.393,-0.832l0.521,-2.418c-2.16,-3.951 -1.565,-4.113 -1.573,-4.209l0.393,-2.613l0.332,-3.278c-0.014,-1.369 -0.065,-1.297 -0.547,-2.609l-0.448,-2.385c-0.563,-0.729 -0.513,-0.722 -1.46,-1.009c-0.631,-0.932 -0.592,-0.85 -0.631,-0.932c-0.33,-0.691 -0.109,-0.678 -0.458,-1.408c-0.54,-0.785 -0.484,-0.766 -1.368,-1.151l-0.221,-0.365l-2.321,-0.457c-0.583,-1.438 -0.648,-1.319 -1.585,-2.457l-0.294,-0.628c-0.109,-0.145 -0.707,-0.939 -1.306,-1.86l-0.43,-1.498c-0.589,-0.778 -0.522,-0.754 -1.357,-1.151c-1.621,-1.695 -0.974,-2.373 -3.339,-3.407c-0.761,-1.135 -1.464,-0.869 -1.192,-2.229c0.161,-0.807 0.155,-0.726 0.339,-1.589c0.571,-0.916 1.58,-1.583 -0.93,-2.817c-0.785,-0.52 -0.735,-0.519 -1.672,-0.839c-0.4,-0.332 -3.731,-3.097 -4.157,-4.986c-0.715,-0.751 -0.668,-0.735 -1.64,-1.071c-0.748,-0.607 -0.671,-0.609 -1.696,-0.801c-0.306,-0.859 -0.267,-0.836 -0.963,-1.479c-0.719,-0.663 -0.682,-0.63 -1.591,-0.981l-0.911,-0.763c-0.14,-0.126 -0.873,-0.784 -1.716,-1.605c-0.67,-0.686 -0.626,-0.666 -1.551,-1.012l-0.895,-0.806c-0.829,-0.858 -0.505,-1.458 -2.512,-2.542c-0.841,-0.739 -1.7,-2.111 -1.825,-2.31c-0.725,-0.983 -0.682,-0.927 -1.458,-1.872c-1.181,-1.239 -0.878,-1.353 -1.248,-3.081c-0.467,-0.684 -0.603,-0.882 -0.891,-1.202l170.346,20.478l34.586,4.341l-148.927,62.236Z" style="fill:#0a306c;"/><path d="M476.231,519.916l0.095,-0.073l174.908,64.636l28.95,166.018l-1.771,17.714c-0.748,0.034 -2.613,0.178 -6.311,1.017l-3.275,0.406c-7.712,0.357 -10.175,1.081 -11.027,1.331l-2.367,0.404c-0.151,0.076 -0.713,0.99 -2.72,1.197c-0.974,0.718 -0.924,0.677 -1.806,1.448c-1.173,0.197 -1.154,0.111 -2.239,0.595c-2.07,1.2 -1.953,1.382 -4.344,1.698l-2.487,-0.128c-3.229,1.211 -3.228,0.886 -6.684,1.053c-1.844,0.162 -1.841,0.489 -3.533,-0.122l-2.415,-0.463l-8.42,0.017l-2.511,-0.792c-2.557,-0.027 -2.496,0.023 -5.079,0.135l-2.407,0.274c-0.815,0.592 -1.01,0.393 -1.155,1.351c-0.24,1.589 -0.162,1.654 -1.469,2.622c-0.943,0.771 -0.881,0.709 -1.718,1.63l-0.916,0.721c-0.914,0.763 -0.875,0.728 -1.736,1.503c-2.887,0.156 -2.839,-0.086 -5.726,0.097l-2.521,-0.802c-0.417,0.007 -4.809,0.082 -5.134,0.912c-0.393,1.003 -0.597,0.727 -1.603,0.978c-0.938,0.747 -0.896,0.712 -1.777,1.477c-0.779,0.03 -0.95,0.094 -1.306,0.367l-8.464,0.111c-0.172,-0.693 -0.109,-1.181 -0.935,-2.162c-0.147,-0.106 -0.981,-0.706 -1.961,-1.143l-3.221,-0.548c-5.014,-0.016 -4.959,0.008 -10.142,0.047l-2.417,0.4c-0.236,0.146 -2.385,1.472 -2.709,2.172c-0.232,0.501 -0.474,-0.036 -6.724,1.569l-0.121,0.034l-3.345,0.044c-0.483,-0.145 -0.99,-0.371 -1.502,-0.709l-0.713,-0.221c-0.818,-0.555 -0.778,-0.522 -1.732,-0.785l-0.181,-0.448c-0.653,-0.397 -0.729,-0.116 -1.405,-0.527c-0.075,-0.045 0,0 -0.788,-0.76l-0.906,-0.816c-0.835,-0.766 -1.543,-2.27 -1.645,-2.485c-0.276,-0.243 -0.007,-0.346 -0.287,-0.592c-0.064,-0.057 0,0 -0.905,-0.576c-2.494,-0.508 -2.352,-0.834 -4.778,-1.495l-0.214,-0.358c-1.311,-0.402 -1.294,-0.305 -2.358,-1.129c-1.193,-1.394 -1.163,-1.311 -2.381,-2.605c-0.297,-0.353 -0.66,-2.335 -3.648,-0.862l-3.179,0.53c-0.108,0.055 -0.007,0.157 -1.163,0.974c-0.98,0.175 -0.839,0.358 -1.65,0.922c-0.337,0.234 -3.7,0.602 -4.024,0.638l-2.536,0.312c-2.837,-1.568 -3.704,-1.741 -4.052,-1.811c-3.801,-2.434 -4.066,-1.505 -8.549,-1.613c-1.242,-0.439 -1.183,-0.465 -2.55,-0.552l-1.748,0.655c-0.244,0.366 -0.454,-0.014 -0.712,0.374c-0.083,0.125 0.018,0.135 0.253,1.857c-0.252,0.118 -5.442,2.435 -1.816,-2.963c-0.534,-2.263 -0.893,-2.015 -2.693,-3.382l-0.957,-0.56c-2.213,-0.203 -2.364,0.296 -4.063,-1.151l-0.69,-0.223c-0.82,-0.82 -0.445,-1.332 -2.585,-2.47c-2.342,-1.534 -2.553,-0.628 -5.264,-1.148l-2.431,-0.471l-1.766,-0.298c-1.667,-0.164 -1.621,-0.063 -3.249,-0.492l-1.659,-0.862c-1.916,-1.502 -3.979,-1.956 -4.355,-2.039l-2.306,-0.645c-1.162,-0.75 -1.135,-0.753 -2.544,-0.822c-0.826,-0.841 -0.765,-0.782 -1.708,-1.587c-0.156,-0.094 -1.875,-1.132 -1.963,-1.153c-5.024,-1.198 -5.568,-2.745 -5.724,-2.866c-3.828,-0.847 -3.827,-0.429 -7.611,-1.315l-1.688,0.276c-4.552,0.514 -4.559,0.32 -4.952,0.38l-0.16,0.383c-2.29,0.228 -2.201,0.295 -3.136,0.205l-0.124,-0.771l-0.758,-0.917c-1.909,-2.22 -2.034,-2.937 -2.087,-3.241c-0.486,-2.779 -1.796,-2.158 -3.881,-0.194c-0.463,-0.395 -0.661,-0.157 -0.835,-0.712c-0.198,-0.63 -0.684,-0.895 -0.769,-0.942c-0.319,-0.174 -0.686,-0.249 -1.005,-0.423l-2.453,0.016c-1.661,-0.133 -1.589,-0.206 -3.217,-0.606c-1.674,-1.255 -4.054,-1.816 -4.429,-1.904c-2.334,-0.424 -2.214,-0.593 -4.168,-1.969c-0.136,-0.127 -0.879,-0.825 -1.478,-1.799c-0.304,-0.984 -0.289,-0.919 -0.904,-1.703c-0.671,-0.68 -0.64,-0.651 -1.573,-0.908l-0.006,-1.524c0.333,-1.198 0.374,-1.11 0.363,-2.401c-1.19,-0.473 -0.871,-0.954 -2.107,-1.237c-0.889,-0.787 -0.845,-0.748 -1.762,-1.519l-0.972,-0.454c-3.81,-0.034 -3.743,-0.07 -7.475,0.272l-2.479,-0.845c-1.25,-0.634 -1.237,-0.466 -2.6,-0.626l-1.648,-0.162l-4.193,-0.786c-1.362,-0.223 -1.146,-0.7 -2.475,-0.962c-1.257,-0.84 -1.321,-0.57 -2.645,-1.363c-1.528,-1.1 -1.709,-0.656 -3.283,-1.816c-0.77,-0.592 -0.692,-0.579 -1.611,-0.905c-0.141,-0.128 -0.879,-0.793 -1.73,-1.636l-0.911,-0.75l-1.457,-1.029c-0.808,-0.894 -0.761,-0.845 -1.626,-1.691c-0.429,-1.82 -0.855,-1.538 -1.789,-3.198l-0.105,-1.654c-1.948,-2.954 -1.636,-3.057 -1.828,-3.289l-1.482,-1.03l-0.971,-1.558l-0.79,-0.897l-0.89,-0.803l-0.931,-0.734l-0.886,-0.818c-0.984,-1.129 -0.766,-1.329 -2.155,-1.988c-0.909,-0.956 -0.856,-1.466 -0.841,-1.611c0.083,-0.815 -1.63,-2.433 -1.815,-2.608l-1.714,-0.79l-0.917,-0.715c-0.209,-0.122 -1.624,-0.952 -2.575,-1.589c-0.394,-0.209 -0.382,-0.148 -1.517,-0.355c-1.341,-1.114 -1.263,-1.089 -2.81,-1.85c-1.519,-0.513 -1.484,-0.479 -3.122,-0.59l-0.922,-0.673l-2.518,-0.878c-2.09,-0.548 -1.963,-0.725 -4.154,-0.967l-0.157,-0.434l-1.739,-0.679l-3.213,-0.502l-0.799,-0.099l-2.557,-0.772l-0.815,-0.077c-1.261,-0.524 -1.163,-0.542 -2.524,-0.824c-3.327,-0.961 -3.322,-0.457 -6.755,-0.774c-2.532,-0.484 -2.448,-0.488 -5.084,-0.736l-1.643,-0.163l-3.388,-0.789l-0.828,-0.075c-1.681,-0.508 -1.619,-0.449 -3.391,-0.661l-1.601,-0.868c-0.865,-0.86 -0.797,-0.809 -1.815,-1.534c-2.188,-1.675 -2.084,-1.783 -2.31,-1.855c-0.595,-0.188 -0.33,-0.39 -0.731,-0.863c-0.316,-3.834 0.204,-3.729 0.883,-4.578c1.047,-1.41 1.165,-1.628 0.016,-3.025c-0.543,-2.493 -1.23,-2.355 -0.982,-4.863l187.362,-143.94l-20.97,130.748l53.173,-30.279c0,0 -6.647,-2.216 7.385,-11.816l-39.27,-88.897Z" style="fill:#0a306c;"/><g><path d="M240.045,394.196l0.418,-4.457c0.353,-1.307 0.247,-1.264 0.611,-2.561l0.331,-2.463l0.33,-0.957l0.463,-3.272l-0.006,-3.404c-0.025,-0.329 -0.067,-0.317 -0.437,-4.105c-0.07,-0.222 -0.083,-0.196 -1.1,-2.691l-0.635,-3.14c-0.06,-0.107 -0.154,-0.003 -1.009,-1.152c-0.482,-2.694 0.055,-2.929 -1.832,-4.973l0.046,-2.35c0.027,-0.175 0.112,-0.117 1.145,-1.892c1.249,-3.008 1.236,-3.012 1.322,-3.131c0.979,-1.526 0.69,-1.592 0.884,-3.445c0.511,-3.014 0.49,-2.93 0.714,-5.912l0.06,-0.481l244.039,175.607l-245.344,-125.22Z" style="fill:#b11316;"/></g><path d="M736.728,615.027l-83.953,-30.769l76.034,-50.122c0.172,0.125 0.338,0.252 0.489,0.378l0.959,2.463l0.656,0.96c0.774,0.607 0.728,0.616 1.682,0.925c0.223,0.189 -0.03,0.288 0.21,0.492c0.067,0.057 0,0 0.915,0.608c5.123,1.064 5.404,0.061 7.248,1.43c0.433,0.332 1.656,1.27 6.031,3.194c1.448,1.722 0.897,1.894 1.161,4.12c0.234,2.814 -0.655,3.112 1.223,5.29c0.698,0.608 0.661,0.576 1.51,0.918l0.515,2.221c0.877,3.771 4.6,3.738 4.355,5.892c-0.015,0.136 0.064,0.105 0.219,1.691c0.014,0.143 0.066,0.672 -0.693,1.656l-0.737,0.912l-0.456,3.336c0.164,1.327 0.061,1.276 0.21,2.574c0.139,1.698 0.085,3.088 0.074,3.356c0.101,0.455 0.144,0.698 0.212,0.904l-1.971,10.622c-1.16,-0.207 -1.177,-0.299 -2.266,-0.233c-2.78,-0.808 -3.669,-2.159 -4.646,0.553c0.226,1.62 0.387,6.165 0.406,6.702c0.503,0.708 0.319,0.745 0.66,4.173l-0.226,1.744c-0.333,1.671 -0.246,1.608 -0.591,3.295c-0.02,0.515 -0.198,0.423 -0.218,0.946c-0.004,0.115 0.009,0.106 0.124,1.434c-0.821,0.348 -0.775,0.347 -1.348,1.035c-1.01,1.019 -2.448,2.059 -2.673,2.222c-0.993,0.134 -0.94,0.021 -1.536,0.338l-0.879,0.775l-1.039,1.555c-0.73,0.883 -1.267,1.683 -1.663,2.411Z" style="fill:#3266aa;"/></g></g><g id="Soleil"><g id="Soleil1" serif:id="Soleil"><path d="M192.274,333.454l243.246,159.378l-218.167,-191.199l-25.08,31.822Z" style="fill:#fec00c;"/><path d="M461.898,479.639l-148,-238.915l35.917,-17.697l112.083,256.612Z" style="fill:#fec00c;stroke:#fec00c;stroke-width:1px;"/><path d="M488.865,471.001l-26.967,-261.774l48.562,0l-21.595,261.774Z" style="fill:#fec00c;stroke:#fec00c;stroke-width:1px;"/><path d="M517.307,479.639l118.509,-256.612l36.343,16.749l-154.852,239.863Z" style="fill:#fec00c;stroke:#fec00c;stroke-width:1px;"/><path d="M543.116,492.832l222.271,-191.199l23.702,38.481l-245.973,152.718Z" style="fill:#fec00c;stroke:#fec00c;stroke-width:1px;"/><path d="M543.116,514.464l297.359,-65.059l6.068,43.427l-303.427,21.632Z" style="fill:#fec00c;stroke:#fec00c;stroke-width:1px;"/><path d="M429.675,515.484l-301.698,-28.232l7.163,-42.979l294.535,71.211" style="fill:#fec00c;stroke:#fec00c;stroke-width:1px;"/></g><path d="M488.976,584.789c-0.331,0.006 -0.663,0.009 -0.995,0.009c-28.954,0 -52.46,-23.507 -52.46,-52.46c0,-28.954 23.507,-52.46 52.46,-52.46c28.954,0 52.46,23.507 52.46,52.46c0,0.723 -0.015,1.443 -0.044,2.159c0.029,0.672 0.044,1.347 0.044,2.025c0,26.644 -22.613,48.276 -50.467,48.276c-0.333,0 -0.666,-0.003 -0.998,-0.009Zm43.448,-74.37c-8.418,-15.127 -24.57,-25.37 -43.095,-25.37c-24.151,0 -44.268,17.41 -48.475,40.354c5.256,-21.291 25.266,-37.156 49.119,-37.156c17.803,0 33.466,8.837 42.45,22.173Z" style="fill:#fec00c;"/><g><path d="M438.88,558.696l-6.766,-0.138l-38.937,27.753l42.835,-20.987l2.867,-6.628Z" style="fill:#fec00c;"/><path d="M457.767,432.871l7.821,39.642l7.821,3.775l2.157,-8.09l-17.798,-35.327Z" style="fill:#fec00c;"/><path d="M517.568,431.139l-14.216,37.823l4.662,7.327l6.093,-5.743l3.461,-39.406Z" style="fill:#fec00c;"/><path d="M593.261,534.195l-39.743,-7.289l-6.384,5.887l6.732,4.979l39.396,-3.576Z" style="fill:#fec00c;"/><path d="M555.14,461.031l-26.766,18.64l-0.187,7.323l6.715,-0.861l20.237,-25.102Z" style="fill:#fec00c;"/><path d="M575.218,486.994l-31.156,9.652l-2.397,6.922l6.661,1.214l26.893,-17.788Z" style="fill:#fec00c;"/><path d="M571.47,581.176l-24.586,-21.434l-7.149,1.598l2.467,6.305l29.267,13.531Z" style="fill:#fec00c;"/><path d="M521.938,581.176l0.539,7.448l52.741,77.666l-46.268,-82.251l-7.012,-2.864Z" style="fill:#fec00c;"/><path d="M504.139,589.433l-2.966,5.933l13.214,40.181l-4.389,-42.896l-5.858,-3.218Z" style="fill:#fec00c;"/><path d="M488.132,589.433l-6.203,6.464l6.203,85.756l4.315,-85.487l-4.315,-6.733Z" style="fill:#fec00c;"/><path d="M458.536,584.397l-6.386,0.518l-39.696,70.59l47.117,-66.071l-1.036,-5.036Z" style="fill:#fec00c;"/><path d="M432.177,532.338l-6.041,4.665l-43.579,-1.51l43.364,-9.061l6.256,5.906Z" style="fill:#fec00c;"/><path d="M436.013,503.715l0,-4.556l-41.366,-15.05l37.53,20.987l3.836,-1.381Z" style="fill:#fec00c;"/><path d="M450.712,487.149l0.276,-7.271l-29.548,-22.139l21.263,28.719l8.008,0.69Z" style="fill:#fec00c;"/></g></g><g id="montagne"><g><path d="M594.331,542.174c1.172,0.174 2.404,0.381 3.69,0.626c10.302,1.962 5.887,1.472 16.679,3.924c10.792,2.453 20.604,-1.472 20.604,-1.472c0,0 18.641,16.679 21.094,23.056c2.453,6.377 9.811,5.396 15.698,8.34c5.887,2.943 -3.925,-4.906 17.66,8.83c21.585,13.736 24.528,6.868 35.32,21.094c10.792,14.226 21.094,21.094 29.924,30.905c8.83,9.811 52,29.924 54.452,37.283c2.453,7.358 0,39.245 0,39.245c0,0 -194.753,0.981 -220.262,1.472c-25.509,0.491 -108.414,-5.887 -135.886,-7.849c-27.471,-1.962 -48.566,-3.434 -48.566,-3.434c0,0 7.849,5.887 -4.415,5.887c-12.264,0 -31.887,-5.396 -39.735,-4.906c-7.849,0.491 -2.943,8.34 -10.792,0.491c-7.849,-7.849 -19.132,-8.83 -19.132,-8.83l-6.868,-2.943l-9.811,-1.962l-14.717,-2.453l-13.245,-3.434l-7.358,-4.906l91.735,-32.868c0,0 5.396,-2.453 14.717,-4.415c9.321,-1.962 29.434,-5.887 29.434,-5.887l24.038,-8.529l50.528,-37.093l20.604,-9.811l10.302,-0.491l17.17,-9.321l23.547,-20.604l8.34,-0.981l11.773,-9.811c0,0 4.768,-0.341 12.317,0.681l31.964,31.014l24.514,22.103l9.645,2.411l18.687,18.888l16.878,7.234l1.607,-2.612c0,0 -11.051,-8.238 -14.266,-12.257c-3.215,-4.019 -13.262,-8.037 -16.075,-10.248c-2.813,-2.21 -14.467,-8.64 -14.467,-8.64l-26.322,-20.696l-31.002,-27.032Z" style="fill:#b1ab91;"/><path d="M361.644,665.287c0,0 22.103,-20.345 27.628,-21.852c5.526,-1.507 29.889,-10.8 29.889,-10.8l19.089,-3.196c0,0 -31.647,12.489 -35.415,15.503c-3.768,3.014 -5.526,8.289 -11.051,10.549c-5.526,2.261 -6.782,2.763 -14.317,6.028c-7.535,3.265 -14.568,6.782 -14.568,6.782l-1.256,-3.014Z" style="fill:#e3dfcb;"/><path d="M499.033,587.425c0,0 -20.093,20.093 -23.359,23.359c-3.265,3.265 -5.526,5.526 -7.786,8.791c-2.261,3.265 -7.033,9.865 -7.033,9.865l11.051,0l20.847,-12.879c0,0 -4.929,-0.995 -6.106,3.772c-1.177,4.767 6.106,3.148 -1.68,9.106c-7.786,5.959 -0.754,3.196 -9.544,7.215c-8.791,4.019 -21.6,-7.215 -21.6,-7.215l-20.596,0c0,0 8.54,-1.576 11.805,3.447c3.265,5.023 4.772,6.53 4.772,6.53l5.023,1.758c0,0 13.306,0.085 10.755,1.978c-2.551,1.893 -18.683,7.407 -18.93,9.959c-0.247,2.551 8.477,-2.798 14.156,-3.045c5.679,-0.247 -2.551,-0.087 10.535,-1.196c13.086,-1.109 14.897,-2.919 14.897,-2.919c0,0 -4.527,0.412 -5.926,-2.304c-1.399,-2.716 1.564,-5.432 3.292,-5.185c1.728,0.247 6.749,-10.041 10.699,-6.749c3.951,3.292 4.856,2.963 8.806,3.868c3.951,0.905 3.128,-6.667 7.407,-8.559c4.28,-1.893 4.609,-0.823 6.913,-0.741c2.304,0.082 4.033,-3.21 4.033,-3.21l7.127,-26.365l-1.768,32.734c0,0 -4.983,3.113 2.09,-1.87c7.073,-4.983 10.77,-6.269 10.127,-13.985c-0.643,-7.716 3.858,-11.413 -0.964,-13.985c-4.822,-2.572 -5.787,-7.555 -4.179,-8.68c1.607,-1.125 6.108,-3.215 5.787,-6.108c-0.321,-2.893 8.359,-24.112 8.359,-24.112c0,0 -14.146,15.11 -18.807,21.862c-4.662,6.751 -27.292,0.889 -30.203,4.865Z" style="fill:#e3dfcb;"/><path d="M577.122,550.344c0,0 -12.458,3.829 -16.276,10.354c-3.818,6.525 -15.271,59.169 -16.678,62.786c-1.407,3.617 -3.014,5.955 -3.014,5.955c0,0 0.201,1.681 14.266,-5.754c14.065,-7.435 17.682,-10.449 17.682,-10.449c0,0 -13.864,25.72 -20.696,29.537c-6.832,3.818 -10.449,6.096 -10.449,6.096c0,0 24.112,-2.68 30.14,-9.713c6.028,-7.033 3.818,6.229 3.818,6.229c0,0 -0.804,0.349 4.621,8.413c5.425,8.064 9.846,6.657 9.846,6.657c0,0 10.248,-12.523 13.061,-11.586c2.813,0.937 0.201,-5.292 9.042,-2.881c8.841,2.411 16.878,2.559 19.692,7.81c2.813,5.251 39.986,-15.044 39.986,-15.044c0,0 -1.407,-25.921 -8.238,-27.729c0,0 -1.005,16.33 -7.635,18.413c-6.631,2.082 1.206,-7.16 -8.238,-3.544c-9.444,3.617 0.804,5.827 -15.07,-4.22c-15.874,-10.047 -26.523,-19.892 -23.71,-28.332c2.813,-8.439 0,-19.089 0,-19.089c0,0 -0,-3.617 3.416,0.603c3.416,4.22 7.234,10.449 7.234,10.449l2.813,-15.874l-18.687,-13.864l-3.416,1.808l8.238,11.453c0,0 -1.005,7.033 -3.416,9.846c-2.411,2.813 -5.023,8.238 -5.425,10.449c-0.402,2.21 -3.416,9.444 -4.019,14.869c-0.603,5.425 0.603,18.084 -1.206,22.906c-1.808,4.822 -3.215,15.07 -3.215,15.07c0,0 -5.827,-13.864 -8.841,-26.523c-3.014,-12.659 -0.603,-13.664 -0.603,-24.313c0,-10.65 -3.215,-25.92 -3.416,-28.131c-0.201,-2.21 -1.607,-12.659 -1.607,-12.659Z" style="fill:#e3dfcb;"/></g><g><path d="M952.023,697.764c0,0 -37.697,-15.185 -42.799,-17.148c-5.102,-1.962 -28.649,-7.849 -40.422,-19.23c-11.773,-11.381 -63.184,-16.09 -67.501,-23.939c-4.317,-7.849 -30.611,-31.004 -43.954,-27.471c-13.343,3.532 -18.364,6.672 -22.525,7.064c-4.161,0.392 -14.365,-2.747 -28.101,5.887c-13.736,8.634 -94.58,46.702 -102.429,47.094c-7.849,0.392 -11.381,6.279 -3.924,5.887c7.457,-0.392 10.596,7.064 22.37,9.419c11.773,2.355 27.864,18.838 32.573,18.053c4.709,-0.785 68.76,35.32 79.512,38.068c10.752,2.747 28.804,9.026 28.804,9.026c0,0 174.98,-45.765 188.398,-52.708Z" style="fill:#d09767;"/><path d="M717.08,653.834c0,0 -4.032,-5.587 -4.032,-9.354c0,-3.768 0.628,-1.884 -8.791,7.535c-9.419,9.419 -11.93,12.558 -27.314,17.268l-15.292,4.681c1.333,-0.411 16.725,-5.255 20.629,-10.96c4.081,-5.965 10.047,-6.907 2.198,-5.965c-7.849,0.942 -14.756,5.337 -14.756,5.337c0,0 2.512,-7.849 22.919,-14.128l8.067,-6.249l-5.202,-1.337l1.749,-4.527c0,0 -38.888,23.662 -45.884,24.279c0,0 15.02,-8.436 17.284,-11.625c0,0 -6.687,-3.189 -12.037,-0.617c-5.35,2.572 44.341,-26.028 52.674,-26.954c8.333,-0.926 26.42,-2.927 33.171,-1.158c6.751,1.768 11.574,3.376 17.682,1.929c6.108,-1.447 4.662,-4.822 12.056,-3.215c7.394,1.607 19.772,18.004 19.772,18.004l24.273,14.307c0,0 27.327,7.073 36.007,12.86c8.68,5.787 31.693,23.63 33.368,26.845c0,0 -0.254,0 -12.792,-4.662c-12.538,-4.662 -16.718,-4.34 -22.826,-8.359c-6.108,-4.019 -2.893,-4.019 -15.271,-9.163c-12.378,-5.144 -23.951,-11.895 -23.951,-11.895c0,0 -23.521,-17.566 -25.293,-19.033c1.755,1.75 24.992,26.666 37.67,32.696c13.181,6.269 25.237,10.127 25.237,10.127c0,0 2.09,1.286 -4.179,1.607c-6.269,0.321 -17.039,1.768 -17.039,1.768c0,0 7.234,2.733 7.394,7.394c0.161,4.662 3.536,9.966 -1.768,4.34c-5.305,-5.626 -6.912,-7.716 -9.484,-8.68c-2.572,-0.964 -3.697,-2.09 -3.697,-2.09c0,0 18.164,18.486 18.486,22.665c0.321,4.179 0.725,3.262 -1.727,4.476c-4.768,2.361 -13.446,-10.361 -20.667,-9.105c-7.221,1.256 -3.454,6.279 -16.012,2.198c-12.558,-4.081 -10.047,-3.768 -13.186,-3.768c-3.14,0 2.198,3.59 -7.535,-3.542c-9.733,-7.132 -9.419,-4.621 -16.954,-9.016c-7.535,-4.395 -0,-4.709 -11.617,-4.081c-11.617,0.628 -13.814,-12.244 -7.535,-15.384c4.824,-2.412 5.757,-8.9 5.93,-14.056c4.046,-6.834 0.035,-9.178 0.035,-4.154c0,1.164 -2.024,2.138 -2.077,3.693c-4.046,6.834 -14.249,22.679 -14.249,22.679c0,0 -4.081,-2.826 -5.337,-12.244c-1.256,-9.419 5.023,-12.244 -1.256,-9.419c-6.279,2.826 2.506,1.57 -5.183,10.047c-7.689,8.477 -16.166,10.361 -24.957,9.733l-5.023,-0.314c0,0 13.368,-11.034 26.323,-21.414c2.803,-2.246 5.588,-4.462 8.213,-6.529c14.756,-11.617 12.244,-13.5 12.244,-13.5l-12.244,9.419l1.884,-6.279l-10.097,16.889Zm24.106,-9.291c-3.704,4.527 -7.819,18.312 -7.819,18.312l7.819,-18.312Zm70.709,35.831c-3.416,-7.636 -35.766,-38.981 -35.766,-38.981l0,7.836c1.206,6.631 10.65,20.696 17.28,22.304c6.631,1.607 18.486,8.841 18.486,8.841Zm-6.848,19.113c-3.858,-5.144 -26.62,-23.919 -26.62,-23.919c0.514,10.931 26.62,23.919 26.62,23.919Z" style="fill:#f8c28c;"/><path d="M765.689,752.039c-3.215,-1.206 -44.951,-19.692 -44.951,-19.692c0,0 -4.88,-5.626 -11.913,-6.43c-7.033,-0.804 -8.037,-1.808 -9.042,-5.425c-1.005,-3.617 -8.64,-4.019 -12.458,-4.822c-3.818,-0.804 1.206,-10.047 -10.65,-10.65c-11.855,-0.603 2.009,2.813 -12.257,-0.603c-14.266,-3.416 -20.093,-6.654 -20.093,-6.654c0,0 -1.206,0.425 10.248,-3.594c11.453,-4.019 27.126,-4.421 29.738,1.206c2.612,5.626 -0.201,11.855 10.047,9.042c10.248,-2.813 11.654,0.402 15.07,1.005c3.416,0.603 1.523,6.43 11.31,2.009c9.788,-4.421 12.601,-9.846 18.629,-4.421c6.028,5.425 6.028,10.047 12.056,10.047c6.028,0 11.855,-1.808 12.86,2.612c1.005,4.421 -0.603,5.224 4.421,6.229c5.023,1.005 17.079,1.407 21.098,7.836c4.019,6.43 21.299,8.222 21.299,8.222c0,0 -6.028,13.077 -15.271,14.685c-9.243,1.607 -26.925,0.603 -30.14,-0.603Z" style="fill:#9e8c45;"/><path d="M866.901,777.383c0,0 -1.57,1.962 -13.343,-0.392c-11.773,-2.355 -2.566,-1.71 -7.915,-1.607c-5.35,0.103 -1.955,-2.263 -10.185,-2.675c-8.23,-0.412 -4.115,-3.189 -12.037,-2.366c-7.922,0.823 -1.029,5.555 -9.465,4.63c-8.436,-0.926 -6.481,-0.103 -14.917,-1.646c-8.436,-1.543 -3.292,-0.926 -9.568,1.235c-6.276,2.16 2.469,4.012 -7.922,2.366c-10.391,-1.646 -11.111,-3.601 -16.666,-3.189c-5.555,0.412 -10.802,-2.881 -17.284,-1.235c-6.481,1.646 -9.612,3.086 -12.779,2.881c-3.167,-0.206 -14.484,0.206 -14.072,-2.675c0.412,-2.881 58.126,-26.028 58.126,-26.028c0,0 6.276,-7.407 10.391,-5.967c4.115,1.44 7.922,1.44 9.568,0.206c1.646,-1.235 18.004,-12.448 20.987,-10.699c2.983,1.749 2.881,2.16 5.761,2.16c2.881,0 12.551,-7.099 15.02,-6.07c2.469,1.029 4.218,3.909 7.407,2.366c3.189,-1.543 5.658,-2.469 8.025,-2.366c2.366,0.103 3.909,-3.292 7.407,-4.321c3.498,-1.029 10.391,-3.086 10.391,-3.086c0,0 3.498,-2.572 6.481,-1.132c2.983,1.44 5.761,1.955 6.687,0.926c0.926,-1.029 8.642,-10.596 12.448,-9.773c3.806,0.823 7.407,3.601 9.362,1.235c1.955,-2.366 -0.103,-4.938 4.938,-5.144c5.041,-0.206 6.996,1.235 9.362,-1.029c2.366,-2.263 1.337,-4.732 6.173,-3.395c4.835,1.337 8.025,1.44 9.876,0.617c1.852,-0.823 4.321,-3.395 7.613,-2.881c3.292,0.514 5.35,-2.16 5.247,1.029c-0.104,3.189 -4.594,5.452 -5.495,9.053c-0.9,3.601 -6.43,9.516 -12.988,12.988c-6.558,3.472 -4.115,5.916 -8.616,9.002c-4.501,3.086 -11.96,7.587 -13.76,13.503c-1.8,5.916 0.386,6.932 -6.944,8.487c-7.33,1.555 -13.117,-2.28 -15.046,2.455c-1.929,4.735 -3.858,3.578 -6.687,11.423c-2.829,7.844 -14.831,11.814 -15.581,11.115Z" style="fill:#6e6c33;"/><path d="M797.235,747.015c-15.07,-3.818 -49.028,-9.477 -56.262,-9.059c-7.234,0.419 -5.023,2.997 -10.65,0c-5.626,-2.997 -22.505,-14.451 -26.322,-13.848c-3.818,0.603 -19.892,-7.033 -22.304,-7.836c-2.411,-0.804 -15.472,-9.444 -15.472,-9.444l-15.673,-4.421c0,0 18.888,-0.201 23.911,2.612c5.023,2.813 5.425,6.43 17.079,7.636c11.654,1.206 17.883,1.206 24.715,6.43c6.832,5.224 7.435,7.033 14.266,7.234c6.832,0.201 10.047,1.607 15.271,3.818c5.224,2.21 -3.818,-1.407 12.257,2.009c16.075,3.416 31.748,7.635 39.182,14.869" style="fill:#6e6c33;"/></g><g><path d="M673.509,783.738c0,0 -16.712,1.884 -22.955,6.907c-6.243,5.023 -56.477,3.14 -52.081,6.279c4.395,3.14 7.535,7.221 -0.314,6.907c-7.849,-0.314 -0,-2.512 -14.128,-1.256c-14.128,1.256 -2.512,5.965 -21.035,-0.314c-18.524,-6.279 -20.407,-3.768 -28.256,-3.768c-7.849,0 -0.628,-4.395 -0.628,-4.395c0,0 -25.117,-1.57 -39.873,-3.454c-14.756,-1.884 -32.652,-1.256 -24.803,-5.651c7.849,-4.395 5.831,-1.48 5.831,-1.48c0,0 4.003,-0.632 -2.054,-4.003c-6.057,-3.371 -7.48,-2.476 -10.219,-4.688c-2.739,-2.212 -3.74,-3.424 -6.848,-4.846c-3.108,-1.422 -2.212,-2.265 -6.321,-2.054c-4.109,0.211 -4.477,1.211 -9.323,1.633c-4.846,0.421 -3.634,0.474 -6.479,0.158c-2.844,-0.316 -2.844,1.053 -2.95,-1.264c-0.105,-2.318 4.003,-2.476 4.003,-2.476c0,0 7.374,-0.105 0.843,-2.476c-6.532,-2.37 -6.005,-1.211 -14.117,-3.002c-8.112,-1.791 -8.902,-1.422 -14.907,-2.212c-6.005,-0.79 -24.681,-4.754 -28.213,-20.327c-3.532,-15.572 18.445,-31.27 18.445,-31.27l36.498,-14.521c0,0 17.268,-16.09 25.902,-20.015c8.634,-3.924 10.989,-5.887 20.8,-5.102c9.811,0.785 17.66,-1.177 21.585,-3.532c3.924,-2.355 19.23,-14.128 19.23,-14.128c0,0 -2.355,-9.811 10.204,-5.494c12.558,4.317 15.306,3.14 31.396,14.913c16.09,11.773 10.989,12.166 25.902,14.913c14.913,2.747 19.622,5.494 27.864,9.811c8.241,4.317 3.532,-1.57 12.951,6.279c9.419,7.849 14.328,7.92 21.096,12.594c6.768,4.674 15.065,3.104 26.783,11.738c11.718,8.634 85.891,32.872 85.891,32.872c0,0 -9.419,11.474 -12.558,10.297c-3.14,-1.177 -24.508,0.785 -26.775,6.279c-2.266,5.494 -0.304,17.735 -8.938,14.558c-8.634,-3.177 -41.448,5.589 -41.448,5.589Z" style="fill:#f2c18e;"/><path d="M684.33,778.15c-5.651,-2.094 -6.593,-10.571 -19.779,-9.943c-13.186,0.628 -12.244,4.709 -35.791,3.14c-23.547,-1.57 -15.698,-0.628 -32.338,0.628c-16.64,1.256 -20.407,-0.628 -33.594,-2.826c-13.186,-2.198 -17.268,-2.198 -30.768,-3.768c-13.5,-1.57 -7.849,-2.198 -17.896,-1.884c-10.047,0.314 -5.965,0.314 -12.872,0c-6.907,-0.314 -9.419,0.314 -14.756,-5.023c-5.337,-5.337 -21.977,-11.459 -21.977,-11.459c0,0 -24.175,-2.04 -28.884,0c-4.709,2.04 -0.628,-1.412 -13.5,0c-12.872,1.412 -11.617,-0.156 -21.349,0c-9.733,0.156 -16.012,0 -16.012,0c0,0 -5.651,-5.809 -14.128,-5.181c-8.477,0.628 -9.105,0.628 -9.105,0.628c0,0 -5.651,1.256 -3.14,-1.256c2.512,-2.512 25.745,-27.315 39.873,-31.71c14.128,-4.395 20.093,-4.941 32.652,-11.733c12.558,-6.791 37.989,-27.826 37.989,-27.826c0,0 11.616,-5.023 19.152,-1.884c7.535,3.14 10.675,4.395 14.442,1.256c3.768,-3.14 4.709,-7.849 10.361,-9.105l-9.105,17.896l25.117,-31.082l0,26.687c0,0 14.442,-8.791 14.442,-16.64c0,-7.849 1.884,-8.477 1.884,-8.477c0,0 3.767,-1.884 8.163,3.14c4.395,5.023 3.768,6.907 10.047,9.105c6.279,2.198 15.384,5.337 16.954,8.477c1.57,3.14 7.221,6.279 7.221,6.279l-15.07,10.989c0,0 -3.768,5.597 -11.93,15.828c-8.163,10.231 -57.769,44.611 -57.769,44.611l9.105,0l19.779,-14.914l4.709,-1.57c0,0 0.942,-3.48 8.163,-5.821c7.221,-2.341 39.596,-46.63 39.596,-46.63c0,0 5.3,-3.747 9.381,-5.003c4.081,-1.256 11.93,4.709 11.93,4.709l15.07,7.535l8.477,0.628c0,0 8.477,3.14 10.047,8.163c1.57,5.023 9.682,7.166 11.434,8.293c1.752,1.126 22.16,10.859 22.16,10.859l41.129,24.693l43.012,15.18c0,0 -20.407,7.849 -29.512,6.593c-9.105,-1.256 -1.256,-4.081 -10.047,-1.256c-8.791,2.826 -7.221,2.512 -14.442,4.395c-5.776,1.507 -4.722,2.21 -5.997,2.271c-0.319,0.015 -0.784,-0.01 -1.538,-0.073c-3.768,-0.314 4.156,-0.017 0,0c-4.156,0.017 -7.053,0.649 -7.053,0.649l-2.318,0.632c0,0 -1.053,1.686 1.791,1.844c2.844,0.158 9.534,1.844 9.534,1.844c0,0 3.318,2.686 0.685,2.844c-2.634,0.158 -3.951,-0.369 -5.162,0c-1.211,0.369 -3.476,1.159 -3.476,1.159c0,0 0.369,0.105 -1.844,0.263c-2.212,0.158 -2.95,1.159 -2.95,1.159l-0.196,2.689" style="fill:#88853e;"/><path d="M632.649,773.65l8.238,-9.846c0,0 -3.617,-5.626 -12.458,-12.659c-8.841,-7.033 -28.734,-38.78 -28.734,-38.78c0,0 13.664,13.061 17.682,15.874c4.019,2.813 13.663,10.594 15.874,9.717c2.21,-0.876 13.262,5.353 13.262,5.353c0,0 3.861,0.379 4.04,3.706c0.18,3.327 9.623,3.929 9.623,3.929l9.243,1.407l7.234,3.215c0,0 -3.416,-7.256 -6.028,-8.551c-2.612,-1.295 -4.822,-1.697 -6.631,-3.706c-1.808,-2.009 -0.603,-3.014 2.612,-2.612c3.215,0.402 4.019,1.206 6.229,2.411c2.21,1.206 3.014,1.407 3.014,1.407c0,0 5.827,-1.831 6.832,2.5c1.005,4.331 -0.603,4.934 6.631,7.345c7.234,2.411 11.855,3.014 14.467,3.014c2.612,0 13.463,2.009 13.463,2.009l-11.051,2.21c0,0 -6.028,2.009 -12.458,2.009c-6.43,0 -6.832,0.402 -6.832,0.402c0,0 -1.607,3.416 0.603,3.416c2.21,0 11.252,4.421 8.037,4.22c-3.215,-0.201 -6.631,11.41 -12.659,6.509c-6.028,-4.901 -5.224,-6.709 -12.257,-8.317c-7.033,-1.607 -9.444,-1.005 -9.444,-1.005c0,0 -1.206,3.818 -3.617,4.019c-2.411,0.201 -1.966,-0 -7.011,0.804c-5.045,0.804 -17.905,0 -17.905,0Z" style="fill:#6e6c33;"/><path d="M625.214,720.403c0,0 -23.71,-17.147 -25.519,-22.639c-1.808,-5.492 0,-6.898 0,-6.898l-9.243,-18.888l19.089,18.687c0,0 3.416,7.769 0.804,7.099c-2.612,-0.669 1.607,1.943 1.808,5.56c0.201,3.617 13.061,17.079 13.061,17.079Z" style="fill:#6e6c33;"/><path d="M652.742,727.837l-16.075,-10.449c0,0 12.458,2.411 16.075,10.449Z" style="fill:#6e6c33;"/><path d="M615.569,771.239c0,0 -6.028,-3.215 -7.736,-6.028c-1.708,-2.813 -2.914,-5.224 -2.914,-5.224c0,0 -6.832,2.411 -10.85,0.603c-4.019,-1.808 -9.243,-6.631 -9.243,-6.631l-0.201,-8.097l-4.22,4.611l-5.425,-4.611c0,0 6.631,13.924 13.262,19.35c6.631,5.425 8.017,10.65 8.017,10.65l7.656,0.603l14.668,-2.411l-3.014,-2.813Z" style="fill:#6e6c33;"/><path d="M526.011,674.184l-6.229,-12.659l8.439,-14.869l0.804,18.084l2.813,-5.827l-1.206,13.463l-4.621,1.808Z" style="fill:#6e6c33;"/><path d="M506.06,750.472c-3.617,1.879 1.607,-4.611 1.607,-4.611l6.028,-8.58c0,0 5.827,-3.014 9.042,-5.023c3.215,-2.009 6.028,-4.22 14.266,-9.645c8.238,-5.425 13.463,-9.645 18.285,-15.271c4.822,-5.626 4.421,-5.626 7.435,-9.444c3.014,-3.818 5.224,-7.435 5.224,-7.435l-3.818,0l-3.416,-2.411c0,0 1.206,-0.402 -3.215,2.411c-4.421,2.813 -4.019,1.808 -5.425,3.818c-1.407,2.009 1.607,-1.407 -1.407,2.21c-3.014,3.617 -3.918,1.607 -3.918,1.607c0,0 3.315,-4.421 0,-2.21c-3.315,2.21 -6.329,6.43 -9.343,11.654c-3.014,5.224 -3.617,5.425 -3.617,5.425c0,0 -2.813,-15.07 -3.818,-17.481c-1.005,-2.411 1.607,-15.874 -2.813,-11.654c-4.421,4.22 -7.234,16.878 -7.234,19.692c0,2.813 0.603,-0.603 0,2.813c-0.603,3.416 -0.603,3.617 -0.603,3.617l-1.407,1.607c0,0 0.603,0.201 -3.416,-1.808c-4.019,-2.009 -8.037,-5.425 -8.037,-5.425l-0.402,-6.229c0,0 0.603,-4.22 5.425,-7.635c4.822,-3.416 -11.051,8.841 -11.051,8.841l-7.635,-1.407c0,0 -5.808,-5.658 -5.939,-7.435c-0.132,-1.777 -0.658,-3.554 -0.658,-3.554l-2.107,-1.514c0,0 -0.79,2.37 -2.963,3.753c-2.173,1.383 -5.333,-0.002 -2.239,1.316c3.095,1.318 5.07,2.701 6.518,3.754c1.449,1.053 2.041,1.712 2.963,3.292c0.922,1.58 1.58,3.029 2.173,4.675c0.593,1.646 1.712,3.819 1.778,5.465c0.066,1.646 0,1.778 0.658,4.016c0.658,2.239 0.658,2.502 0.856,3.49c0.198,0.988 -5.399,-4.411 -6.255,-5.07c-0.856,-0.658 -4.477,-3.621 -6.387,-7.704c-1.909,-4.082 -2.7,-7.177 -2.7,-7.177c0,0 -0.922,-2.634 -1.778,-5.531c-0.856,-2.897 -1.646,-5.531 -1.712,-6.453c-0.066,-0.922 0.79,-2.897 0.79,-2.897l-3.095,-12.708c0,0 -1.053,4.214 -5.136,7.506c-4.082,3.292 -8.757,8.823 -9.547,9.415c-0.79,0.593 0.856,-1.251 -2.897,3.292c-3.753,4.543 -13.668,15.147 -13.668,15.147l10.361,-5.651l5.651,-3.14l-8.163,13.186l-1.256,4.709l12.558,-17.268l8.163,4.081c0,0 5.337,3.768 1.57,8.477c-3.768,4.709 -6.907,8.477 -6.907,8.477l4.081,4.618c0,0 8.163,-0.85 9.733,4.801c1.57,5.651 4.709,14.442 4.709,14.442l7.535,6.15l2.826,9.861l-3.454,1.256l5.965,4.184c0,0 10.71,2.956 16.657,0c5.948,-2.956 43.46,-27.301 43.46,-27.301c0,0 9.444,16.878 12.659,19.491c3.215,2.612 -2.009,-19.692 -2.009,-19.692c0,0 0.603,-7.9 1.808,-13.193c1.206,-5.293 6.832,-11.522 9.846,-15.34c3.014,-3.818 9.444,-14.665 9.444,-14.665l-6.832,-3.018l-42.397,43.402l-3.818,5.827l-22.161,9.187c0,0 -1.808,2.732 -5.425,4.611Z" style="fill:#6e6c33;"/></g></g><g id="Plage"><path d="M855.866,819.211c4.376,5.199 54.517,-2.45 42.488,17.39c1.415,4.952 -24.18,11.407 -20.537,13.421c0.78,0.431 19.099,-5.379 12.242,0.312c-7.615,6.32 -31.817,28.281 -63.301,15.806c0,0 -46.621,9.091 -65.892,-0.836c0,0 -104.687,2.92 -121.075,-10.901c0,0 -53.761,-11.193 -58.871,-14.356c-5.11,-3.163 -11.193,-5.84 4.136,-9.246c0,0 -4.136,-2.433 -12.166,-1.947c-8.029,0.487 -128.228,-7.543 -145.504,-21.412c0,0 -4.38,-2.19 6.083,-6.326c0,0 -0.973,-3.893 -13.869,-3.406c-12.896,0.487 -99.76,-10.949 -110.223,-14.356c-10.463,-3.406 -13.869,-1.947 -7.543,-7.056c0,0 -43.31,-3.163 -42.337,-7.3c0.973,-4.136 -6.326,-12.166 92.947,-17.519c0,0 -14.112,2.92 -9.489,3.406c4.623,0.487 65.696,-2.19 64.479,2.676c-1.217,4.866 -10.463,3.406 -10.463,3.406c0,0 -8.516,2.433 21.169,2.92c0,0 34.794,2.19 45.257,1.217c10.463,-0.973 -18.979,-2.433 -18.979,-2.433c0,0 -5.353,-2.676 14.599,-3.163c19.952,-0.487 43.797,2.433 42.58,5.84c-1.217,3.406 -14.112,2.433 -11.923,5.353c2.19,2.92 65.696,6.813 63.992,13.626c-1.703,6.813 -10.706,11.923 16.302,11.923c27.008,0 21.899,-3.893 27.252,0.487c0,0 -9.003,2.433 -5.84,4.866c3.163,2.433 9.489,3.893 17.762,0.973c8.273,-2.92 16.059,-4.623 19.709,0.973c3.65,5.596 47.933,1.46 47.933,1.46c0,0 -22.629,0 -22.629,-3.406c0,-3.406 43.797,-3.406 43.797,-3.406c0,0 1.46,-2.92 -4.136,-5.11c0,0 -5.11,-6.326 16.302,-2.676l11.923,3.893c0,0 -11.193,-3.893 -7.3,-5.596c3.893,-1.703 55.476,2.433 55.476,2.433c0,0 12.409,0.487 3.893,2.676c-8.516,2.19 -16.789,4.136 -16.789,4.136c0,0 -2.433,2.92 5.596,1.217c8.029,-1.703 23.845,0 26.278,-1.46c2.433,-1.46 -10.219,0.243 -9.246,-3.65c0.973,-3.893 12.166,-1.703 14.112,0.243c1.947,1.947 -2.19,7.543 -7.786,8.516c-5.596,0.973 -9.003,5.596 21.169,3.65c30.171,-1.947 113.037,-9.405 113.037,-9.405c0,0 -7.727,14.841 -11.017,20.973c-5.353,9.976 -63.332,-3.296 -53.603,1.173Z" style="fill:#61cad4;"/><path d="M316.544,753.88c10.07,-0.841 21.931,-1.648 35.903,-2.401c0,0 -14.112,2.92 -9.489,3.406c4.623,0.487 65.696,-2.19 64.479,2.676c-1.217,4.866 -10.463,3.406 -10.463,3.406c0,0 -2.368,0.676 -0.254,1.387l-8.43,-0.928c0,0 -66.182,-5.917 -68.207,-5.762c-0.379,0.029 -1.678,-0.655 -3.539,-1.786Zm91.352,9.706c2.767,0.13 6.142,0.235 10.246,0.302c0,0 34.794,2.19 45.257,1.217c10.463,-0.973 -18.979,-2.433 -18.979,-2.433c0,0 -5.353,-2.676 14.599,-3.163c19.952,-0.487 43.797,2.433 42.58,5.84c-1.217,3.406 -14.112,2.433 -11.923,5.353c2.19,2.92 65.696,6.813 63.992,13.626c-0.838,3.354 -3.446,6.295 -2.656,8.416l-28.025,-12.162l-66.805,-11.679l-48.289,-5.316Zm151.677,32.282c2.658,0.249 6.065,0.381 10.399,0.381c27.008,0 21.899,-3.893 27.252,0.487c0,0 -9.003,2.433 -5.84,4.866c3.163,2.433 9.489,3.893 17.762,0.973c8.273,-2.92 16.059,-4.623 19.709,0.973c3.65,5.596 47.933,1.46 47.933,1.46c0,0 -22.629,0 -22.629,-3.406c0,-3.406 43.797,-3.406 43.797,-3.406c0,0 1.46,-2.92 -4.136,-5.11c0,0 -5.11,-6.326 16.302,-2.676l11.923,3.893c0,0 -11.193,-3.893 -7.3,-5.596c3.893,-1.703 55.476,2.433 55.476,2.433c0,0 12.409,0.487 3.893,2.676c-8.516,2.19 -16.789,4.136 -16.789,4.136c0,0 -2.433,2.92 5.596,1.217c8.029,-1.703 23.845,0 26.278,-1.46c2.433,-1.46 -10.219,0.243 -9.246,-3.65c0.973,-3.893 12.166,-1.703 14.112,0.243c1.947,1.947 -2.19,7.543 -7.786,8.516c-4.658,0.81 -7.798,4.148 8.672,4.123c0.202,5.983 35.286,11.142 67.796,14.642c18.727,3.876 44.436,0.612 36.325,14.566c-1.914,5.312 -24.899,11.857 -21.257,13.871c0.434,0.24 2.174,-0.189 11.075,-1.475c-13.391,2.641 -21.653,3.512 -30.475,4.446c-13.236,1.402 -85.336,-15.728 -93.589,-17.908c-8.253,-2.18 -60.42,-5.917 -76.771,-6.385c-16.351,-0.467 -36.128,-11.991 -41.734,-11.368c-5.606,0.623 -16.507,-1.246 -28.342,-4.049c-11.835,-2.803 -27.252,-9.032 -27.252,-9.032l-31.156,-8.383Z" style="fill:#2fbeca;"/><path d="M619.07,768.214c0,0 168.217,6.37 204.453,4.588c0,0 105.635,-5.43 104.494,8.233c0,0 -11.227,30.159 -17.195,22.223c-6.608,-8.787 -62.983,6.563 -90.701,1.132c-27.719,-4.983 -12.769,-8.253 -12.769,-8.253c0,0 -12.742,-7.219 -44.223,-8.098c-33.48,-0.934 -73.034,-4.205 -78.64,1.09c0,0 -4.827,3.737 0.623,5.139c5.45,1.402 -7.942,0.623 -7.942,0.623c0,0 -32.079,-0.311 -31.923,3.426c0.156,3.737 4.554,1.374 5.917,2.336c1.363,0.962 -2.024,2.803 -9.032,2.492c-7.008,-0.311 -7.516,-0.254 -11.598,-2.805c-4.082,-2.551 -14.033,-1.837 -18.268,-0.561c-4.235,1.276 -12.247,1.939 -12.4,0.867c-0.153,-1.072 -2.092,-2.653 3.827,-3.164c5.919,-0.51 -6.13,-7.14 -28.803,-5.769c-22.673,1.37 -17.192,-5.357 -14.825,-5.855c2.367,-0.498 3.987,-1.869 -6.229,-4.485c-10.215,-2.616 -29.151,-5.357 -45.347,-8.596c-16.195,-3.239 6.104,-4.485 6.104,-4.485c0,0 5.818,-4.405 -18.319,-7.208c-24.137,-2.803 -56.216,-3.893 -72.1,-4.983c-15.884,-1.09 -50.921,-1.455 -50.61,-4.621c0.311,-3.165 3.27,-2.387 3.27,-2.387c0,0 1.09,-4.516 -12.769,-4.205c-13.859,0.311 -7.163,-4.36 15.417,-3.893c22.58,0.467 107.177,-0.133 126.947,2.3c19.77,2.433 30.11,3.346 55.659,4.258c25.548,0.912 32.848,-0.608 31.631,7.908c-1.217,8.516 -5.498,7.908 8.352,10.037c13.851,2.129 16.999,2.716 16.999,2.716Z" style="fill:#f4c18d;"/></g><g id="Crosse"><path d="M307.884,753.228c8.513,-3.108 23.108,-17.502 23.108,-17.502l412.143,-401.289c0,0 -2.24,-14.311 21.648,-20.488c0,0 17.432,8.109 22.803,22.852c0,0 0.332,2.48 -0.845,5.005c-2.865,6.152 -10.111,16.399 -19.712,19.525l-175.88,175.273c0,0 -111.153,117.271 -119.388,126.023c-8.235,8.751 -120.374,122.704 -120.374,122.704c0,0 -18.113,18.735 -44.181,22.449c-14.049,2.002 -38.76,2.198 -52.635,-20.841c-30.073,-49.936 3.101,-84.761 24.754,-80.296c10.324,2.129 15.952,12.975 15.952,12.975c0,0 2.776,9.614 0.404,21.611c-2.372,11.997 3.689,15.106 12.202,11.999Z" style="fill:#0c1d49;"/><path d="M580.699,538.294l-19.956,-15.766l-236.315,229.31c0,0 -7.867,7.292 -17.036,8.032c-14.71,1.186 -18.087,-8.502 -18.087,-8.502c0,0 -3.179,-6.194 0.092,-15.151c3.271,-8.957 -1.544,-24.993 -16.253,-23.807c-14.71,1.186 -19.675,14.572 -19.675,14.572c0,0 -12.725,29.391 3.349,54.892c8.957,14.211 18.759,19.847 33.917,22.05c12.043,1.75 32.393,-1.312 45.429,-11.619c50.253,-39.735 244.537,-254.01 244.537,-254.01Z" style="fill:#133d7b;stroke:#0a306c;stroke-width:1px;"/><path d="M752.094,332.274l18.25,19.812l8.985,-8.283c0,0 3.164,-2.62 1.791,-6.244c-1.373,-3.625 -12.955,-14.192 -12.955,-14.192c0,0 -3.959,-3.748 -9.91,-0.883l-7.26,6.609c0,0 -1.25,1.749 1.1,3.18Z" style="fill:#4a516b;"/><path d="M750.789,330.879c-0.273,-0.705 0.064,-1.516 0.064,-1.516c-0.054,-0.568 3.654,-3.884 7.801,-7.124c3.35,-2.618 6.236,-0.722 7.775,0.011c2.352,1.119 4.599,3.821 4.599,3.821c-2.232,-2.262 -5.607,-3.281 -5.607,-3.281l-12.421,10.468l-0.906,-0.983c-0.747,-0.455 -1.13,-0.942 -1.306,-1.395Z" style="fill:#e1e2e3;"/><path d="M565.402,526.422l-240.246,233.719c0,0 -23.801,19.678 -39.691,-8.642c0,0 16.943,16.507 30.224,5.709c11.217,-9.12 245.052,-234.681 245.052,-234.681l4.661,3.895Z" style="fill:#e1e2e3;"/><path d="M289.479,724.054c0,0 -7.218,-9.973 -17.46,-7.472c-18.913,4.619 -26.482,29.911 -20.25,54.981c0,0 -6.303,-20.073 -1.027,-36.997c5.276,-16.925 12.885,-20.687 21.455,-22.191c6.291,-1.104 15.243,3.065 17.282,11.679Z" style="fill:#e1e2e3;"/><path d="M591.302,492.229l1.989,33.253l-10.025,10.025l-17.66,-18.001l25.696,-25.277Zm3.798,31.445l-1.988,-33.225l14.422,-14.187l1.975,33.003l-14.408,14.409Zm16.217,-16.217l-1.973,-32.976l15.195,-14.948l1.959,32.742l-15.181,15.182Zm16.99,-16.99l-1.957,-32.714l14.223,-13.992l1.944,32.495l-14.21,14.21Zm16.019,-16.019l-1.942,-32.467l14.072,-13.843l1.93,32.251l-14.059,14.06Zm15.868,-15.868l-1.928,-32.223l14.955,-14.711l1.914,31.993l-14.941,14.941Zm16.749,-16.75l-1.912,-31.965l14.493,-14.257l1.899,31.742l-14.479,14.48Zm16.288,-16.288l-1.897,-31.714l14.695,-14.456l1.884,31.488l-14.682,14.682Zm16.49,-16.49l-1.882,-31.46l14.184,-13.952l1.869,31.242l-14.171,14.171Zm15.979,-15.979l-1.868,-31.214l15.271,-15.022l1.853,30.979l-15.257,15.257Zm17.065,-17.066l-1.852,-30.952l8.364,-8.228l6.364,6.287l1.13,18.886l-14.007,14.007Zm15.815,-15.815l-0.901,-15.066l8.032,7.935l-7.131,7.131Z" style="fill:#8b8683;"/><path d="M569.753,521.733l-4.144,-4.198l25.703,-25.144l0.443,7.41l-22.002,21.932Zm23.811,-23.735l-0.443,-7.4l14.416,-14.283l0.438,7.318l-14.411,14.365Zm16.22,-16.168l-0.437,-7.307l6.224,-6.167l8.969,-8.823l0.428,7.161l-15.184,15.136Zm16.993,-16.939l-0.427,-7.139l14.223,-13.992l0.417,6.963l-14.213,14.168Zm16.021,-15.97l-0.415,-6.94l14.072,-13.843l0.405,6.766l-14.062,14.017Zm15.87,-15.82l-0.403,-6.744l14.955,-14.711l0.392,6.559l-14.944,14.896Zm16.752,-16.699l-0.391,-6.536l14.493,-14.257l0.38,6.357l-14.482,14.436Zm16.291,-16.239l-0.379,-6.334l14.695,-14.456l0.368,6.152l-14.685,14.638Zm16.493,-16.441l-0.367,-6.13l14.184,-13.952l0.356,5.955l-14.173,14.128Zm15.982,-15.931l-0.355,-5.932l15.271,-15.022l0.344,5.743l-15.26,15.211Zm17.068,-17.014l-0.342,-5.721l8.364,-8.228l2.999,2.963l-11.021,10.986Z" style="fill:#e1e2e3;"/></g><circle id="Balle" cx="253.458" cy="838.767" r="32.006" style="fill:#edecec;stroke:#0a306c;stroke-width:4.17px;"/></g></g></g></svg>