<?xml version="1.0" encoding="UTF-8" standalone="no"?><svg width="100%" height="100%" viewBox="0 0 4000 4000" version="1.1" xmlns="http://www.w3.org/2000/svg" xmlns:xlink="http://www.w3.org/1999/xlink" xml:space="preserve" xmlns:serif="http://www.serif.com/" style="fill-rule:evenodd;clip-rule:evenodd;stroke-linejoin:round;stroke-miterlimit:2;"><g id="LRH-Complet-logo"><path id="L" d="M1053.362,1350l218.569,0l-183.851,825.95l323.154,0l-46.273,214.05l-543.845,0l232.246,-1040Z" style="fill:#072854;"></path><g id="R"><g id="Icone-Badge"><rect x="1717.649" y="1421.905" width="460.318" height="504.209" style="fill:#b42225;"></rect><path d="M1717.649,1654.844l0,-47.859l142.749,19.614c2.701,-7.858 6.567,-15.246 11.412,-21.994l-154.161,-78.817l0,-63.155l168.679,126.119c6.127,-5.3 13.008,-9.877 20.48,-13.583l-110.811,-153.265l61.362,0c20.373,45.805 48.307,107.261 66.301,146.712c8.532,-2.472 17.574,-3.893 26.943,-4.096l-19.324,-142.616l51.056,0l-17.826,143.216c7.926,0.863 15.561,2.602 22.784,5.107l63.655,-148.323l67.834,0l-116.44,154.958c7.534,4.09 14.413,9.086 20.455,14.824l155.171,-117.947l0,66.999l-141.867,66.808c4.184,6.356 7.521,13.23 9.869,20.491l131.999,-19.99l0,46.797l-128.034,0l110.553,156.4l-159.538,-156.4l-68.985,14.724l-196.127,144.671l124.301,-159.395l-142.489,0Z" style="fill:#fec117;"></path><path d="M1717.649,1832.654l180.66,-198.385c0,0 19.054,28.08 45.128,18.051c26.074,-10.028 41.117,-45.128 63.18,-17.048c13.233,16.843 102.235,118.113 171.35,196.469l0,94.357l-460.318,0l0,-93.444Z" style="fill:#b42225;"></path><path d="M1717.649,1855.958l162.569,-133.999l-15.404,37.868l37.226,-43.002c0,0 3.209,46.211 32.733,87.288c29.524,41.077 32.733,43.644 32.733,43.644l-82.153,77.019l-167.703,0.878l0,-69.695Z" style="fill:#082956;"></path><path d="M2177.968,1855.76l0,70.036c-94.318,-0.292 -234.253,-0.573 -239.344,0.302c-7.702,1.324 50.704,-80.268 50.704,-80.268c0,0 -1.925,1.284 -35.942,-50.062c-34.017,-51.346 -17.329,-62.899 -17.329,-62.899c25.031,23.106 74.452,-16.046 74.452,-16.046l167.459,138.937Z" style="fill:#082956;"></path></g><path id="R1" xmlns:www.serif.com="http://www.serif.com/" xmlns:www.serif.com="http://www.serif.com/" www.serif.com:id="R" d="M1661.685,1350l354.845,0c0,0 303.006,-14.862 301.498,287.128c-17.777,299.956 -243.541,374.057 -243.541,374.057l147.166,378.815l-242.392,0l-121.822,-345.2l-130.789,0l-75.575,345.2l-217.353,0l227.963,-1040Zm233.277,136.486l-0,0.002c-0.118,0.087 -0.731,0.539 -1.466,1.089l-0.517,0.223l-0.723,0.558l-1.307,0.727l-0.657,0.067c-1.992,0.574 -1.976,0.454 -4.005,-0.014c-0.271,-0.004 -1.849,-0.026 -3.314,-0.711c-1.813,-0.119 -1.801,-0.112 -1.958,-0.129c-0.647,-0.068 -0.576,-0.144 -1.26,-0.216l-3.331,-0.253c-0.962,0.434 -0.879,0.484 -1.92,0.745c-0.626,0.424 -0.575,0.41 -1.355,0.609c-2.271,0.895 -2.219,0.835 -4.599,1.344c-0.631,0.061 -0.582,0.048 -0.631,0.061c-0.492,0.124 -0.274,0.413 -0.735,0.529c-1.656,0.462 -1.584,0.52 -3.319,0.685l-0.67,-0.014c-1.96,0.742 -1.96,0.624 -3.929,1.332c-1.348,0.376 -1.285,0.401 -2.582,0.669c-0.601,0.703 -0.578,0.675 -1.207,1.326c-0.549,0.535 -0.324,0.65 -0.829,1.174c-0.344,0.357 -0.294,0.332 -0.621,0.7l-0.692,0.656c-0.164,0.093 -1.263,0.723 -1.931,1.349c-0.109,0.095 -0.729,0.637 -1.497,1.013l-1.861,0.351l-0.146,0.248c-0.815,0.393 -0.794,0.3 -1.74,0.542c-0.652,1.121 -0.77,0.936 -1.97,1.877c-1.351,1.342 -1.261,1.384 -2.754,2.579l-0.672,0.069c-0.223,0.069 -1.949,0.602 -2.691,1.111l-0.522,0.181c-0.542,0.671 -0.507,0.612 -0.542,0.671c-0.296,0.508 -0.11,0.554 -0.41,1.069l-0.329,0.188c-0.321,0.728 -0.302,0.665 -0.808,1.232c-0.847,1.099 -1.65,1.953 -1.802,2.115c-0.346,0.685 -0.324,0.625 -0.883,1.141c-0.751,0.808 -0.729,0.841 -1.817,0.955c-0.635,0.436 -0.558,0.481 -1.379,0.627c-1.718,1.284 -1.82,1.104 -1.967,1.217l-1.325,0.68l-0.727,0.541l-0.732,0.576c-0.443,0.544 -0.383,0.542 -0.992,0.899l-0.451,1.741c-0.092,0.411 -0.836,1.426 -0.921,1.542c-0.347,0.715 -0.342,0.651 -0.866,1.176l-0.669,0.65l-0.67,0.651c-0.71,0.69 -0.664,0.646 -1.369,1.251c-0.946,0.665 -3.753,1.041 -4.472,1.575c-0.114,0.091 -0.696,0.555 -1.398,1.164l-0.744,0.465l-1.879,0.321c-4.893,0.545 -4.896,0.457 -5.317,0.528c-0.875,0.149 -0.505,0.451 -0.59,1.267c0.84,0.875 0.918,0.829 1.198,2.019c0.404,1.722 -1.418,0.061 -3.915,0.599c-0.255,0.055 -2.632,0.567 -3.259,0.011c-1.707,-1.513 0.259,-1.343 2.413,-2.115c0.09,-0.032 0.943,-0.338 0.587,-1.047c-0.787,-1.566 -1.248,-0.613 -3.01,-0.613l-1.359,0.49c-0.319,0.174 -0.318,0.122 -1.165,0.267c-1.192,1.043 -1.197,1.133 -2.79,1.114l-3.9,-0.265c-2.903,-0.755 -2.69,-1.324 -2.897,-1.489l-0.527,-0.163c-0.311,-0.076 -2.607,-0.636 -3.883,-0.966l-1.311,0.069c-0.165,-0.101 -1.152,-0.701 -1.988,-1.379c-0.954,0.352 -0.933,0.326 -1.972,0.284c-1.175,0.95 -1.054,1.147 -0.539,2.531c0.237,1.67 0.161,1.635 -0.068,3.34c0.169,0.938 -0.083,1.126 0.561,1.336c1.572,0.514 1.867,0.354 2.26,2c-0.087,0.21 -0.937,2.268 -2.195,1.802c-1.35,-0.5 -1.611,-0.956 -2.475,0.213l-0.156,1.247c-0.175,2.34 -0.159,2.274 -0.56,4.639c-0.152,1.454 0.075,1.506 -0.693,2.703c-0.068,0.093 -0.057,0.097 -1.037,2.456c-0.811,1.393 -0.878,1.347 -0.899,1.485l-0.036,1.844c1.48,1.604 1.059,1.788 1.437,3.902c0.671,0.901 0.745,0.82 0.792,0.904l0.498,2.464c0.798,1.958 0.808,1.938 0.863,2.112c0.291,2.972 0.324,2.962 0.343,3.221l0.005,2.67l-0.364,2.567l-0.259,0.751l-0.259,1.932c-0.285,1.018 -0.203,0.984 -0.479,2.01l-0.367,3.908l-0.766,1.515c-0.197,0.541 -0.5,1.639 -0.54,1.783c-0.068,0.294 -0.477,2.055 -1.648,3.395c-0.974,1.065 -0.928,1.006 -1.937,2.025c-0.957,1.151 -0.575,1.448 -1.809,2.091l-0.177,0.546c-0.723,0.658 -0.67,0.612 -1.412,1.235c-0.564,0.501 -0.503,0.497 -1.211,0.809l-0.72,0.588c-0.161,0.101 -1.238,0.775 -1.988,1.31c-0.162,0.102 -1.236,0.777 -1.975,1.347l-0.588,0.147l-1.457,1.052c-0.433,0.249 -0.433,0.159 -1.212,0.243c-0.683,0.61 -0.655,0.587 -1.404,1.122c-0.442,0.235 -0.44,0.153 -1.232,0.241c-0.945,0.717 -1.028,0.498 -2.008,1.208c-1.385,0.304 -1.257,0.601 -2.723,0.648l-2.612,-0.415l-2.67,-0.347c-2.058,-1.322 -3.311,-0.069 -3.315,-0.066c-1.127,1.3 -1.514,1.478 -1.68,1.554l-0.132,0.59l-0.693,0.669c-0.112,0.094 -0.707,0.596 -1.343,1.25l-0.538,0.709c-0.116,0.367 -0.583,1.849 -2.756,3.949c-3.76,3.633 -3.577,3.736 -3.917,4.03l-0.735,0.608c-0.581,0.441 -0.579,0.365 -1.24,0.588c0.139,1.319 0.184,1.275 0.05,2.572c0.474,1.299 0.473,1.234 0.679,2.591c0.049,0.646 0.584,1.825 0.652,1.977c0.511,0.709 0.982,1.316 1.07,1.429c0.447,0.608 0.302,0.647 0.767,1.253c0.093,0.166 0.717,1.281 1.344,1.954c2.11,2.166 0.108,2.446 -0.572,5.383c-0.171,3.639 -0.642,3.562 -0.724,7.242l-0.05,1.968c-0.049,0.529 -0.456,4.892 0.584,6.611l0.193,0.531c0.6,0.714 0.563,0.669 1.179,1.413c0.49,0.521 0.472,0.488 0.784,1.146l0.547,0.152c0.64,0.679 0.612,0.635 1.155,1.432c0.291,1.356 0.053,1.445 0.979,2.418c0.609,0.741 0.576,0.698 1.144,1.469c0.098,0.157 0.773,1.233 1.432,1.813c1.574,0.85 1.32,1.321 1.971,1.995l0.702,0.632c0.726,0.271 0.691,0.255 1.217,0.794c0.661,0.644 1.237,1.161 1.347,1.259l0.715,0.599c0.714,0.276 0.684,0.249 1.249,0.77c0.546,0.504 0.515,0.486 0.755,1.16c0.805,0.151 0.744,0.152 1.331,0.629c0.762,0.264 0.725,0.251 1.286,0.84c0.334,1.482 2.948,3.652 3.261,3.912c0.735,0.251 0.696,0.25 1.312,0.658c1.969,0.968 1.178,1.491 0.729,2.21c-0.145,0.678 -0.14,0.614 -0.266,1.247c-0.213,1.067 0.339,0.859 0.935,1.749c1.855,0.811 1.348,1.343 2.62,2.673c0.656,0.312 0.603,0.293 1.065,0.903l0.338,1.176c0.47,0.722 0.939,1.345 1.024,1.459l0.231,0.493c0.735,0.892 0.786,0.799 1.244,1.928l1.821,0.359l0.174,0.286c0.694,0.302 0.649,0.287 1.073,0.903c0.273,0.572 0.1,0.562 0.359,1.104c0.03,0.064 0,0 0.495,0.731c0.743,0.225 0.704,0.219 1.145,0.791l0.352,1.871c0.379,1.03 0.419,0.973 0.429,2.047l-0.26,2.572l-0.308,2.05c0.006,0.075 -0.461,0.202 1.234,3.302l-0.409,1.897c0.618,0.276 0.575,0.23 1.093,0.653l1.868,0.296c0.736,0.474 1.328,0.976 1.437,1.069c0.134,0.049 -0.013,0.361 0.121,0.41c0.092,0.034 1.715,0.218 1.865,0.235c1.49,1.283 0.9,1.667 2.188,3.196c0.467,0.635 0.44,0.601 0.609,1.382c0.669,0.646 0.631,0.609 1.326,1.293l0.449,0.797c-0.014,0.267 -0.116,2.283 -0.734,3.265l-0.407,1.383c0.362,1.739 0.371,1.683 0.921,3.341c0.493,3.925 -0.332,3.953 0.382,7.828l0.034,1.382c-0.231,1.046 -0.233,0.969 -0.652,1.973c-0.093,0.307 0.017,0.258 -0.764,3.94l-0.467,2.697c-0.234,1.726 -0.608,1.55 -1.175,3.214c-0.567,1.243 -0.631,1.141 -1.587,2.11c-0.33,1.846 -0.343,2.044 1.221,3.087l1.262,0.774l0.203,0.545c0.437,1.06 0.452,0.984 0.742,1.964l0.477,0.778c0.065,0.352 -0.025,0.298 0.042,0.662c0.021,0.112 0.024,0.102 0.325,1.381l0.605,2.017l0.457,1.829l0.025,0.627c0.611,0.683 0.581,0.648 1.177,1.342c0.512,0.575 0.497,0.543 0.801,1.238c0.695,1.324 0.561,1.312 0.807,2.807c0.27,1.638 0.255,1.575 0.488,3.19c0.302,0.373 0.088,0.526 0.552,0.681c0.349,0.117 1.108,0.708 1.198,0.778c0.769,0.582 0.736,0.557 1.456,1.157l0.7,0.544l1.255,0.792c0.699,0.59 1.272,1.07 1.383,1.163l1.82,0.438l1.335,-0.184c1.406,0.482 1.092,0.807 2.043,1.898l1.21,0.793c0.235,0.365 0.169,0.351 0.369,1.154c1.624,0.802 1.03,1.402 2.389,2.596l0.625,0.088l1.277,0.76l0.726,0.553c1.296,1.008 1.232,0.978 2.273,2.178c0.384,1.345 0.181,1.533 1.473,2.17c0.715,0.517 1.294,1.024 1.402,1.118c0.168,0.14 1.183,0.989 2.162,1.679c1.058,0.314 1.106,0.296 1.46,1.383c0.648,0.738 0.266,1.072 1.153,1.429c0.229,0.092 0.384,0.7 0.401,0.767l0.347,1.93c-0.195,1.967 0.345,1.859 0.77,3.815c0.901,1.096 0.809,1.267 -0.013,2.373c-0.533,0.667 -0.941,0.584 -0.693,3.592c0.315,0.371 0.106,0.529 0.573,0.677c0.177,0.056 0.096,0.141 1.813,1.455c0.799,0.569 0.745,0.529 1.424,1.204l1.256,0.681c1.39,0.166 1.341,0.12 2.66,0.519l0.649,0.059l2.658,0.619l1.289,0.128c2.068,0.195 2.002,0.198 3.989,0.578c2.693,0.248 2.689,-0.147 5.299,0.607c1.067,0.222 0.991,0.236 1.98,0.647l0.639,0.061l2.006,0.606l0.627,0.078l2.521,0.394l1.365,0.532l0.123,0.34c1.719,0.19 1.62,0.329 3.259,0.759l1.976,0.689l0.723,0.528c1.285,0.087 1.258,0.061 2.449,0.463c1.214,0.597 1.153,0.577 2.205,1.452c0.891,0.163 0.881,0.115 1.19,0.279c0.746,0.5 1.856,1.15 2.02,1.247l0.72,0.561l1.345,0.62c0.145,0.137 1.489,1.406 1.424,2.046c-0.012,0.113 -0.053,0.514 0.66,1.264c1.09,0.517 0.919,0.674 1.691,1.56l0.695,0.642l0.731,0.576l0.698,0.63l0.62,0.704l0.762,1.222l1.163,0.809c0.151,0.182 -0.094,0.263 1.434,2.581l0.082,1.298c0.733,1.302 1.067,1.081 1.404,2.509c0.679,0.664 0.642,0.625 1.276,1.327l1.143,0.807l0.715,0.588c0.667,0.661 1.246,1.184 1.357,1.284c0.721,0.255 0.66,0.246 1.264,0.71c1.235,0.911 1.377,0.562 2.576,1.425c1.039,0.622 1.089,0.411 2.075,1.07c1.043,0.205 0.873,0.58 1.942,0.754l3.29,0.616l1.293,0.127c1.069,0.126 1.059,-0.007 2.04,0.491l1.945,0.663c2.927,-0.268 2.876,-0.24 5.864,-0.214l0.763,0.356c0.719,0.605 0.685,0.575 1.383,1.192c0.97,0.222 0.72,0.599 1.653,0.97c0.009,1.013 -0.023,0.944 -0.285,1.884l0.005,1.196c0.732,0.201 0.707,0.179 1.234,0.712c0.483,0.615 0.471,0.564 0.709,1.336c0.47,0.764 1.053,1.312 1.16,1.412c1.533,1.079 1.438,1.212 3.27,1.545c0.295,0.069 2.162,0.509 3.475,1.494c1.277,0.314 1.22,0.371 2.524,0.476l1.925,-0.012c0.25,0.137 0.538,0.195 0.789,0.332c0.067,0.036 0.448,0.245 0.603,0.739c0.137,0.436 0.292,0.249 0.655,0.559c1.636,-1.541 2.664,-2.028 3.045,0.152c0.042,0.238 0.14,0.802 1.638,2.543l0.595,0.719l0.097,0.605c0.733,0.071 0.664,0.018 2.46,-0.161l0.126,-0.301c0.308,-0.047 0.314,0.105 3.885,-0.298l1.324,-0.217c2.969,0.696 2.968,0.367 5.972,1.032c0.122,0.095 0.549,1.309 4.491,2.249c0.069,0.016 1.418,0.831 1.54,0.904c0.74,0.632 0.692,0.585 1.34,1.245c1.105,0.054 1.084,0.057 1.996,0.645l1.809,0.506c0.295,0.065 1.914,0.421 3.417,1.6l1.302,0.676c1.278,0.337 1.241,0.257 2.549,0.386l1.385,0.233l1.907,0.369c2.127,0.408 2.293,-0.303 4.13,0.901c1.679,0.892 1.385,1.295 2.028,1.938l0.541,0.175c1.333,1.135 1.452,0.744 3.188,0.903l0.751,0.44c1.413,1.072 1.694,0.878 2.113,2.654c-2.845,4.235 1.227,2.417 1.424,2.325c-0.184,-1.351 -0.264,-1.359 -0.199,-1.457c0.203,-0.304 0.368,-0.006 0.559,-0.293l1.371,-0.514c1.073,0.069 1.027,0.089 2.001,0.433c3.517,0.085 3.725,-0.644 6.707,1.266c0.273,0.055 0.953,0.191 3.179,1.421l1.989,-0.245c0.254,-0.028 2.893,-0.317 3.157,-0.5c0.636,-0.443 0.526,-0.586 1.295,-0.724c0.907,-0.641 0.827,-0.721 0.912,-0.764l2.494,-0.416c2.345,-1.156 2.63,0.399 2.862,0.676c0.955,1.016 0.932,0.95 1.868,2.044c0.835,0.647 0.821,0.57 1.85,0.886l0.168,0.281c1.904,0.519 1.792,0.775 3.749,1.173c0.71,0.452 0.66,0.408 0.71,0.452c0.219,0.193 0.009,0.274 0.225,0.464c0.08,0.169 0.635,1.349 1.29,1.95l0.711,0.641c0.618,0.597 0.559,0.561 0.618,0.597c0.53,0.322 0.59,0.102 1.102,0.413l0.142,0.352c0.749,0.206 0.718,0.18 1.359,0.616l0.559,0.173c1.923,1.271 3.758,0.515 3.898,0.495c4.904,-1.259 5.094,-0.838 5.276,-1.231c0.254,-0.55 1.94,-1.59 2.125,-1.704l1.896,-0.313c4.066,-0.031 4.024,-0.049 7.957,-0.037l2.527,0.43c0.769,0.343 1.423,0.813 1.539,0.897c0.986,1.173 0.356,1.447 1.223,2.76c0.104,0.092 0.684,0.606 1.384,1.06c0.196,-0.008 1.262,-0.052 2.455,0.084c0.324,-0.887 0.322,-0.885 1.179,-1.374l0.744,-0.619c0.634,-0.475 0.582,-0.558 1.414,-0.59c0.691,-0.6 0.658,-0.573 1.394,-1.159c0.789,-0.197 0.949,0.02 1.258,-0.767c0.255,-0.651 3.701,-0.71 4.028,-0.716l1.978,0.629c2.265,-0.143 2.227,0.046 4.492,-0.076c0.675,-0.608 0.645,-0.581 1.362,-1.179l0.719,-0.566c0.657,-0.723 0.608,-0.674 1.348,-1.279c1.026,-0.759 0.965,-0.81 1.153,-2.057c0.113,-0.752 0.267,-0.596 0.906,-1.06l1.888,-0.215c2.027,-0.088 1.979,-0.127 3.985,-0.106l1.97,0.621l6.606,-0.013l1.895,0.363c1.327,0.48 1.325,0.223 2.772,0.096c2.711,-0.131 2.711,0.124 5.244,-0.826l1.951,0.1c1.876,-0.248 1.784,-0.391 3.408,-1.332c0.852,-0.38 0.836,-0.312 1.757,-0.467c0.692,-0.605 0.653,-0.573 1.417,-1.136c1.575,-0.162 2.016,-0.879 2.134,-0.939l1.857,-0.317c0.669,-0.196 2.602,-0.764 8.652,-1.044l2.57,-0.318c3.28,-0.744 4.722,-0.791 5.138,-0.805c0.225,-0.704 0.21,-0.657 0.615,-1.247l0.189,-0.552c0.513,-0.549 0.449,-0.543 1.166,-0.906c0.678,-0.406 0.668,-0.367 1.483,-0.464l2.004,0.515c0.361,0.013 3.356,0.119 4.496,0.464c1.395,0.406 1.331,0.403 2.753,0.64l1.928,-0.406c0.77,-0.297 0.704,-0.291 0.77,-0.297c0.269,-0.027 0.191,0.217 0.488,0.187c0.693,-0.576 0.664,-0.553 1.382,-1.108c0.895,-0.634 0.89,-0.553 1.983,-0.768c0.218,-0.074 1.908,-0.648 2.571,-1.285c1.389,-1.296 1.185,-1.459 2.709,-2.56c0.11,-0.101 0.686,-0.628 1.353,-1.282l0.642,-0.679c1.289,-0.834 1.472,-0.396 2.656,-1.308l0.664,-0.655c0.555,-0.516 0.524,-0.496 1.252,-0.786l0.166,-0.307c1.461,-0.449 1.378,-0.538 2.418,-1.64c0.12,-0.126 0.383,-0.015 0.503,-0.141c1.001,-1.047 0.163,-1.567 2.166,-3.807c0.461,-0.789 0.243,-0.946 1.218,-1.397c0.442,-1.189 0.579,-1.037 1.394,-1.928c0.593,-0.721 0.543,-0.664 1.166,-1.37l0.589,-3.027c0.337,-1.057 0.33,-1.001 0.423,-2.108c-0.065,-0.13 -0.05,-0.127 -0.292,-1.203c-0.087,-0.167 -0.675,-1.307 -1.168,-2.042c-0.375,-2.036 -0.675,-1.931 -0.755,-3.987c-0.168,-1.381 -0.188,-1.32 0.02,-2.676c-0.669,-1.638 -0.644,-3.608 -0.64,-3.926c-0.224,-1.364 -0.206,-1.303 -0.061,-2.643c-0.358,-1.079 -0.577,-1.115 0.02,-2.066c0.461,-2.924 -0,-2.922 0.32,-5.836c0.018,-0.159 0.847,-6.322 -0.342,-9.237l-0.636,-1.97c-0.118,-1.075 -0.459,-0.947 -0.627,-2.015c-0.31,-1.687 -0.449,-1.653 -0.053,-3.345c0.037,-1.658 0.015,-1.631 0.074,-1.972l0.436,-2.568l0.175,-1.345c-0.558,-1.643 -0.444,-1.61 -0.626,-3.325l-0.057,-1.953l-0.626,-2.654c-0.065,-0.423 -0.035,-0.404 -0.001,-2.035l0.381,-1.896l0.342,-0.769c0.548,-0.731 0.979,-2.319 1.037,-2.53c0.296,-4.352 0.367,-4.307 0.383,-4.683l0.047,-1.969l0.484,-0.766c1.135,-1.308 0.721,-1.453 1.007,-3.156l0.078,-0.635c0.828,-3.252 0.292,-3.256 0.617,-6.627c0.069,-0.222 0.609,-1.957 0.964,-2.744c0.503,-0.596 0.464,-0.566 1.184,-0.78c-0.321,-3.097 0.913,-2.749 1.382,-3.268c1.189,-1.314 -0.731,-3.133 2.658,-7.229l0.815,-1.22l0.689,-0.608c0.468,-0.248 0.425,-0.16 1.205,-0.265c0.177,-0.128 1.305,-0.943 2.097,-1.743c0.449,-0.54 0.413,-0.539 1.058,-0.812c-0.09,-1.042 -0.101,-1.035 -0.097,-1.125c0.016,-0.41 0.156,-0.338 0.171,-0.742c0.271,-1.324 0.202,-1.274 0.464,-2.585l0.177,-1.369c-0.268,-2.689 -0.123,-2.719 -0.518,-3.274c-0.015,-0.421 -0.141,-3.988 -0.319,-5.258c0.767,-2.127 1.463,-1.068 3.645,-0.434c0.902,-0.055 0.866,0.029 1.937,0.21l0.627,-0.616c0.238,-0.23 0.315,0.079 0.56,-0.121c0.4,-0.327 0.375,-0.299 0.751,-0.598c0.772,-0.615 1.045,-1.633 1.088,-1.795l-0.667,-2.076l-0.552,-2.422c-0.464,-0.68 -0.41,-0.644 -0.588,-1.442c0.008,-0.21 0.051,-1.301 -0.058,-2.633c-0.117,-1.018 -0.037,-0.978 -0.165,-2.019l0.358,-2.618l0.579,-0.715c0.595,-0.772 0.555,-1.187 0.544,-1.299c-0.122,-1.245 -0.184,-1.221 -0.172,-1.327c0.192,-1.69 -2.729,-1.664 -3.417,-4.623l-0.404,-1.743c-0.666,-0.268 -0.637,-0.243 -1.185,-0.72c-1.473,-1.709 -0.775,-1.943 -0.959,-4.15c-0.207,-1.746 0.225,-1.881 -0.911,-3.232c-3.433,-1.509 -4.392,-2.245 -4.732,-2.506c-1.447,-1.075 -1.668,-0.287 -5.687,-1.122c-0.718,-0.477 -0.665,-0.432 -0.718,-0.477c-0.188,-0.159 0.01,-0.237 -0.165,-0.386c-0.748,-0.242 -0.712,-0.25 -1.319,-0.726l-0.515,-0.753l-0.752,-1.932c-0.703,-0.582 -1.812,-1.215 -1.976,-1.31c-0.981,-0.794 -1.147,-0.642 -1.583,-1.857c-0.823,-0.802 -0.905,-0.632 -1.763,-1.378l-1.292,-0.694l-0.698,-0.517l-0.629,-0.075c-1.375,-0.604 -1.482,-0.28 -2.674,-1.253c-3.235,0.118 -3.306,2.427 -5.972,0.67c-0.772,-0.174 -0.694,-0.214 -1.327,-0.768c-0.674,-0.685 -0.64,-0.649 -1.295,-1.337c-0.606,-0.644 -0.605,-0.638 -0.655,-0.696c-1.186,-1.388 -0.411,-1.763 -1.439,-3.245c-1.426,-2.058 -1.457,-1.997 -1.557,-2.187c-0.371,-0.843 -0.266,-0.821 -0.447,-1.781c-0.891,-1.181 -0.618,-1.288 -1.288,-2.639c-0.097,-0.108 -0.606,-0.676 -1.214,-1.345l-0.655,-0.646c-1.043,-0.91 -0.98,-0.913 -2.018,-1.853c-1.057,-0.165 -1.038,-0.165 -1.9,-0.854l-0.607,-0.712l-0.669,-0.654c-0.721,-0.659 -0.69,-0.631 -1.357,-1.288l-0.152,-0.581c-0.957,-1.19 -0.685,-1.298 -1.287,-2.688l-0.101,-0.617l-0.59,-1.346l-0.624,-1.286c-1.178,-1.47 -0.966,-1.621 -2.486,-2.766l-0.786,-1.218l-0.613,-0.69c-0.102,-0.105 -0.647,-0.664 -1.319,-1.276l-1.283,-0.723c-1.178,-0.85 -1.151,-0.799 -2.012,-1.976l-0.133,-0.57c-0.102,-0.101 -0.647,-0.646 -1.284,-1.253c-1.64,-1.454 -1.324,-1.663 -2.657,-3.399c-0.436,-0.639 -0.431,-0.602 -0.641,-1.33c-0.483,-0.542 -0.189,-0.668 -0.75,-1.219c-0.688,-0.29 -0.652,-0.283 -1.16,-0.779c-0.59,-0.731 -0.777,-1.727 -0.807,-1.888c-1.098,-0.454 -0.952,-0.599 -1.709,-1.516c-0.637,-1.025 -0.927,-2.263 -0.975,-2.47c-0.513,-0.718 -0.499,-0.664 -0.866,-1.506c-0.152,-2.251 -0.233,-2.195 0.091,-4.481c1.261,-2.724 1.588,-2.503 1.681,-2.744c0.362,-0.937 -0.215,-0.649 -0.548,-0.754c-1.125,-0.354 -3.258,-2.112 -3.518,-2.326c-1.039,-0.926 -1.015,-0.899 -1.038,-0.932c-0.369,-1.217 -0.264,-1.189 -0.41,-2.468c-0.214,-0.284 -1.809,-2.398 -1.943,-3.994c-0.593,-0.699 -0.567,-0.668 -1.113,-1.4l-0.742,-1.247c-1.346,-1.433 -1.455,-1.231 -3.191,-2.105c-0.779,-0.525 -0.726,-0.485 -1.429,-1.089c-1.366,-0.218 -1.276,-0.297 -2.565,-0.685c-0.281,-0.013 -2.422,-0.109 -2.894,-2c-0.058,-0.089 -0.241,0.077 -0.79,-1.516c-0.216,-2.367 0.608,-2.874 -1.419,-4.136l-0.349,-1.002c-0.792,-2.612 -0.798,-2.601 -0.834,-2.793l-0.377,-1.904c-0.261,-1.26 -0.262,-1.251 -0.282,-1.361c-0.068,-0.37 0.021,-0.316 -0.044,-0.673c-0.172,-2.651 -0.384,-7.841 -0.412,-8.523l-0.259,-2.686c-0.004,-3.334 0.4,-3.336 -0.374,-6.577l0.023,-0.681c0.208,-1.356 0.237,-1.288 0.571,-2.655l-0.16,-2.041l-0.401,-1.876l-0.314,-1.393l-0.597,-2.665l-0.072,-0.634c-0.417,-2.701 -1.037,-2.471 -1.781,-5.064l-0.425,-0.185l-0.825,-1.209l-0.108,-0.615c-0.64,-0.649 -0.599,-0.603 -1.239,-1.329c-1.486,-1.821 -1.437,-2.399 -1.416,-2.637c0.053,-0.621 -0.276,-0.405 -0.498,-0.731l-0.708,-1.291c-0.648,-0.895 -0.63,-0.882 -0.764,-1.979c-0.98,-0.98 -1.064,-0.957 -1.277,-2.575c-1.206,-0.398 -1.755,-0.868 -1.981,-2.659c-1.137,-0.418 -0.95,-0.599 -1.754,-1.479l-0.701,-0.614c-1.476,-1.234 -1.447,-1.175 -2.775,-2.531c-1.822,-1.859 -1.597,-2.002 -3.365,-3.923c-1.058,-0.51 -0.898,-0.648 -1.686,-1.549c-0.049,-0.157 -0.35,-1.126 -0.917,-1.835c-0.401,-0.618 -0.389,-0.568 -0.637,-1.315c-0.132,-0.161 0.048,-0.458 -0.084,-0.619c-0.435,-0.532 -0.619,-0.229 -1.102,-0.777c-0.712,-0.547 -1.844,-1.175 -2.01,-1.267c-1.357,-0.961 -1.378,-0.827 -2.686,-1.892c-0.728,-0.278 -0.677,-0.265 -1.282,-0.75c-0.71,-0.569 -0.651,-0.528 -0.71,-0.569c-0.247,-0.173 -0.28,-0.008 -0.538,-0.189c-0.733,-0.535 -1.857,-1.153 -2.023,-1.245c-1.24,-0.835 -1.356,-0.522 -2.606,-1.385c-0.751,-0.601 -0.707,-0.565 -1.433,-1.154c-0.492,-0.367 -0.476,-0.279 -1.111,-0.384l-0.779,-0.346l-1.886,-0.294l-0.779,-0.376c-0.733,-0.485 -1.852,-1.108 -2.017,-1.199c-1.161,-0.167 -1.158,-0.124 -1.251,-0.162l-2.632,0.045l-1.309,-0.12c-0.737,-0.522 -0.672,-0.489 -0.737,-0.522c-0.3,-0.154 -0.309,0.035 -0.597,-0.112l-1.978,0.069c-3.671,0.502 -3.853,0.51 -6.734,-1.837c-0.972,-0.122 -0.968,-0.089 -1.196,-0.194l-1.224,-0.25l-0.723,-0.461c-0.112,-0.096 -0.703,-0.602 -1.416,-1.189c-1.537,-0.98 -1.695,-0.508 -3.274,-1.348c-2.927,-2.113 -2.979,-1.907 -3.217,-2.102l-0.688,-0.627c-0.744,-0.603 -0.71,-0.575 -1.413,-1.208c-0.704,-0.556 -0.644,-0.517 -0.704,-0.556c-0.271,-0.176 -0.299,-0.002 -0.557,-0.169c-0.768,-0.541 -0.735,-0.517 -1.437,-1.09c-0.994,-0.188 -0.936,-0.139 -1.186,-0.276l-1.344,-0.511c-1.295,0.174 -1.231,0.253 -2.578,0.072c-0.802,-0.108 -0.59,0.475 -0.653,0.548c-0.502,0.577 -1.229,0.69 -1.349,0.709c-3.895,0.607 -5.693,-0.982 -6.065,-1.311l-1.238,-0.781c-2.425,-2.084 -2.762,-1.202 -5.935,-1.293l-1.905,-0.291l-0.12,-0.237l-1.869,-0.426l-0.66,-0.085c-1.647,-0.449 -1.605,-0.502 -3.309,-0.236c-0.165,0.094 -1.272,0.728 -1.982,1.31c-0.583,0.472 -0.522,0.465 -1.267,0.772c-0.772,0.532 -0.72,0.497 -1.484,0.974c-0.98,0.082 -0.924,0.09 -1.885,0.002c-1.28,-0.38 -1.271,-0.379 -1.382,-0.41c-0.623,-0.175 -0.584,-0.085 -1.242,-0.271c-1.938,-0.907 -3.628,-1.338 -3.954,-1.421c-0.222,-0.067 -2.237,-0.672 -2.686,-1.088c-0.557,-0.516 -0.661,-0.231 -1.361,-0.524l-1.888,-0.4c-2.525,-0.254 -2.507,-0.266 -2.726,-0.275l-1.912,-0.363c-5.975,-2.547 -6.147,-2.141 -6.588,-2.492c-1.522,-1.211 -1.649,-0.909 -3.434,-1.703l-2.558,-0.449c-2.016,-0.3 -1.974,-0.283 -3.986,-0.635l-1.949,0.334l-0.167,0.273l-2.461,0.437c-0.757,0.197 -0.556,0.575 -1.32,0.68c-1.742,0.239 -1.624,0.519 -3.31,0.68c-1.65,0.368 -1.618,0.285 -3.272,0.294l-0.632,-0.11c-3.316,-0.834 -3.294,-0.539 -6.67,-0.607c-1.868,-0.312 -1.861,-0.255 -2.022,-0.286l-1.876,-0.355c-0.764,-0.373 -1.386,-0.846 -1.498,-0.932l-1.194,-0.834c-0.517,-0.452 -0.508,-0.38 -0.827,-1.048c-1.096,-0.127 -1.099,-0.053 -1.988,-0.657c-0.11,-0.105 -0.769,-0.732 -1.414,-1.276c-0.787,-0.665 -0.963,-0.25 -1.787,-0.902l-0.634,-0.692c-0.099,-0.113 -0.615,-0.698 -1.262,-1.385c-0.548,-0.446 -0.362,-0.575 -0.902,-0.995l-2.433,-0.557c-1.06,-0.103 -1.097,-0.235 -1.912,0.428Z" style="fill:#072854;"></path></g><g id="H"><path id="Haut-H" xmlns:www.serif.com="http://www.serif.com/" xmlns:www.serif.com="http://www.serif.com/" www.serif.com:id="Haut H" d="M2318.033,1959.114l144.122,-609.233l210.869,0.119l-92.684,410.527c0,0 -126.809,22.229 -262.307,198.587Z" style="fill:#072854;"></path><path id="Bas-H" xmlns:www.serif.com="http://www.serif.com/" xmlns:www.serif.com="http://www.serif.com/" www.serif.com:id="Bas H" d="M3082.831,1782.487l-132.879,607.513l-219.629,0l97.467,-430.886l-288.771,0l-96.943,430.886l-143.892,0l-48.226,-111.569c0,0 40.392,-454.315 423.066,-495.944l229.8,0l110.17,-257.698c0,0 2.525,-17.364 -9.623,-15.278c-20.132,3.457 -78.333,-10.557 -87.456,-60.642c-2.94,-16.138 -2.309,-36.181 12.556,-60.904c43.456,-72.274 160.337,-25.998 154.361,-26.809c0,0 89.552,31.381 95.895,135.022c3.7,60.457 -40.129,150.324 -40.129,150.324l-55.765,135.985Zm-143.034,0c122.1,7.261 131.067,-71.977 131.067,-71.977l-85.562,-31.986l-45.505,103.963Zm139.863,-94.267l10.869,-26.138l-86.436,-34.161l-10.869,26.576l86.436,33.723Zm20.962,-48.653l10.869,-26.138l-86.436,-34.161l-10.869,26.576l86.436,33.723Zm20.561,-50.718c0,0 10.352,-9.072 21.027,-66.587c10.675,-57.515 -33.643,-104.811 -33.643,-104.811c0,0 -41.73,-39.789 -93.165,-38.819c-51.435,0.97 -63.08,32.996 -65.992,43.671c-2.911,10.675 1.665,29.825 12.293,40.869c16.498,17.145 55.317,14.557 55.317,14.557c38.819,10.675 26.203,54.831 26.203,54.831l-7.764,22.644l85.725,33.643Z" style="fill:#072854;"></path></g></g></svg>