<?xml version="1.0" encoding="UTF-8" standalone="no"?><svg width="100%" height="100%" viewBox="0 0 4000 4000" version="1.1" xmlns="http://www.w3.org/2000/svg" xmlns:xlink="http://www.w3.org/1999/xlink" xml:space="preserve" xmlns:serif="http://www.serif.com/" style="fill-rule:evenodd;clip-rule:evenodd;stroke-linejoin:round;stroke-miterlimit:2;"><g id="Icone"><path d="M3000,1981.143c-9.58,67.274 -29.865,132.012 -59.478,193.131l-568.445,-0c-2.842,-33.116 -10.334,-64.913 -21.82,-94.732l649.743,-98.399Zm-684.77,30.768c-13.069,-19.615 -28.077,-37.83 -44.75,-54.369l603.452,-458.691c45.334,62.373 80.218,130.055 102.769,201.56l-661.47,311.5Zm-112.676,-106.902c-15.803,-9.364 -32.41,-17.513 -49.691,-24.317l299.169,-697.094c4.761,1.89 9.5,3.809 14.218,5.757c70.303,29.027 135.722,64.415 195.024,105.191l-458.719,610.463Zm-127.875,-44.917c-15.413,-2.178 -31.15,-3.343 -47.141,-3.426l-102.323,-755.183c24.831,-1.449 49.911,-2.187 75.208,-2.187c54.531,0 108.054,3.427 160.242,10.022c2.452,0.31 4.9,0.627 7.346,0.95l-93.333,749.824Zm-142.602,9.338c-20.723,5.788 -40.667,13.45 -59.638,22.792l-463.616,-641.235c63.117,-36.252 131.783,-66.859 204.797,-90.876c64.027,150.235 228.918,513.067 318.457,709.319Zm-131.636,70.143c-19.562,16.663 -37.258,35.453 -52.728,56.012l-700.194,-357.985c27.315,-63.487 64.568,-123.374 110.298,-178.507l642.624,480.48Zm-96.208,132.169c-13.249,32.052 -21.842,66.511 -24.933,102.531l-618.975,-0c-30.517,-62.984 -51.127,-129.811 -60.325,-199.296l704.233,96.765Z" style="fill:#fec117;"></path><path d="M2923.486,2900.658l-1778.064,0l751.494,-825.226c0,0 53.881,79.403 127.612,51.045c73.731,-28.358 116.269,-127.612 178.657,-48.209c62.388,79.403 720.3,822.39 720.3,822.39Z" style="fill:#b42225;"></path><path d="M1145.421,2900.658l700.336,-577.261l-43.558,107.081l105.266,-121.6c0,0 9.075,130.675 92.561,246.831c83.487,116.155 92.561,123.415 92.561,123.415l-232.311,217.792l-714.856,3.743Z" style="fill:#082956;"></path><path d="M2010.916,2900.658c21.779,-3.743 916.54,0 916.54,0l-713.268,-591.781c0,0 -139.75,110.711 -210.532,45.373c0,0 -47.188,32.669 49.003,177.863c96.191,145.194 101.636,141.565 101.636,141.565c0,0 -165.159,230.723 -143.379,226.98Z" style="fill:#082956;"></path></g></svg>