<?xml version="1.0" encoding="UTF-8" standalone="no"?>
<svg width="2265" height="1040" viewBox="820 1350 2265 1040" version="1.1" xmlns="http://www.w3.org/2000/svg" xmlns:xlink="http://www.w3.org/1999/xlink" xml:space="preserve" style="fill-rule:evenodd;clip-rule:evenodd;stroke-linejoin:round;stroke-miterlimit:2;">
    <g id="LRH-Complet-logo">
        <path id="L" d="M1053.362,1350l218.569,0l-183.851,825.95l323.154,0l-46.273,214.05l-543.845,0l232.246,-1040Z" style="fill:#072854;"></path>
        <g id="R">
            <g id="Icone-Badge">
                <rect x="1717.649" y="1421.905" width="460.318" height="504.209" style="fill:#b42225;"></rect>
                <path d="M1717.649,1654.844l0,-47.859l142.749,19.614c2.701,-7.858 6.567,-15.246 11.412,-21.994l-154.161,-78.817l0,-63.155l168.679,126.119c6.127,-5.3 13.008,-9.877 20.48,-13.583l-110.811,-153.265l61.362,0c20.373,45.805 48.307,107.261 66.301,146.712c8.532,-2.472 17.574,-3.893 26.943,-4.096l-19.324,-142.616l51.056,0l-17.826,143.216c7.926,0.863 15.561,2.602 22.784,5.107l63.655,-148.323l67.834,0l-116.44,154.958c7.534,4.09 14.413,9.086 20.455,14.824l155.171,-117.947l0,66.999l-141.867,66.808c4.184,6.356 7.521,13.23 9.869,20.491l131.999,-19.99l0,46.797l-128.034,0l110.553,156.4l-159.538,-156.4l-68.985,14.724l-196.127,144.671l124.301,-159.395l-142.489,0Z" style="fill:#fec117;"></path>
                <path d="M1717.649,1832.654l180.66,-198.385c0,0 19.054,28.08 45.128,18.051c26.074,-10.028 41.117,-45.128 63.18,-17.048c13.233,16.843 102.235,118.113 171.35,196.469l0,94.357l-460.318,0l0,-93.444Z" style="fill:#b42225;"></path>
                <path d="M1717.649,1855.958l162.569,-133.999l-15.404,37.868l37.226,-43.002c0,0 3.209,46.211 32.733,87.288c29.524,41.077 32.733,43.644 32.733,43.644l-82.153,77.019l-167.703,0.878l0,-69.695Z" style="fill:#082956;"></path>
                <path d="M2177.968,1855.76l0,70.036c-94.318,-0.292 -234.253,-0.573 -239.344,0.302c-7.702,1.324 50.704,-80.268 50.704,-80.268c0,0 -1.925,1.284 -35.942,-50.062c-34.017,-51.346 -17.329,-62.899 -17.329,-62.899c25.031,23.106 74.452,-16.046 74.452,-16.046l167.459,138.937Z" style="fill:#082956;"></path>
            </g>
            <path id="R1" d="M1661.685,1350l354.845,0c0,0 303.006,-14.862 301.498,287.128c-17.777,299.956 -243.541,374.057 -243.541,374.057l147.166,378.815l-242.392,0l-121.822,-345.2l-130.789,0l-75.575,345.2l-217.353,0l227.963,-1040Z" style="fill:#072854;"></path>
        </g>
        <g id="H">
            <path id="Haut-H" d="M2318.033,1959.114l144.122,-609.233l210.869,0.119l-92.684,410.527c0,0 -126.809,22.229 -262.307,198.587Z" style="fill:#072854;"></path>
            <path id="Bas-H" d="M3082.831,1782.487l-132.879,607.513l-219.629,0l97.467,-430.886l-288.771,0l-96.943,430.886l-143.892,0l-48.226,-111.569c0,0 40.392,-454.315 423.066,-495.944l229.8,0l110.17,-257.698c0,0 2.525,-17.364 -9.623,-15.278c-20.132,3.457 -78.333,-10.557 -87.456,-60.642c-2.94,-16.138 -2.309,-36.181 12.556,-60.904c43.456,-72.274 160.337,-25.998 154.361,-26.809c0,0 89.552,31.381 95.895,135.022c3.7,60.457 -40.129,150.324 -40.129,150.324l-55.765,135.985Zm-143.034,0c122.1,7.261 131.067,-71.977 131.067,-71.977l-85.562,-31.986l-45.505,103.963Zm139.863,-94.267l10.869,-26.138l-86.436,-34.161l-10.869,26.576l86.436,33.723Zm20.962,-48.653l10.869,-26.138l-86.436,-34.161l-10.869,26.576l86.436,33.723Zm20.561,-50.718c0,0 10.352,-9.072 21.027,-66.587c10.675,-57.515 -33.643,-104.811 -33.643,-104.811c0,0 -41.73,-39.789 -93.165,-38.819c-51.435,0.97 -63.08,32.996 -65.992,43.671c-2.911,10.675 1.665,29.825 12.293,40.869c16.498,17.145 55.317,14.557 55.317,14.557c38.819,10.675 26.203,54.831 26.203,54.831l-7.764,22.644l85.725,33.643Z" style="fill:#072854;"></path>
        </g>
    </g>
</svg>